<?xml version="1.0" encoding="UTF-8"?>
<svg version="1.1" xmlns="http://www.w3.org/2000/svg" width="225" height="225">
<path d="M0 0 C74.25 0 148.5 0 225 0 C225 74.25 225 148.5 225 225 C150.75 225 76.5 225 0 225 C0 150.75 0 76.5 0 0 Z " fill="#FEFEFE" transform="translate(0,0)"/>
<path d="M0 0 C4.70726088 0.89662112 9.48329166 1.38561964 14.23876953 1.95507812 C17.02001953 2.38476562 17.02001953 2.38476562 18.02001953 3.38476562 C18.15892205 6.38467675 18.23334142 9.35970524 18.25830078 12.36132812 C18.26637253 13.27876801 18.27444427 14.19620789 18.28276062 15.14144897 C18.29663475 17.09688413 18.3073419 19.05234385 18.31518555 21.0078125 C18.33216905 23.94906751 18.37599319 26.88912923 18.42041016 29.83007812 C18.58072571 49.16561236 15.27167408 65.563296 1.50048828 80.09570312 C-5.66207431 86.70556404 -15.28829964 92.7258629 -25.21435547 93.57617188 C-38.39879949 92.78221813 -49.32677263 85.42162683 -58.16748047 76.19726562 C-70.36022166 61.86715148 -71.44813413 45.69440926 -71.26123047 27.7355957 C-71.22965948 24.66605664 -71.22020946 21.59703021 -71.21435547 18.52734375 C-71.20520026 16.58007179 -71.19482926 14.63280507 -71.18310547 12.68554688 C-71.17885559 11.76590652 -71.17460571 10.84626617 -71.17022705 9.89875793 C-71.09724707 3.50203223 -71.09724707 3.50203223 -69.97998047 2.38476562 C-68.14183567 2.02712944 -66.29279843 1.72514817 -64.44091797 1.44726562 C-63.30267578 1.27453125 -62.16443359 1.10179687 -60.99169922 0.92382812 C-59.79158203 0.7459375 -58.59146484 0.56804688 -57.35498047 0.38476562 C-56.17806641 0.206875 -55.00115234 0.02898438 -53.78857422 -0.15429688 C-51.50579526 -0.49838279 -49.22243922 -0.83866561 -46.93847656 -1.17480469 C-44.72012386 -1.50504964 -42.50526919 -1.85893666 -40.29248047 -2.22460938 C-26.71929852 -3.82522045 -13.31505568 -2.76591361 0 0 Z " fill="#4E3CC1" transform="translate(138.97998046875,34.615234375)"/>
<path d="M0 0 C1.32 0 2.64 0 4 0 C6.475 5.445 6.475 5.445 9 11 C11.79947917 11.13020833 14.59895833 11.26041667 17.3984375 11.390625 C20 12 20 12 21.3515625 14.046875 C21.56554687 14.69140625 21.77953125 15.3359375 22 16 C21.41089844 16.34289062 20.82179687 16.68578125 20.21484375 17.0390625 C17.58599199 18.86978946 15.82715527 20.34875193 14 23 C13.58663772 27.79814187 14.16055792 32.27158014 15 37 C13.25 37.65625 13.25 37.65625 11 38 C8.81463921 36.87317334 6.97963269 35.48504275 5 34.03125 C3.07108305 32.80550088 3.07108305 32.80550088 0.97265625 33.2109375 C-1.03617162 34.01446865 -2.74168378 34.96000349 -4.5625 36.125 C-6.2640625 37.053125 -6.2640625 37.053125 -8 38 C-8.99 37.67 -9.98 37.34 -11 37 C-10.835 36.154375 -10.67 35.30875 -10.5 34.4375 C-9.33037496 27.63336972 -9.33037496 27.63336972 -11.71484375 21.4609375 C-13.88995864 19.35853541 -13.88995864 19.35853541 -16.21484375 17.5859375 C-16.80394531 17.06257813 -17.39304687 16.53921875 -18 16 C-18 15.01 -18 14.02 -18 13 C-15.29816945 11.64908472 -12.88191794 11.66141942 -9.875 11.4375 C-8.77929688 11.35371094 -7.68359375 11.26992187 -6.5546875 11.18359375 C-5.71164063 11.12300781 -4.86859375 11.06242187 -4 11 C-3.86722656 10.24332031 -3.73445313 9.48664063 -3.59765625 8.70703125 C-2.88676181 5.48709761 -1.54976596 2.89738853 0 0 Z " fill="#FBFAFC" transform="translate(111,56)"/>
<path d="M0 0 C0.77962601 -0.00570007 1.55925201 -0.01140015 2.36250305 -0.01727295 C4.01598757 -0.02672857 5.66949098 -0.03325916 7.32299805 -0.03710938 C9.8361171 -0.04677057 12.34840265 -0.07776898 14.86132812 -0.109375 C16.47004724 -0.11590974 18.0787722 -0.12115836 19.6875 -0.125 C20.43255295 -0.1373468 21.1776059 -0.1496936 21.94523621 -0.16241455 C27.72140966 -0.13812796 32.80151069 0.82885444 37.05078125 5.078125 C38.32060591 7.47668269 38.88446425 9.50844276 39.17578125 12.203125 C38.17578125 13.203125 38.17578125 13.203125 36.00547791 13.32337952 C35.04839432 13.32115891 34.09131073 13.31893829 33.10522461 13.31665039 C32.02417953 13.31657486 30.94313446 13.31649933 29.82933044 13.31642151 C28.06529625 13.30867958 28.06529625 13.30867958 26.265625 13.30078125 C25.06845352 13.2993663 23.87128204 13.29795135 22.63783264 13.29649353 C18.79629059 13.29087479 14.95480582 13.27831911 11.11328125 13.265625 C8.51627688 13.26061241 5.9192716 13.25604909 3.32226562 13.25195312 C-3.05991554 13.24089927 -9.44206305 13.22414292 -15.82421875 13.203125 C-15.2157282 7.3916984 -14.39508607 4.99360034 -9.82421875 1.203125 C-6.71547795 -0.3512454 -3.41342796 0.01920968 0 0 Z " fill="#FEDA0A" transform="translate(100.82421875,133.796875)"/>
<path d="M0 0 C1.20462891 -0.02126953 1.20462891 -0.02126953 2.43359375 -0.04296875 C4.5625 0.1875 4.5625 0.1875 6.5625 2.1875 C7.046875 4.9375 7.046875 4.9375 7.3125 8.1875 C7.45945312 9.79625 7.45945312 9.79625 7.609375 11.4375 C7.5625 14.1875 7.5625 14.1875 5.5625 16.1875 C3.21484375 16.41796875 3.21484375 16.41796875 0.5 16.375 C-0.39847656 16.36855469 -1.29695313 16.36210937 -2.22265625 16.35546875 C-4.4375 16.1875 -4.4375 16.1875 -5.4375 15.1875 C-5.53659302 12.85589945 -5.56720504 10.52120058 -5.5625 8.1875 C-5.56507812 6.90875 -5.56765625 5.63 -5.5703125 4.3125 C-5.3705167 -0.38857768 -4.29726678 0.03437813 0 0 Z " fill="#4F3DC1" transform="translate(39.4375,154.8125)"/>
<path d="M0 0 C4.53460431 1.13365108 5.90024653 2.64193374 9 6 C10.1446875 4.515 10.1446875 4.515 11.3125 3 C12.61328125 1.3125 12.61328125 1.3125 14 0 C14.99 0 15.98 0 17 0 C17 5.28 17 10.56 17 16 C15.68 15.67 14.36 15.34 13 15 C12.67 13.02 12.34 11.04 12 9 C11.01 10.485 11.01 10.485 10 12 C8.0625 11.625 8.0625 11.625 6 11 C5.67 10.34 5.34 9.68 5 9 C4.34 11.31 3.68 13.62 3 16 C2.01 16 1.02 16 0 16 C0 10.72 0 5.44 0 0 Z " fill="#57DF96" transform="translate(147,155)"/>
<path d="M0 0 C1.21816406 0.03480469 1.21816406 0.03480469 2.4609375 0.0703125 C3.68683594 0.09738281 3.68683594 0.09738281 4.9375 0.125 C5.87722656 0.15980469 5.87722656 0.15980469 6.8359375 0.1953125 C6.94435701 2.11072388 7.02171829 4.02791023 7.0859375 5.9453125 C7.13234375 7.01265625 7.17875 8.08 7.2265625 9.1796875 C6.8359375 12.1953125 6.8359375 12.1953125 5.0234375 14.6015625 C2.8359375 16.1953125 2.8359375 16.1953125 -0.4140625 15.9453125 C-1.7753125 15.5740625 -1.7753125 15.5740625 -3.1640625 15.1953125 C-3.1640625 14.2053125 -3.1640625 13.2153125 -3.1640625 12.1953125 C-1.1840625 12.1953125 0.7959375 12.1953125 2.8359375 12.1953125 C2.8359375 11.5353125 2.8359375 10.8753125 2.8359375 10.1953125 C1.4128125 10.288125 1.4128125 10.288125 -0.0390625 10.3828125 C-1.0703125 10.3209375 -2.1015625 10.2590625 -3.1640625 10.1953125 C-5.1640625 7.1953125 -5.1640625 7.1953125 -4.9140625 4.6328125 C-3.98063244 1.59916481 -3.27335777 0.2954294 0 0 Z " fill="#4B38C0" transform="translate(69.1640625,159.8046875)"/>
<path d="M0 0 C0.99 0 1.98 0 3 0 C3 1.98 3 3.96 3 6 C4.98 6 6.96 6 9 6 C9 4.02 9 2.04 9 0 C10.32 0.33 11.64 0.66 13 1 C13 5.62 13 10.24 13 15 C11.68 15.33 10.36 15.66 9 16 C9 14.02 9 12.04 9 10 C7.02 10 5.04 10 3 10 C3 11.98 3 13.96 3 16 C1.68 16 0.36 16 -1 16 C-1.02685095 13.52076199 -1.04676547 11.0418116 -1.0625 8.5625 C-1.07506836 7.50192383 -1.07506836 7.50192383 -1.08789062 6.41992188 C-1.09653588 4.61306441 -1.05220011 2.80612397 -1 1 C-0.67 0.67 -0.34 0.34 0 0 Z " fill="#FC823C" transform="translate(116,155)"/>
<path d="M0 0 C8 0 8 0 10.5 1.125 C12 3 12 3 12.5 6 C12 9 12 9 10.25 10.875 C8 12 8 12 4 12 C3.67 13.32 3.34 14.64 3 16 C2.01 16 1.02 16 0 16 C0 10.72 0 5.44 0 0 Z " fill="#52D3FB" transform="translate(166,155)"/>
<path d="M0 0 C3 1 3 1 4.640625 3.6171875 C5.17171875 4.69226563 5.7028125 5.76734375 6.25 6.875 C7.06210938 8.47988281 7.06210938 8.47988281 7.890625 10.1171875 C9 13 9 13 8 16 C7.01 16 6.02 16 5 16 C4.67 15.34 4.34 14.68 4 14 C1.67843403 13.59270772 -0.6568787 13.25561323 -3 13 C-3.33 13.99 -3.66 14.98 -4 16 C-4.99 16 -5.98 16 -7 16 C-6.56688677 10.36952802 -4.07551604 4.07551604 0 0 Z " fill="#FDB22D" transform="translate(137,155)"/>
<path d="M0 0 C0.99 0.103125 1.98 0.20625 3 0.3125 C3.66 1.3025 4.32 2.2925 5 3.3125 C2 5.3125 2 5.3125 -0.1875 4.9375 C-0.785625 4.73125 -1.38375 4.525 -2 4.3125 C-2 4.9725 -2 5.6325 -2 6.3125 C-1.030625 6.456875 -0.06125 6.60125 0.9375 6.75 C4 7.3125 4 7.3125 5 8.3125 C5.1875 11.25 5.1875 11.25 5 14.3125 C3 16.3125 3 16.3125 0.0625 16.5625 C-3 16.3125 -3 16.3125 -6 14.3125 C-6 13.3225 -6 12.3325 -6 11.3125 C-3.69 11.6425 -1.38 11.9725 1 12.3125 C1.33 11.6525 1.66 10.9925 2 10.3125 C1.05125 10.18875 0.1025 10.065 -0.875 9.9375 C-4 9.3125 -4 9.3125 -6 7.3125 C-5.54792997 2.79179975 -4.85245508 0.50546407 0 0 Z " fill="#E034FD" transform="translate(185,154.6875)"/>
<path d="M0 0 C0 1.32 0 2.64 0 4 C-2.31 4 -4.62 4 -7 4 C-7.38218767 5.65614657 -7.71395102 7.32457024 -8 9 C-6.81575674 10.41577477 -6.81575674 10.41577477 -3.4375 10.0625 C-1.7359375 10.0315625 -1.7359375 10.0315625 0 10 C0.33 11.32 0.66 12.64 1 14 C-2.13871188 15.56935594 -4.53855822 15.35201103 -8 15 C-11.37564269 12.55804571 -12.75320045 11.0769435 -13.6875 7 C-12.90167962 3.57096559 -11.61728363 1.9466338 -8.80078125 -0.1640625 C-5.7429158 -1.58354885 -3.14778014 -0.81842284 0 0 Z " fill="#FD5F60" transform="translate(113,156)"/>
<path d="M0 0 C0.99 0.33 1.98 0.66 3 1 C3.33 2.65 3.66 4.3 4 6 C4.78375 6.12375 5.5675 6.2475 6.375 6.375 C9 7 9 7 11 9 C11.125 12.625 11.125 12.625 11 16 C9.68 16.33 8.36 16.66 7 17 C6.67 14.69 6.34 12.38 6 10 C5.34 10 4.68 10 4 10 C3.67 12.31 3.34 14.62 3 17 C1.68 16.67 0.36 16.34 -1 16 C-1.02685095 13.52076199 -1.04676547 11.0418116 -1.0625 8.5625 C-1.07506836 7.50192383 -1.07506836 7.50192383 -1.08789062 6.41992188 C-1.09653588 4.61306441 -1.05220011 2.80612397 -1 1 C-0.67 0.67 -0.34 0.34 0 0 Z " fill="#4B38C0" transform="translate(78,154)"/>
<path d="M0 0 C0.99 0 1.98 0 3 0 C3 1.32 3 2.64 3 4 C4.32 4 5.64 4 7 4 C7 4.99 7 5.98 7 7 C5.68 7 4.36 7 3 7 C3 8.32 3 9.64 3 11 C3.99 11 4.98 11 6 11 C6 12.32 6 13.64 6 15 C3.03 14.505 3.03 14.505 0 14 C0 11.69 0 9.38 0 7 C-0.66 7 -1.32 7 -2 7 C-2 6.01 -2 5.02 -2 4 C-1.34 4 -0.68 4 0 4 C0 2.68 0 1.36 0 0 Z " fill="#4B37C0" transform="translate(92,156)"/>
<path d="M0 0 C0.99 0.66 1.98 1.32 3 2 C3.40843923 4.71203652 3.13336867 7.2437142 3 10 C2.34 10 1.68 10 1 10 C0.67 10.99 0.34 11.98 0 13 C-1.65 13 -3.3 13 -5 13 C-5 11.35 -5 9.7 -5 8 C-3.68 8 -2.36 8 -1 8 C-1 7.34 -1 6.68 -1 6 C-2.32 6 -3.64 6 -5 6 C-5 5.01 -5 4.02 -5 3 C-3.68 3 -2.36 3 -1 3 C-0.67 2.01 -0.34 1.02 0 0 Z " fill="#7162CD" transform="translate(43,155)"/>
<path d="M0 0 C1.32 0 2.64 0 4 0 C4.10841951 1.91541138 4.18578079 3.83259773 4.25 5.75 C4.29640625 6.81734375 4.3428125 7.8846875 4.390625 8.984375 C4 12 4 12 2.1875 14.40625 C0 16 0 16 -3.25 15.75 C-4.61125 15.37875 -4.61125 15.37875 -6 15 C-6 14.01 -6 13.02 -6 12 C-2.535 11.505 -2.535 11.505 1 11 C1.33 7.7 1.66 4.4 2 1 C1.34 0.67 0.68 0.34 0 0 Z " fill="#5C4BC5" transform="translate(72,160)"/>
<path d="M0 0 C2.3125 1.5 2.3125 1.5 5.3125 5.5 C0.6925 5.5 -3.9275 5.5 -8.6875 5.5 C-8.6875 4.84 -8.6875 4.18 -8.6875 3.5 C-3.6875 -0.68604651 -3.6875 -0.68604651 0 0 Z " fill="#F7D50C" transform="translate(114.6875,91.5)"/>
<path d="M0 0 C2.64 0 5.28 0 8 0 C8 0.99 8 1.98 8 3 C6.68 3.33 5.36 3.66 4 4 C3.67 6.31 3.34 8.62 3 11 C2.01 11 1.02 11 0 11 C0 7.37 0 3.74 0 0 Z " fill="#4531BF" transform="translate(50,160)"/>
<path d="M0 0 C1.32 0 2.64 0 4 0 C4.33 0.99 4.66 1.98 5 3 C5.66 3.66 6.32 4.32 7 5 C6.21625 5.103125 5.4325 5.20625 4.625 5.3125 C1.66954819 5.77595022 1.66954819 5.77595022 0 9 C-0.99 9 -1.98 9 -3 9 C-2.5020163 5.26512223 -2.12508244 3.18762365 0 0 Z " fill="#FEAB19" transform="translate(133,162)"/>
<path d="M0 0 C1.32 0 2.64 0 4 0 C4 3.63 4 7.26 4 11 C2.68 10.67 1.36 10.34 0 10 C0 6.7 0 3.4 0 0 Z " fill="#503EC1" transform="translate(59,160)"/>
<path d="M0 0 C0.99 0.33 1.98 0.66 3 1 C2.67 1.33 2.34 1.66 2 2 C1.76518307 4.18292774 1.58636677 6.37203174 1.4375 8.5625 C1.31181641 10.35880859 1.31181641 10.35880859 1.18359375 12.19140625 C1.12300781 13.11824219 1.06242187 14.04507813 1 15 C1.66 15.33 2.32 15.66 3 16 C1.68 16 0.36 16 -1 16 C-1.02685095 13.52076199 -1.04676547 11.0418116 -1.0625 8.5625 C-1.07506836 7.50192383 -1.07506836 7.50192383 -1.08789062 6.41992188 C-1.09653588 4.61306441 -1.05220011 2.80612397 -1 1 C-0.67 0.67 -0.34 0.34 0 0 Z " fill="#FC8E52" transform="translate(116,155)"/>
<path d="M0 0 C0.5775 0.165 1.155 0.33 1.75 0.5 C4.26664369 1.14462031 4.26664369 1.14462031 8 1 C7.25 3.4375 7.25 3.4375 6 6 C3.875 6.8125 3.875 6.8125 2 7 C0 4 0 4 0 0 Z " fill="#9186D6" transform="translate(64,163)"/>
<path d="M0 0 C1.65 0 3.3 0 5 0 C5.5625 1.9375 5.5625 1.9375 6 4 C5 5 5 5 2.4375 5.0625 C1.2309375 5.0315625 1.2309375 5.0315625 0 5 C0 3.35 0 1.7 0 0 Z " fill="#ECEAF5" transform="translate(38,163)"/>
<path d="M0 0 C1.32 0 2.64 0 4 0 C4 0.99 4 1.98 4 3 C2 4.6875 2 4.6875 0 6 C0 5.34 0 4.68 0 4 C-0.66 4 -1.32 4 -2 4 C-1.34 2.68 -0.68 1.36 0 0 Z " fill="#442FBE" transform="translate(67,160)"/>
<path d="M0 0 C2.475 0.495 2.475 0.495 5 1 C5.33 1.99 5.66 2.98 6 4 C5.01 4.33 4.02 4.66 3 5 C2.01 4.34 1.02 3.68 0 3 C0 2.01 0 1.02 0 0 Z " fill="#E03DFC" transform="translate(179,166)"/>
<path d="M0 0 C0.66 0.33 1.32 0.66 2 1 C2 3.31 2 5.62 2 8 C1.01 8 0.02 8 -1 8 C-0.67 5.36 -0.34 2.72 0 0 Z " fill="#6050C6" transform="translate(87,162)"/>
<path d="M0 0 C0.33 0.99 0.66 1.98 1 3 C0.319375 3.61875 0.319375 3.61875 -0.375 4.25 C-2.05950374 6.06408095 -2.99265971 7.75285627 -4 10 C-4.25 7.25 -4.25 7.25 -4 4 C-2 1.625 -2 1.625 0 0 Z " fill="#FB7473" transform="translate(104,156)"/>
<path d="M0 0 C1.32 0.66 2.64 1.32 4 2 C3.01 2.99 2.02 3.98 1 5 C0.01 4.34 -0.98 3.68 -2 3 C-1.34 2.01 -0.68 1.02 0 0 Z " fill="#E146FB" transform="translate(186,155)"/>
</svg>
