<svg width="171" height="48" viewBox="0 0 171 48" fill="none" xmlns="http://www.w3.org/2000/svg">
<path fill-rule="evenodd" clip-rule="evenodd" d="M63.5319 21.8293L60.4272 21.1557C58.8737 20.8189 58.0184 19.8607 58.0184 18.4566C58.0184 16.672 59.6028 15.3258 61.7042 15.3258C64.612 15.3258 65.4706 17.4652 65.6651 18.1217C65.7267 18.3399 65.8785 18.5249 66.0825 18.6269C66.2817 18.7288 66.5047 18.744 66.7182 18.6696L68.3547 18.0923C68.5512 18.0225 68.7136 17.8803 68.8088 17.6948C68.904 17.5094 68.9248 17.2945 68.867 17.0942C68.4448 15.6095 66.8937 12.1561 61.633 12.1561C57.7385 12.1561 54.4512 15.1351 54.4512 18.662C54.4512 21.6931 56.4402 23.9321 59.7735 24.6579L62.7335 25.303C64.5152 25.6777 65.5797 26.764 65.5797 28.2061C65.5797 30.0466 64.0665 31.1898 61.6283 31.1898C58.7632 31.1898 57.3828 29.3113 57.046 27.5515C57.0247 27.438 56.9795 27.3303 56.9135 27.2356C56.8474 27.1409 56.762 27.0613 56.6629 27.0021C56.5638 26.9429 56.4532 26.9055 56.3385 26.8922C56.2238 26.879 56.1076 26.8903 55.9976 26.9253L54.1998 27.4993C54.0109 27.5568 53.8498 27.6821 53.7474 27.851C53.645 28.0199 53.6085 28.2206 53.6448 28.4148C54.2046 31.3321 56.6015 34.4439 61.6615 34.4439C65.9374 34.4439 69.1621 31.6594 69.1621 27.9689C69.1621 24.8523 67.1052 22.6134 63.5172 21.8212L63.5319 21.8293ZM81.8995 24.6673C81.909 24.729 81.8806 24.7765 81.8616 24.7954C81.8459 24.8149 81.826 24.8305 81.8034 24.8412C81.7808 24.8518 81.7561 24.8573 81.7311 24.8571H75.1376C75.1113 24.8571 75.0854 24.8511 75.0618 24.8396C75.0382 24.8281 75.0176 24.8114 75.0014 24.7907C74.9864 24.7733 74.9756 24.7527 74.9698 24.7305C74.964 24.7083 74.9635 24.6851 74.9682 24.6626C75.2694 23.2879 76.4482 21.9018 78.4026 21.9018C80.3223 21.9018 81.6282 22.9312 81.8962 24.6593L81.8995 24.6673ZM78.377 18.8232C74.9046 18.8232 71.3137 21.7263 71.3137 26.5885C71.3137 28.9318 72.0822 30.9336 73.5385 32.3709C74.8876 33.7039 76.7309 34.4391 78.728 34.4391C81.7022 34.4391 84.112 32.8851 85.1745 30.2838C85.2599 30.0703 85.2552 29.8331 85.1631 29.6244C85.1178 29.5231 85.052 29.4323 84.97 29.3575C84.888 29.2828 84.7914 29.2257 84.6864 29.1899L83.2349 28.6871C83.0406 28.6203 82.8283 28.6293 82.6404 28.7123C82.4525 28.7952 82.3028 28.9459 82.2212 29.1344C81.595 30.6096 80.4186 31.3544 78.7251 31.3544C76.6759 31.3544 75.1153 29.974 74.8449 27.9186C74.8415 27.8956 74.8433 27.8721 74.8503 27.8499C74.8573 27.8277 74.8692 27.8074 74.8852 27.7905C74.9042 27.7668 74.9469 27.7289 75.0133 27.7289H84.6352C85.0668 27.7289 85.4273 27.3921 85.4511 26.9623C85.4606 26.8247 85.4653 26.6729 85.4653 26.523C85.4653 21.77 82.7472 18.818 78.3736 18.818L78.377 18.8232ZM94.7613 30.3597C92.4512 30.3597 91.0139 28.7563 91.0139 26.1758C91.0139 23.6332 92.4844 21.9901 94.7613 21.9901C96.9671 21.9901 98.449 23.6693 98.449 26.1739C98.449 28.6757 96.9661 30.3578 94.7608 30.3578L94.7613 30.3597ZM100.918 19.2597H99.1776C98.727 19.2597 98.3593 19.6263 98.3593 20.0993C98.3592 20.1327 98.3492 20.1654 98.3306 20.1932C98.3121 20.221 98.2858 20.2428 98.255 20.2558C98.2218 20.27 98.1554 20.289 98.0956 20.2321C97.199 19.4124 95.9372 18.9964 94.3481 18.9964C90.4095 18.9964 87.5506 22.0181 87.5506 26.1782C87.5506 30.3203 90.4095 33.3268 94.3481 33.3268C95.8044 33.3268 97.1231 32.8486 98.0624 31.9805C98.124 31.9236 98.1904 31.9379 98.2237 31.9521C98.2474 31.9616 98.328 32.0043 98.328 32.1086V32.7063C98.328 35.5999 97.0615 36.9495 94.3481 36.9495C92.6262 36.9495 91.2743 35.8821 90.909 34.2323C90.8616 34.0189 90.7335 33.8386 90.5485 33.7233C90.3635 33.6081 90.1406 33.5715 89.9271 33.619L88.2175 34.0127C88.0076 34.0627 87.8256 34.193 87.7108 34.3758C87.596 34.5585 87.5576 34.7791 87.6037 34.9899C88.2156 37.9878 90.9271 40.0039 94.3443 40.0039C96.8917 40.0039 98.8318 39.2283 100.113 37.6985C101.17 36.4338 101.73 34.6782 101.73 32.6214V20.0903C101.73 19.6396 101.365 19.2744 100.914 19.2744L100.918 19.2597ZM121.615 18.8498C119.689 18.8498 118.122 19.5765 117.083 20.956C117.065 20.9815 117.041 21.0021 117.013 21.0157C116.986 21.0293 116.955 21.0355 116.924 21.0338C116.901 21.034 116.878 21.0283 116.858 21.017C116.838 21.0058 116.822 20.9895 116.81 20.9697C115.939 19.6225 114.434 18.8493 112.683 18.8493C111.29 18.8493 109.951 19.3389 109.008 20.1941C108.985 20.2179 108.955 20.2339 108.923 20.2399C108.891 20.2458 108.857 20.2415 108.827 20.2273C108.798 20.2154 108.774 20.1948 108.757 20.1683C108.74 20.1418 108.731 20.1108 108.733 20.0793C108.733 19.6287 108.365 19.2634 107.915 19.2634H106.261C105.811 19.2634 105.445 19.6287 105.445 20.0793V33.1859C105.445 33.6365 105.812 34.0027 106.263 34.0027H108.004C108.455 34.0027 108.82 33.6346 108.82 33.184V25.1944C108.82 23.2528 110.006 21.9478 111.775 21.9478C114.09 21.9478 114.436 23.7632 114.436 24.8448V33.1982C114.436 33.6489 114.802 34.0141 115.252 34.0141H117.023C117.474 34.0141 117.839 33.647 117.839 33.1963V25.1659C117.839 23.2704 119.044 21.9469 120.766 21.9469C123.082 21.9469 123.427 23.7637 123.427 24.8452V33.1987C123.427 33.6493 123.792 34.0146 124.243 34.0146H125.984C126.434 34.0146 126.8 33.6474 126.8 33.1968V24.5492C126.8 20.6215 124.195 18.865 121.615 18.865V18.8498ZM133.384 24.8685C133.357 24.8684 133.332 24.8625 133.308 24.8511C133.285 24.8398 133.264 24.8234 133.247 24.803C133.233 24.7857 133.223 24.7654 133.217 24.7435C133.212 24.7217 133.212 24.6989 133.216 24.6768C133.518 23.3012 134.696 21.9161 136.652 21.9161C138.572 21.9161 139.878 22.9454 140.146 24.6721C140.155 24.7338 140.125 24.7812 140.108 24.8002C140.091 24.8178 140.071 24.8319 140.048 24.8417C140.026 24.8515 140.002 24.8567 139.977 24.8571H133.384V24.8685ZM136.623 18.8346C133.151 18.8346 129.56 21.7396 129.56 26.5999C129.56 28.9461 130.329 30.9464 131.783 32.3852C133.13 33.7181 134.971 34.4486 136.973 34.4486C139.942 34.4486 142.352 32.8927 143.419 30.2885C143.505 30.075 143.5 29.8379 143.405 29.6291C143.31 29.4204 143.139 29.2686 142.926 29.1927L141.474 28.6909C141.071 28.5519 140.625 28.7478 140.46 29.1377C139.834 30.6092 138.658 31.3577 136.964 31.3577C134.915 31.3577 133.354 29.9745 133.084 27.9186C133.08 27.8953 133.082 27.8716 133.088 27.8489C133.095 27.8263 133.106 27.8054 133.122 27.7877C133.141 27.764 133.183 27.7284 133.25 27.7284H142.875C143.306 27.7284 143.665 27.3916 143.69 26.9613C143.699 26.8238 143.705 26.672 143.705 26.5202C143.705 21.7671 140.987 18.8119 136.613 18.8119L136.623 18.8346ZM154.066 18.8645C152.593 18.8645 151.302 19.3664 150.332 20.3161C150.31 20.3384 150.282 20.3536 150.251 20.3595C150.22 20.3654 150.188 20.3619 150.159 20.3493C150.129 20.3362 150.104 20.3147 150.086 20.2874C150.068 20.2601 150.059 20.2281 150.059 20.1956V20.0912C150.059 19.6406 149.692 19.2753 149.241 19.2753H147.534C147.083 19.2753 146.716 19.6406 146.716 20.0912V33.1954C146.716 33.646 147.081 34.0127 147.532 34.0127H149.301C149.752 34.0127 150.119 33.6451 150.119 33.1944V25.5444C150.119 23.833 150.895 22.0038 153.075 22.0038C155.034 22.0038 156.028 23.0868 156.028 25.2223V33.1916C156.028 33.6422 156.393 34.0075 156.844 34.0075H158.613C159.064 34.0075 159.43 33.6375 159.43 33.1868V24.7532C159.43 21.1196 157.372 18.8617 154.065 18.8617L154.066 18.8645ZM167.675 22.4137H169.738C170.189 22.4137 170.554 22.046 170.554 21.5959V20.0903C170.554 19.6396 170.189 19.2744 169.738 19.2744H167.675C167.653 19.2744 167.631 19.2701 167.611 19.2617C167.591 19.2534 167.573 19.2411 167.557 19.2257C167.542 19.2103 167.53 19.192 167.521 19.1719C167.513 19.1517 167.509 19.1301 167.509 19.1083V15.6389C167.509 15.1882 167.14 14.822 166.69 14.822H165.153C164.703 14.822 164.337 15.1882 164.337 15.6389V17.4319C164.337 18.2716 164.016 19.2739 162.493 19.2739H162.231C161.78 19.2739 161.415 19.6391 161.415 20.0898V21.5935C161.415 22.0441 161.782 22.4094 162.231 22.4094H163.943C164.036 22.4094 164.109 22.4806 164.109 22.5754V29.8189C164.109 32.4943 165.739 34.1545 168.36 34.1545C169.09 34.1545 169.658 34.0502 169.932 33.9885C170.302 33.9031 170.562 33.5758 170.562 33.1916V31.7974C170.562 31.6828 170.538 31.5694 170.491 31.4647C170.444 31.36 170.376 31.2663 170.29 31.1896C170.205 31.113 170.105 31.0552 169.995 31.0199C169.886 30.9846 169.771 30.9727 169.657 30.9849C169.472 31.0038 169.293 31.0147 169.152 31.0147C167.962 31.0147 167.516 30.5783 167.516 29.4067V22.5759C167.516 22.4848 167.592 22.4108 167.682 22.4108" fill="#43AF79"/>
<path fill-rule="evenodd" clip-rule="evenodd" d="M19.757 41.0001C17.9051 41.0001 16.0759 40.7249 14.3208 40.1809C13.8402 40.0319 13.4384 39.6982 13.2038 39.253C12.9693 38.8079 12.9211 38.2878 13.0699 37.8072C13.3802 36.8015 14.4456 36.2418 15.4441 36.5549C16.8349 36.9865 18.2855 37.2047 19.757 37.2047C26.1954 37.2047 31.7858 33.0731 33.6685 26.9206C33.7414 26.6824 33.8605 26.4609 34.019 26.2687C34.1776 26.0766 34.3725 25.9176 34.5926 25.8008C34.8126 25.6841 35.0536 25.6118 35.3016 25.5883C35.5496 25.5647 35.7998 25.5903 36.0379 25.6636C37.0398 25.9672 37.6033 27.0297 37.2969 28.0306C34.9232 35.7869 27.8742 41.0001 19.757 41.0001Z" fill="#43AF79"/>
<path fill-rule="evenodd" clip-rule="evenodd" d="M4.03197 19.7374C3.73521 19.7375 3.44257 19.6679 3.17758 19.5343C2.91258 19.4007 2.68261 19.2068 2.50615 18.9682C2.32969 18.7296 2.21166 18.4529 2.16154 18.1604C2.11141 17.8679 2.1306 17.5678 2.21755 17.284C4.59172 9.52826 11.6407 4.31885 19.757 4.31885C21.6103 4.31885 23.4394 4.59398 25.1931 5.13854C25.4312 5.21228 25.6523 5.33219 25.844 5.49142C26.0357 5.65064 26.1942 5.84607 26.3103 6.06653C26.4265 6.287 26.4981 6.52819 26.521 6.77632C26.5439 7.02446 26.5178 7.27468 26.444 7.51271C26.3705 7.75087 26.2507 7.9722 26.0915 8.164C25.9323 8.3558 25.7369 8.51432 25.5163 8.63047C25.2958 8.74662 25.0545 8.81813 24.8063 8.84089C24.5581 8.86365 24.3078 8.83722 24.0698 8.76312C22.68 8.33619 21.2284 8.11799 19.757 8.11799C13.3199 8.11799 7.72865 12.2497 5.84592 18.4021C5.72693 18.7904 5.48659 19.1302 5.16019 19.3719C4.8338 19.6135 4.43854 19.7441 4.03245 19.7445" fill="#43AF79"/>
<path fill-rule="evenodd" clip-rule="evenodd" d="M24.6316 29.3765H1.89744C0.849102 29.3765 0 28.5274 0 27.479C0 26.4307 0.849102 25.5816 1.89744 25.5816H24.6316C25.6799 25.5816 26.529 26.4307 26.529 27.479C26.529 28.5274 25.6799 29.3765 24.6316 29.3765Z" fill="#93C8A2"/>
<path fill-rule="evenodd" clip-rule="evenodd" d="M37.6167 19.7365H14.8835C13.8352 19.7365 12.9861 18.8874 12.9861 17.839C12.9861 16.7907 13.8352 15.9416 14.8835 15.9416H37.6167C38.665 15.9416 39.5141 16.7907 39.5141 17.839C39.5141 18.8874 38.665 19.7365 37.6167 19.7365Z" fill="#93C8A2"/>
<path fill-rule="evenodd" clip-rule="evenodd" d="M32.9167 10.6084C32.9167 11.1116 32.7168 11.5942 32.361 11.9501C32.0051 12.3059 31.5225 12.5058 31.0193 12.5058C30.5161 12.5058 30.0334 12.3059 29.6776 11.9501C29.3218 11.5942 29.1218 11.1116 29.1218 10.6084C29.1218 10.1051 29.3218 9.62252 29.6776 9.26668C30.0334 8.91085 30.5161 8.71094 31.0193 8.71094C31.5225 8.71094 32.0051 8.91085 32.361 9.26668C32.7168 9.62252 32.9167 10.1051 32.9167 10.6084ZM10.3918 34.7125C10.3918 35.2157 10.1919 35.6983 9.83604 36.0541C9.4802 36.41 8.99758 36.6099 8.49435 36.6099C7.99111 36.6099 7.50849 36.41 7.15266 36.0541C6.79682 35.6983 6.59691 35.2157 6.59691 34.7125C6.59691 34.2092 6.79682 33.7266 7.15266 33.3708C7.50849 33.0149 7.99111 32.815 8.49435 32.815C8.99758 32.815 9.4802 33.0149 9.83604 33.3708C10.1919 33.7266 10.3918 34.2092 10.3918 34.7125Z" fill="#93C8A2"/>
</svg>
