<?xml version="1.0" encoding="UTF-8"?>
<svg version="1.1" xmlns="http://www.w3.org/2000/svg" width="700" height="700">
<path d="M0 0 C231 0 462 0 700 0 C700 231 700 462 700 700 C469 700 238 700 0 700 C0 469 0 238 0 0 Z " fill="#FEFEFE" transform="translate(0,0)"/>
<path d="M0 0 C0.78375 0.04125 1.5675 0.0825 2.375 0.125 C4.21343111 3.45554453 6.04469955 6.78998138 7.875 10.125 C8.63296875 11.49785156 8.63296875 11.49785156 9.40625 12.8984375 C13.58687761 20.5280829 17.49778429 28.27524211 21.3572998 36.07025146 C23.00119048 39.38928586 24.65321897 42.70426268 26.3046875 46.01953125 C26.62634384 46.66549255 26.94800018 47.31145386 27.27940369 47.97698975 C35.27611028 64.06257594 35.27611028 64.06257594 43.5625 80 C53.26166228 98.22657251 62.35698077 116.78763516 71.12597656 135.47802734 C72.34567805 138.06285993 73.58977551 140.63487658 74.8359375 143.20703125 C75.57948778 144.78321201 76.32175105 146.36000078 77.0625 147.9375 C77.40192627 148.62392578 77.74135254 149.31035156 78.09106445 150.01757812 C82.63842602 159.90576821 80.0114513 168.76596856 76.75 178.6875 C76.38535645 179.83065674 76.02071289 180.97381348 75.64501953 182.15161133 C74.57442701 185.48283904 73.48117586 188.80543667 72.375 192.125 C72.08753906 192.98770508 71.80007813 193.85041016 71.50390625 194.73925781 C69.87792382 199.56664594 68.16312537 204.35546399 66.375 209.125 C66.11976563 209.81223145 65.86453125 210.49946289 65.6015625 211.20751953 C64.83043473 213.26847301 64.04375374 215.32266591 63.25 217.375 C62.56550781 219.14617187 62.56550781 219.14617187 61.8671875 220.953125 C59.40944659 226.17743291 56.10271639 229.56507641 51.625 233.125 C50.65691406 233.90101563 49.68882812 234.67703125 48.69140625 235.4765625 C48.1617627 235.8984082 47.63211914 236.32025391 47.08642578 236.75488281 C45.24495724 238.22910841 43.41636034 239.71823097 41.58984375 241.2109375 C34.61022616 246.91336805 27.5985263 252.56448889 20.46923828 258.07910156 C17.51890231 260.37747163 14.65333836 262.7317815 11.859375 265.21875 C11.28469482 265.72583496 10.71001465 266.23291992 10.11791992 266.75537109 C9.03379917 267.71962901 7.96010002 268.69579563 6.8996582 269.68603516 C3.20440341 272.96518767 0.32241141 274.13649224 -4.625 274.125 C-6.7421875 272.859375 -6.7421875 272.859375 -8.5 270.875 C-9.17289062 270.13121094 -9.84578125 269.38742187 -10.5390625 268.62109375 C-13.44240423 265.14687022 -16.30745174 261.64497826 -19.140625 258.11328125 C-21.86205505 254.83986304 -24.71461175 251.72941413 -27.625 248.625 C-32.1248865 243.81983236 -36.35605589 238.87336104 -40.48046875 233.73828125 C-42.62374956 231.12652377 -44.8488033 228.62134698 -47.125 226.125 C-50.98714567 221.8819853 -54.63254309 217.50157134 -58.2421875 213.04296875 C-60.83256168 209.87082201 -63.47195886 206.74468185 -66.125 203.625 C-82.48845284 184.35516405 -82.48845284 184.35516405 -82.97460938 179.9753418 C-82.54384649 175.23123468 -81.05635482 171.78432819 -79.03125 167.51953125 C-78.65327271 166.69567932 -78.27529541 165.87182739 -77.88586426 165.02301025 C-76.64396125 162.32225896 -75.38429033 159.63018169 -74.125 156.9375 C-73.24975442 155.03969412 -72.37607624 153.14116465 -71.50390625 151.24194336 C-69.72820969 147.37611419 -67.94765838 143.51258087 -66.1640625 139.65039062 C-62.57603936 131.86265773 -59.09471692 124.02846922 -55.625 116.1875 C-54.97928449 114.73147443 -54.33345025 113.27550152 -53.6875 111.81958008 C-48.48737552 100.09364575 -43.30797996 88.358519 -38.125 76.625 C-34.95908074 69.45800291 -31.79262451 62.29124359 -28.625 55.125 C-28.24780823 54.27160034 -27.87061646 53.41820068 -27.48199463 52.53894043 C-25.30674072 47.61828327 -23.12910948 42.69868954 -20.94824219 37.78051758 C-20.29114069 36.29791248 -19.6346918 34.81501792 -18.97900391 33.33178711 C-15.48591965 25.4314632 -11.93602875 17.5589939 -8.29296875 9.7265625 C-7.95638748 8.99561371 -7.61980621 8.26466492 -7.27302551 7.51156616 C-3.838719 0.18279614 -3.838719 0.18279614 0 0 Z " fill="#FBFCFC" transform="translate(352.625,158.875)"/>
<path d="M0 0 C0.78375 0.04125 1.5675 0.0825 2.375 0.125 C4.21343111 3.45554453 6.04469955 6.78998138 7.875 10.125 C8.63296875 11.49785156 8.63296875 11.49785156 9.40625 12.8984375 C13.58687761 20.5280829 17.49778429 28.27524211 21.3572998 36.07025146 C23.00119048 39.38928586 24.65321897 42.70426268 26.3046875 46.01953125 C26.62634384 46.66549255 26.94800018 47.31145386 27.27940369 47.97698975 C35.27611028 64.06257594 35.27611028 64.06257594 43.5625 80 C53.26166228 98.22657251 62.35698077 116.78763516 71.12597656 135.47802734 C72.34567805 138.06285993 73.58977551 140.63487658 74.8359375 143.20703125 C75.57948778 144.78321201 76.32175105 146.36000078 77.0625 147.9375 C77.40192627 148.62392578 77.74135254 149.31035156 78.09106445 150.01757812 C82.63842602 159.90576821 80.0114513 168.76596856 76.75 178.6875 C76.38535645 179.83065674 76.02071289 180.97381348 75.64501953 182.15161133 C74.57442701 185.48283904 73.48117586 188.80543667 72.375 192.125 C72.08753906 192.98770508 71.80007813 193.85041016 71.50390625 194.73925781 C69.87792382 199.56664594 68.16312537 204.35546399 66.375 209.125 C66.11976563 209.81223145 65.86453125 210.49946289 65.6015625 211.20751953 C64.83043473 213.26847301 64.04375374 215.32266591 63.25 217.375 C62.56550781 219.14617187 62.56550781 219.14617187 61.8671875 220.953125 C59.40944659 226.17743291 56.10271639 229.56507641 51.625 233.125 C50.65691406 233.90101563 49.68882812 234.67703125 48.69140625 235.4765625 C48.1617627 235.8984082 47.63211914 236.32025391 47.08642578 236.75488281 C45.24495724 238.22910841 43.41636034 239.71823097 41.58984375 241.2109375 C34.61022616 246.91336805 27.5985263 252.56448889 20.46923828 258.07910156 C17.51890231 260.37747163 14.65333836 262.7317815 11.859375 265.21875 C11.28469482 265.72583496 10.71001465 266.23291992 10.11791992 266.75537109 C9.03379917 267.71962901 7.96010002 268.69579563 6.8996582 269.68603516 C3.20440341 272.96518767 0.32241141 274.13649224 -4.625 274.125 C-6.7421875 272.859375 -6.7421875 272.859375 -8.5 270.875 C-9.17289062 270.13121094 -9.84578125 269.38742187 -10.5390625 268.62109375 C-13.44240423 265.14687022 -16.30745174 261.64497826 -19.140625 258.11328125 C-21.86205505 254.83986304 -24.71461175 251.72941413 -27.625 248.625 C-32.1248865 243.81983236 -36.35605589 238.87336104 -40.48046875 233.73828125 C-42.62374956 231.12652377 -44.8488033 228.62134698 -47.125 226.125 C-50.98714567 221.8819853 -54.63254309 217.50157134 -58.2421875 213.04296875 C-60.83256168 209.87082201 -63.47195886 206.74468185 -66.125 203.625 C-82.48845284 184.35516405 -82.48845284 184.35516405 -82.97460938 179.9753418 C-82.54384649 175.23123468 -81.05635482 171.78432819 -79.03125 167.51953125 C-78.65327271 166.69567932 -78.27529541 165.87182739 -77.88586426 165.02301025 C-76.64396125 162.32225896 -75.38429033 159.63018169 -74.125 156.9375 C-73.24975442 155.03969412 -72.37607624 153.14116465 -71.50390625 151.24194336 C-69.72820969 147.37611419 -67.94765838 143.51258087 -66.1640625 139.65039062 C-62.57603936 131.86265773 -59.09471692 124.02846922 -55.625 116.1875 C-54.97928449 114.73147443 -54.33345025 113.27550152 -53.6875 111.81958008 C-48.48737552 100.09364575 -43.30797996 88.358519 -38.125 76.625 C-34.95908074 69.45800291 -31.79262451 62.29124359 -28.625 55.125 C-28.24780823 54.27160034 -27.87061646 53.41820068 -27.48199463 52.53894043 C-25.30674072 47.61828327 -23.12910948 42.69868954 -20.94824219 37.78051758 C-20.29114069 36.29791248 -19.6346918 34.81501792 -18.97900391 33.33178711 C-15.48591965 25.4314632 -11.93602875 17.5589939 -8.29296875 9.7265625 C-7.95638748 8.99561371 -7.61980621 8.26466492 -7.27302551 7.51156616 C-3.838719 0.18279614 -3.838719 0.18279614 0 0 Z M-7.625 30.125 C-12.47835495 36.39377706 -15.67983138 43.23609202 -18.75 50.5 C-19.71024308 52.72686207 -20.67120558 54.95341403 -21.6328125 57.1796875 C-22.12426758 58.32405273 -22.61572266 59.46841797 -23.12207031 60.64746094 C-25.5767753 66.32725592 -28.10338844 71.97467682 -30.625 77.625 C-31.63311498 79.8943969 -32.6409281 82.16392793 -33.6484375 84.43359375 C-35.58118744 88.78448458 -37.52486703 93.13023498 -39.4765625 97.47265625 C-60.17749713 139.15580503 -60.17749713 139.15580503 -62.82421875 184.140625 C-61.58860662 187.24876274 -60.18015617 190.16296999 -58.625 193.125 C-58.29790039 193.75196777 -57.97080078 194.37893555 -57.63378906 195.02490234 C-46.22386424 216.67651819 -30.82701974 234.99523522 -11.625 250.125 C-10.635 250.970625 -9.645 251.81625 -8.625 252.6875 C-2.9683621 255.39797233 2.44209602 255.11684071 8.33203125 253.125 C16.40542952 249.40044405 22.72975351 243.93298068 29.375 238.125 C31.26697504 236.62013639 33.1626976 235.11996986 35.0625 233.625 C54.67608003 217.42125213 64.69576124 191.50851367 67.68359375 166.546875 C69.07239253 137.76086387 45.25029804 99.38711027 32.48291016 74.31274414 C29.99903714 69.42614209 27.64214545 64.48651539 25.3046875 59.52832031 C17.8552326 40.32354405 17.8552326 40.32354405 4.4453125 26.375 C-0.86128488 25.69302765 -3.51990229 26.37686731 -7.625 30.125 Z " fill="#1A3B43" transform="translate(352.625,158.875)"/>
<path d="M0 0 C0.99 0 1.98 0 3 0 C4.65625 1.6953125 4.65625 1.6953125 6.5 4.125 C7.20898438 5.04410156 7.91796875 5.96320313 8.6484375 6.91015625 C9.81246094 8.43962891 9.81246094 8.43962891 11 10 C12.70031699 12.19380371 14.41190715 14.37866442 16.125 16.5625 C16.57762207 17.14153076 17.03024414 17.72056152 17.49658203 18.31713867 C21.9419103 23.98002088 26.52497484 29.52684645 31.14111328 35.05102539 C32.77821718 37.02040808 34.38946749 39.00887909 36 41 C36.5146582 41.59828613 37.02931641 42.19657227 37.55957031 42.81298828 C39.87983918 45.68414111 40.98458791 47.5091841 41.1015625 51.234375 C39.27909462 57.46437157 36.65508272 63.3164771 34.0625 69.2578125 C33.65773438 70.20914063 33.25296875 71.16046875 32.8359375 72.140625 C32.27205322 73.43274902 32.27205322 73.43274902 31.69677734 74.75097656 C30.71993569 77.13116174 30.71993569 77.13116174 32 80 C33.79493574 81.16285751 33.79493574 81.16285751 35.9375 82.0625 C41.42059159 84.54033994 41.42059159 84.54033994 42.79370117 87.99951172 C43.60217957 90.62173199 44.40374377 93.24526735 45.1875 95.875 C45.47302734 96.78636719 45.75855469 97.69773437 46.05273438 98.63671875 C46.31763672 99.51714844 46.58253906 100.39757812 46.85546875 101.3046875 C47.09934326 102.10890137 47.34321777 102.91311523 47.59448242 103.74169922 C48.03281551 106.18274744 47.78053209 107.66940654 47 110 C42.66986499 111.01420106 38.33567254 112.0097538 34 113 C32.76765625 113.28617187 31.5353125 113.57234375 30.265625 113.8671875 C28.46351563 114.27324219 28.46351563 114.27324219 26.625 114.6875 C25.52414062 114.93886719 24.42328125 115.19023437 23.2890625 115.44921875 C16.59919011 116.56949429 11.9534851 116.0043148 5.9375 112.9375 C5.29989746 112.62312988 4.66229492 112.30875977 4.00537109 111.98486328 C2.67379178 111.32709519 1.3447003 110.66426823 0.01806641 109.99658203 C-1.98777817 109.00603551 -4.01224623 108.0734669 -6.05078125 107.15234375 C-7.32573221 106.56035085 -8.60047975 105.96791962 -9.875 105.375 C-11.02742188 104.84648437 -12.17984375 104.31796875 -13.3671875 103.7734375 C-16 102 -16 102 -16.71461487 99.75909424 C-17.03530902 96.65863356 -16.7360825 94.15140471 -16.19897461 91.08105469 C-15.99785065 89.90561096 -15.79672668 88.73016724 -15.58950806 87.519104 C-15.24936172 85.61472565 -15.24936172 85.61472565 -14.90234375 83.671875 C-14.66959974 82.33246819 -14.43763074 80.9929265 -14.20639038 79.65325928 C-13.58808673 76.08491313 -12.95858688 72.51862871 -12.32669449 68.95266724 C-11.67984866 65.29180832 -11.04314288 61.62918592 -10.4050293 57.96679688 C-7.02967726 38.62820968 -3.60535133 19.29716924 0 0 Z " fill="#A7221C" transform="translate(350,255)"/>
<path d="M0 0 C1.20589595 0.72004944 2.39597549 1.46777445 3.5625 2.25 C4.449375 2.806875 5.33625 3.36375 6.25 3.9375 C11.34352644 9.03102644 13.86970203 14.05044325 14.0625 21.3125 C13.65041521 29.63872597 11.66921771 35.11168767 5.42578125 40.7734375 C-1.50941145 46.26925058 -8.86623478 45.99708319 -17.4375 45.25 C-20.27170778 44.58141765 -21.88001811 43.77360623 -24.4375 42.25 C-25.30375 41.734375 -26.17 41.21875 -27.0625 40.6875 C-32.42369151 35.18522451 -34.75078512 29.28835771 -35 21.625 C-34.66046093 14.0211119 -32.71971978 9.10379529 -27.125 3.9375 C-19.28597079 -2.13195932 -9.27214482 -4.44290273 0 0 Z " fill="#414141" transform="translate(481.4375,498.75)"/>
<path d="M0 0 C5.30405176 3.51181509 9.38728663 7.1618599 11.4609375 13.3828125 C12.21528969 21.68068658 12.53176581 29.21608769 7.19921875 36.078125 C2.52270729 41.10143394 -1.7277815 43.83428717 -8.59765625 44.41015625 C-15.23108125 44.58564368 -20.53684282 44.55966678 -26.2890625 41.1328125 C-27.1553125 40.6171875 -28.0215625 40.1015625 -28.9140625 39.5703125 C-34.27525401 34.06803701 -36.60234762 28.17117021 -36.8515625 20.5078125 C-36.51338957 12.93451875 -34.5690159 8.0085983 -29.0390625 2.8203125 C-20.55589219 -3.77571187 -9.53134255 -5.56319178 0 0 Z " fill="#414141" transform="translate(427.2890625,499.8671875)"/>
<path d="M0 0 C6.7004909 3.66686205 9.48721071 8.39239018 12.77734375 14.97265625 C13.42138816 23.02321135 13.37462376 30.36218885 8.265625 36.91015625 C2.27056754 43.37673508 -2.84377181 45.1333435 -11.53515625 45.53515625 C-18.80601242 45.36974607 -23.81565076 43.91084623 -29.22265625 38.97265625 C-35.2628573 31.65714593 -36.05878003 24.26557485 -35.22265625 14.97265625 C-33.11124597 7.31561416 -27.61790635 2.93145439 -20.97265625 -0.90234375 C-13.93596091 -3.01335235 -6.78462335 -2.98301435 0 0 Z " fill="#414141" transform="translate(232.22265625,499.02734375)"/>
<path d="M0 0 C3.91875 -0.12375 7.8375 -0.2475 11.875 -0.375 C13.08913574 -0.42962402 14.30327148 -0.48424805 15.55419922 -0.54052734 C23.42879836 -0.65970354 28.90084236 0.89200143 35 6 C38.22075104 9.90550619 40.614912 13.86549333 41 19 C41.1546875 20.8253125 41.1546875 20.8253125 41.3125 22.6875 C41.20041634 28.61672571 39.27323822 34.31600339 35.421875 38.86328125 C24.8285502 48.47839362 15.02588914 46 0 46 C0 30.82 0 15.64 0 0 Z " fill="#474747" transform="translate(255,498)"/>
<path d="M0 0 C4.4543919 3.8180502 8.60776397 7.48690388 12.71484375 11.6171875 C13.21544815 12.11920685 13.71605255 12.6212262 14.23182678 13.13845825 C15.80278598 14.71493671 17.37019877 16.29488573 18.9375 17.875 C20.01343727 18.95596274 21.08960731 20.03669383 22.16601562 21.1171875 C24.78047583 23.74171106 27.39009258 26.37091775 30 29 C30.33 20.09 30.66 11.18 31 2 C33.64 2 36.28 2 39 2 C39 17.18 39 32.36 39 48 C34.9249526 45.9624763 32.33069783 43.57161724 29.2109375 40.37109375 C28.66643951 39.8213942 28.12194153 39.27169464 27.5609436 38.70533752 C25.82746221 36.95408824 24.10083449 35.19628312 22.375 33.4375 C20.64115848 31.67604189 18.90587817 29.91606377 17.16763306 28.15895081 C16.08752633 27.06658495 15.01010397 25.97155704 13.93563843 24.87364197 C11.23686511 22.08448055 11.23686511 22.08448055 8 20 C8 29.24 8 38.48 8 48 C5.36 48 2.72 48 0 48 C0 32.16 0 16.32 0 0 Z " fill="#3F3F3F" transform="translate(505,496)"/>
<path d="M0 0 C2.97 0 5.94 0 9 0 C9.33 5.94 9.66 11.88 10 18 C10.90363281 16.95199219 11.80726563 15.90398438 12.73828125 14.82421875 C13.92962664 13.44525992 15.12103625 12.06635656 16.3125 10.6875 C16.90740234 9.99720703 17.50230469 9.30691406 18.11523438 8.59570312 C18.98051758 7.59506836 18.98051758 7.59506836 19.86328125 6.57421875 C20.39219971 5.96151123 20.92111816 5.34880371 21.46606445 4.7175293 C25.6415015 0.04234234 25.6415015 0.04234234 28.48046875 -0.29296875 C29.37378906 -0.25816406 30.26710937 -0.22335937 31.1875 -0.1875 C32.08855469 -0.16042969 32.98960937 -0.13335937 33.91796875 -0.10546875 C34.94857422 -0.05326172 34.94857422 -0.05326172 36 0 C30.63559144 7.5995788 24.36524681 14.24336261 18 21 C19.32137505 23.8783441 20.79090812 26.1024005 22.8984375 28.4609375 C23.46046875 29.09773437 24.0225 29.73453125 24.6015625 30.390625 C25.18679687 31.04546875 25.77203125 31.7003125 26.375 32.375 C30.27488541 36.74496089 33.87956226 41.03496852 37 46 C33.13772761 46.71470087 29.84466356 46.89029079 26 46 C22.33259338 42.80469282 19.77365467 38.9705413 17 35 C15.66883524 33.41785778 14.31716748 31.85252963 12.9375 30.3125 C11.968125 29.219375 10.99875 28.12625 10 27 C9.67 33.27 9.34 39.54 9 46 C6.03 46 3.06 46 0 46 C0 30.82 0 15.64 0 0 Z " fill="#474747" transform="translate(158,498)"/>
<path d="M0 0 C9.57 0 19.14 0 29 0 C29 2.31 29 4.62 29 7 C22.07 7 15.14 7 8 7 C8 10.63 8 14.26 8 18 C14.6 18 21.2 18 28 18 C28 20.64 28 23.28 28 26 C21.4 26 14.8 26 8 26 C8 29.96 8 33.92 8 38 C15.26 38 22.52 38 30 38 C30 40.64 30 43.28 30 46 C20.1 46 10.2 46 0 46 C0 30.82 0 15.64 0 0 Z " fill="#404040" transform="translate(306,498)"/>
<path d="M0 0 C3.44276936 1.67818923 6.56276301 3.61967061 9.75 5.75 C11.22726562 6.73226563 11.22726562 6.73226563 12.734375 7.734375 C14.35085938 8.85585938 14.35085938 8.85585938 16 10 C17.0662561 10.58056152 17.0662561 10.58056152 18.15405273 11.17285156 C21.56980289 13.23207501 23.66365259 14.64503644 24.65185547 18.62597656 C24.82887909 21.86913341 24.74568919 25.00727089 24.5625 28.25 C24.52898437 29.39774902 24.49546875 30.54549805 24.4609375 31.72802734 C24.34996064 35.15539463 24.18248372 38.57577631 24 42 C23.91460958 43.90361212 23.82991006 45.80725543 23.74609375 47.7109375 C23.5503392 51.81193624 23.29627292 55.90508503 23 60 C19.90462676 57.11104161 17.68408412 54.17237709 15.46875 50.5703125 C14.82292969 49.52746094 14.17710937 48.48460937 13.51171875 47.41015625 C12.84785156 46.32605469 12.18398438 45.24195313 11.5 44.125 C10.17784012 41.98130389 8.85494533 39.83806084 7.53125 37.6953125 C6.91733398 36.6832373 6.30341797 35.67116211 5.67089844 34.62841797 C3.99265409 31.86095037 3.99265409 31.86095037 1.546875 29.078125 C-1.07347526 23.86389266 -0.41149884 18.35820877 -0.25 12.625 C-0.23195313 11.41199219 -0.21390625 10.19898438 -0.1953125 8.94921875 C-0.14832216 5.9653321 -0.08263372 2.98307721 0 0 Z " fill="#168C8C" transform="translate(305,294)"/>
<path d="M0 0 C5.00230198 2.45567552 8.49851535 5.9970307 11 11 C11.87314691 17.01224015 11.0170832 21.32313041 7.47265625 26.26953125 C4.58884162 29.65820467 2.08272938 31.67383031 -2.39453125 32.375 C-8.09989274 32.64872049 -11.59090558 31.88420222 -16 28 C-20.22987293 23.31284351 -21.41841485 19.61440023 -21.34765625 13.41796875 C-20.60262928 8.23626434 -17.60099653 4.50682026 -13.875 1 C-9.25931056 -0.6054572 -4.82498598 -0.63860109 0 0 Z " fill="#FAFAFA" transform="translate(420,505)"/>
<path d="M0 0 C4.60776793 1.80303963 7.08972958 5.11963944 10 9 C11.44865941 13.34597823 11.88893053 17.60375247 10.28125 21.9375 C7.60982527 26.9356495 4.37657513 30.20780829 -1 32 C-5.66694522 32.54225459 -9.07771048 32.4698456 -13.3125 30.3125 C-18.90077878 25.50398105 -20.73253749 22.31653518 -21.3125 15.125 C-21.21623721 9.35992856 -18.15024461 6.29051834 -14.4375 2.125 C-10.1994711 -1.22650245 -5.11108609 -0.70443759 0 0 Z " fill="#FBFAFB" transform="translate(226,505)"/>
<path d="M0 0 C4.45146251 2.18526342 7.18885145 4.9394521 10 9 C11.66666583 13.9999975 11.57623861 18.28654087 9.5 23.125 C7.01147167 27.61308268 3.77778082 30.1714666 -1 32 C-5.75573434 32.90930284 -8.99000412 32.5145262 -13.3125 30.3125 C-17.44330428 26.75808701 -20.50615985 23.57681367 -21.2734375 18.01953125 C-21.56244769 11.73911749 -20.04843908 7.80399735 -16 3 C-11.59486966 -1.14600503 -5.70977345 -0.75570531 0 0 Z " fill="#FBFBFB" transform="translate(476,505)"/>
<path d="M0 0 C1.0725 0.66 2.145 1.32 3.25 2 C3.25 4.97 3.25 7.94 3.25 11 C1.97125 10.34 0.6925 9.68 -0.625 9 C-6.93424525 6.20803478 -12.55947402 5.99557515 -19.125 8.0625 C-23.04210508 10.95369661 -25.26461672 14.22404396 -26.09765625 18.98828125 C-26.31650665 23.88862706 -25.15742372 27.68324023 -22.75 32 C-18.42963594 36.10434586 -14.93192007 37.34110939 -8.94921875 37.296875 C-5.12495912 36.78063391 -2.04078552 34.92348731 1.25 33 C1.91 32.67 2.57 32.34 3.25 32 C3.47891965 35.03318538 3.59943364 37.97336713 3.25 41 C0.38382146 44.16267977 -2.77034171 44.9061903 -6.97265625 45.30859375 C-15.58339848 45.59766241 -22.15432379 45.11666062 -28.75 39 C-33.52070061 33.75894863 -35.1332494 28.93109561 -35.375 21.875 C-34.99132522 14.01393008 -33.2172145 9.03764113 -27.4375 3.6875 C-19.4135772 -2.52511533 -9.37403633 -4.67869309 0 0 Z " fill="#424242" transform="translate(378.75,499)"/>
<path d="M0 0 C14 0 14 0 17.6875 1.625 C21.70949161 5.75569408 23.16869151 9.2231517 23.4375 14.9375 C23.25940345 20.07907 22.15611768 22.93026931 19 27 C13.03055638 31.74494236 8.31963264 30 0 30 C0 20.1 0 10.2 0 0 Z " fill="#FDFDFD" transform="translate(264,506)"/>
<path d="M0 0 C3.95906817 1.43308135 7.28718181 3.33141949 10.8125 5.625 C11.78832031 6.25664062 12.76414062 6.88828125 13.76953125 7.5390625 C14.50558594 8.02117187 15.24164063 8.50328125 16 9 C15.25 15.625 15.25 15.625 13 19 C8.24560803 17.51697865 6.58075903 13.56174619 4.25 9.5 C3.83878906 8.81035156 3.42757813 8.12070312 3.00390625 7.41015625 C0 2.29054194 0 2.29054194 0 0 Z " fill="#1C8B88" transform="translate(335,365)"/>
<path d="M0 0 C0.33 0 0.66 0 1 0 C1.39552716 10.96489184 -0.09940018 21.43352922 -3 32 C-3.66 32 -4.32 32 -5 32 C-3.78254331 21.22908903 -2.12034881 10.63001537 0 0 Z " fill="#A13B37" transform="translate(340,312)"/>
<path d="M0 0 C5.75 -0.125 5.75 -0.125 8 1 C7.67 3.31 7.34 5.62 7 8 C5.68 8.33 4.36 8.66 3 9 C2.01 6.03 1.02 3.06 0 0 Z " fill="#178B8A" transform="translate(343,373)"/>
<path d="M0 0 C0.66 0.33 1.32 0.66 2 1 C1.93993922 2.45947705 1.8511311 3.91779272 1.75 5.375 C1.70359375 6.18710938 1.6571875 6.99921875 1.609375 7.8359375 C1 10 1 10 -1.046875 11.2890625 C-2.01367188 11.64097656 -2.01367188 11.64097656 -3 12 C-3.66666667 9.33333333 -4.33333333 6.66666667 -5 4 C-3.35 2.68 -1.7 1.36 0 0 Z " fill="#13373D" transform="translate(335,197)"/>
<path d="M0 0 C0.99 1.32 1.98 2.64 3 4 C2.01 4.495 2.01 4.495 1 5 C0.64587656 6.32796291 0.31478446 7.66216607 0 9 C-0.99 10.485 -0.99 10.485 -2 12 C-2.99 9.69 -3.98 7.38 -5 5 C-3.35 3.35 -1.7 1.7 0 0 Z " fill="#243D4A" transform="translate(383,215)"/>
<path d="M0 0 C0.99 0.33 1.98 0.66 3 1 C4.25541557 4.76624671 3.37061958 6.37188934 2 10 C0.68 9.34 -0.64 8.68 -2 8 C-2.125 5.125 -2.125 5.125 -2 2 C-1.34 1.34 -0.68 0.68 0 0 Z " fill="#13363D" transform="translate(318,232)"/>
<path d="M0 0 C0.99 0 1.98 0 3 0 C5.1875 3 5.1875 3 7 6 C6.01 6.495 6.01 6.495 5 7 C5 6.34 5 5.68 5 5 C4.01 5 3.02 5 2 5 C1.34 6.65 0.68 8.3 0 10 C-1.2380014 6.42355152 -0.74926071 3.66305234 0 0 Z " fill="#9B3330" transform="translate(350,255)"/>
<path d="M0 0 C0.33 0 0.66 0 1 0 C1.36923077 5.41538462 1.36923077 5.41538462 -0.5 8.375 C-0.995 8.91125 -1.49 9.4475 -2 10 C-2.99 9.67 -3.98 9.34 -5 9 C-4.360625 8.071875 -3.72125 7.14375 -3.0625 6.1875 C-0.91377907 3.15780057 -0.91377907 3.15780057 0 0 Z M-7 10 C-6.34 10.33 -5.68 10.66 -5 11 C-5.99 11 -6.98 11 -8 11 C-7.67 10.67 -7.34 10.34 -7 10 Z " fill="#E1EDF0" transform="translate(414,378)"/>
<path d="M0 0 C3.37503669 1.1858237 5.64722731 2.27573689 8 5 C7.01 5 6.02 5 5 5 C4.34 5.66 3.68 6.32 3 7 C0 2.25 0 2.25 0 0 Z " fill="#388E8B" transform="translate(335,365)"/>
<path d="M0 0 C0.33 0 0.66 0 1 0 C1.3227506 4.62609198 0.84450614 7.28026121 -2 11 C-2.66 11 -3.32 11 -4 11 C-2.7874262 7.27566618 -1.49140021 3.62197194 0 0 Z " fill="#2D484D" transform="translate(278,317)"/>
<path d="M0 0 C1.32 0 2.64 0 4 0 C4.103125 0.78375 4.20625 1.5675 4.3125 2.375 C4.77595022 5.33045181 4.77595022 5.33045181 8 7 C6.68 7 5.36 7 4 7 C2.02 3.535 2.02 3.535 0 0 Z " fill="#318C8B" transform="translate(341,376)"/>
<path d="M0 0 C0.99 0.66 1.98 1.32 3 2 C1.68 4.31 0.36 6.62 -1 9 C-1.66 8.67 -2.32 8.34 -3 8 C-2.01 5.36 -1.02 2.72 0 0 Z " fill="#F9E4E2" transform="translate(389,310)"/>
<path d="M0 0 C0.33 1.32 0.66 2.64 1 4 C-0.98 4.99 -2.96 5.98 -5 7 C-5 6.01 -5 5.02 -5 4 C-2.5 1.8125 -2.5 1.8125 0 0 Z " fill="#2D4A52" transform="translate(382,396)"/>
<path d="M0 0 C0.99 0.33 1.98 0.66 3 1 C2.34 2.98 1.68 4.96 1 7 C0.34 7 -0.32 7 -1 7 C-1.125 2.25 -1.125 2.25 0 0 Z " fill="#2A4450" transform="translate(317,241)"/>
<path d="M0 0 C0.33 0 0.66 0 1 0 C1.36923077 5.41538462 1.36923077 5.41538462 -0.5 8.375 C-0.995 8.91125 -1.49 9.4475 -2 10 C-3.39195915 5.82412255 -1.82323219 3.86525224 0 0 Z " fill="#2B474C" transform="translate(315,234)"/>
</svg>
