<svg width="152" height="42" viewBox="0 0 152 42" fill="none" xmlns="http://www.w3.org/2000/svg">
<path d="M22.8004 0C10.2084 0 0 9.40218 0 21.0001C0 32.5986 10.2084 42 22.8004 42C35.3938 42 45.6011 32.5986 45.6011 21.0001C45.6011 9.40294 35.3938 0.00100308 22.8001 0.00100308L22.8004 0V0ZM33.2565 30.2882C32.8481 30.9051 31.9714 31.1007 31.3017 30.722C25.9484 27.7103 19.2092 27.0282 11.2727 28.6983C10.5079 28.8588 9.74551 28.4175 9.57126 27.7128C9.39619 27.0081 9.87347 26.306 10.6402 26.1455C19.3255 24.3178 26.7755 25.1048 32.7855 28.4877C33.4553 28.8663 33.6677 29.6713 33.2565 30.2882V30.2882ZM36.0473 24.5701C35.5327 25.3405 34.4382 25.5837 33.6023 25.1098C27.4736 21.6401 18.1313 20.6353 10.8822 22.662C9.94209 22.9235 8.94913 22.4355 8.66379 21.5711C8.38064 20.7052 8.91074 19.7924 9.84924 19.5291C18.1297 17.215 28.4238 18.3359 35.4619 22.3194C36.2978 22.7934 36.5619 23.8015 36.0473 24.5704V24.5701ZM36.2869 18.6158C28.9384 14.5957 16.8144 14.226 9.79833 16.1873C8.67169 16.502 7.48025 15.9162 7.13883 14.8785C6.79741 13.8403 7.43288 12.7437 8.56033 12.4282C16.6142 10.1763 30.003 10.6114 38.4634 15.2374C39.4789 15.7913 39.8111 16.9968 39.2094 17.9289C38.6104 18.8623 37.2981 19.17 36.288 18.6158H36.2869ZM62.0324 19.3862C58.0954 18.5215 57.3957 17.9146 57.3957 16.6395C57.3957 15.4347 58.6263 14.624 60.4587 14.624C62.2339 14.624 63.9927 15.2396 65.8387 16.507C65.8931 16.5454 65.9639 16.5607 66.032 16.5507C66.1028 16.5412 66.1627 16.5063 66.2035 16.4539L68.1257 13.9582C68.2047 13.8554 68.1829 13.7137 68.0767 13.6352C65.8795 12.012 63.4073 11.2228 60.5159 11.2228C56.2658 11.2228 53.2954 13.5723 53.2954 16.9339C53.2954 20.5387 55.8574 21.8151 60.2844 22.8004C64.0499 23.5996 64.687 24.2692 64.687 25.4659C64.687 26.7925 63.4019 27.6175 61.3327 27.6175C59.0347 27.6175 57.1588 26.9028 55.0624 25.2327C55.0106 25.19 54.9398 25.1725 54.8745 25.175C54.8037 25.18 54.7411 25.2101 54.6975 25.2577L52.5412 27.62C52.4513 27.7203 52.4622 27.8658 52.5657 27.951C55.0052 29.9572 58.0056 31.0154 61.2455 31.0154C65.8251 31.0154 68.7846 28.7109 68.7846 25.1424C68.7928 22.1314 66.8352 20.4637 62.0406 19.3894L62.0324 19.3862V19.3862ZM79.1471 15.8102C77.1622 15.8102 75.5341 16.5304 74.1891 18.0062V16.3451C74.1891 16.2139 74.0747 16.1071 73.9332 16.1071H70.4073C70.2657 16.1071 70.1514 16.2139 70.1514 16.3451V34.8021C70.1514 34.9325 70.2657 35.0403 70.4073 35.0403H73.9332C74.0747 35.0403 74.1891 34.9325 74.1891 34.8021V28.9767C75.5341 30.3634 77.1622 31.043 79.1471 31.043C82.8363 31.043 86.5718 28.4275 86.5718 23.4273C86.5772 18.4262 82.8417 15.8099 79.1498 15.8099L79.1471 15.8102ZM82.4714 23.4273C82.4714 25.9724 80.7698 27.7504 78.3303 27.7504C75.9207 27.7504 74.102 25.8922 74.102 23.4273C74.102 20.9623 75.9207 19.1045 78.3303 19.1045C80.7289 19.1043 82.4714 20.9219 82.4714 23.4271V23.4273ZM96.1419 15.8102C91.3909 15.8102 87.669 19.1795 87.669 23.4818C87.669 27.7379 91.3664 31.0706 96.0848 31.0706C100.852 31.0706 104.585 27.7128 104.585 23.4273C104.585 19.1565 100.877 15.8107 96.1419 15.8107V15.8102V15.8102ZM96.1419 27.7755C93.6153 27.7755 91.7094 25.9047 91.7094 23.4261C91.7094 20.9362 93.55 19.1294 96.0848 19.1294C98.6277 19.1294 100.544 20.9994 100.544 23.4805C100.544 25.9699 98.6931 27.7755 96.1419 27.7755V27.7755ZM114.73 16.1071H110.85V12.4543C110.85 12.3234 110.735 12.2166 110.594 12.2166H107.068C106.926 12.2166 106.809 12.3234 106.809 12.4543V16.1071H105.116C104.974 16.1071 104.86 16.2139 104.86 16.3451V19.1354C104.86 19.2663 104.974 19.3734 105.116 19.3734H106.809V26.5943C106.809 29.5108 108.386 30.9904 111.498 30.9904C112.761 30.9904 113.809 30.7496 114.798 30.233C114.879 30.1929 114.928 30.1127 114.928 30.0274V27.3692C114.928 27.289 114.882 27.2112 114.806 27.1686C114.73 27.1235 114.634 27.121 114.555 27.1586C113.877 27.472 113.221 27.6175 112.486 27.6175C111.356 27.6175 110.85 27.1435 110.85 26.0853V19.3746H114.73C114.871 19.3746 114.986 19.2678 114.986 19.1366V16.3466C114.991 16.2154 114.877 16.1086 114.732 16.1086L114.73 16.1071V16.1071ZM128.245 16.1214V15.6727C128.245 14.3529 128.795 13.7644 130.026 13.7644C130.761 13.7644 131.351 13.8988 132.013 14.1019C132.095 14.1255 132.179 14.1137 132.244 14.0688C132.313 14.0239 132.351 13.9519 132.351 13.8757V11.1398C132.351 11.0352 132.28 10.9427 132.168 10.9118C131.471 10.7205 130.578 10.5241 129.239 10.5241C125.985 10.5241 124.262 12.2128 124.262 15.4059V16.093H122.568C122.427 16.093 122.309 16.1999 122.309 16.3308V19.1354C122.309 19.2663 122.427 19.3734 122.568 19.3734H124.262V30.5089C124.262 30.6418 124.379 30.7471 124.52 30.7471H128.043C128.188 30.7471 128.302 30.6418 128.302 30.5089V19.3741H131.594L136.636 30.5089C136.064 31.6775 135.501 31.9107 134.733 31.9107C134.112 31.9107 133.456 31.7402 132.789 31.4016C132.726 31.3715 132.65 31.3665 132.585 31.3841C132.517 31.4067 132.46 31.4518 132.432 31.512L131.237 33.9269C131.18 34.0423 131.229 34.1752 131.349 34.2354C132.596 34.8573 133.72 35.1231 135.111 35.1231C137.714 35.1231 139.155 34.0046 140.421 31.0004L146.536 16.4464C146.568 16.3731 146.558 16.2904 146.509 16.2254C146.462 16.161 146.383 16.1221 146.299 16.1221H142.629C142.517 16.1221 142.419 16.1866 142.384 16.2816L138.624 26.1705L134.507 16.2751C134.469 16.1831 134.374 16.1221 134.267 16.1221H128.245V16.1214V16.1214ZM120.409 16.1071H116.883C116.742 16.1071 116.625 16.2139 116.625 16.3451V30.5089C116.625 30.6418 116.742 30.7471 116.883 30.7471H120.409C120.551 30.7471 120.668 30.6418 120.668 30.5089V16.3461C120.668 16.2149 120.553 16.1081 120.409 16.1081V16.1071ZM118.667 9.65747C117.27 9.65747 116.137 10.6987 116.137 11.9849C116.137 13.2718 117.27 14.3143 118.667 14.3143C120.063 14.3143 121.193 13.2718 121.193 11.9849C121.193 10.6989 120.061 9.65747 118.667 9.65747ZM149.547 20.6613C148.153 20.6613 147.067 19.6294 147.067 18.3763C147.067 17.1232 148.167 16.0795 149.561 16.0795C150.955 16.0795 152.041 17.1112 152.041 18.3633C152.041 19.6164 150.941 20.6613 149.547 20.6613ZM149.561 16.3067C148.289 16.3067 147.328 17.237 147.328 18.3763C147.328 19.5151 148.284 20.4329 149.547 20.4329C150.819 20.4329 151.78 19.5033 151.78 18.3633C151.78 17.2245 150.824 16.3067 149.561 16.3067V16.3067ZM150.111 18.5982L150.813 19.503H150.22L149.588 18.673H149.046V19.503H148.551V17.1046H149.71C150.318 17.1046 150.715 17.3898 150.715 17.8697C150.718 18.263 150.47 18.5032 150.113 18.5982H150.111ZM149.691 17.5162H149.046V18.2747H149.691C150.013 18.2747 150.206 18.1295 150.206 17.8951C150.206 17.6483 150.013 17.5162 149.691 17.5162V17.5162Z" fill="#1ED760"/>
</svg>
