<svg width="184" height="141" viewBox="0 0 184 141" fill="none" xmlns="http://www.w3.org/2000/svg">
<g filter="url(#filter0_f_18435_8218)">
<ellipse cx="89.8251" cy="114.008" rx="67.5014" ry="13.0219" fill="#6600EB" fill-opacity="0.35"/>
</g>
<path d="M90.5666 140C129.227 140 160.567 108.66 160.567 70C160.567 31.3401 129.227 0 90.5666 0C51.9067 0 20.5667 31.3401 20.5667 70C20.5667 108.66 51.9067 140 90.5666 140Z" fill="url(#paint0_linear_18435_8218)"/>
<g filter="url(#filter1_d_18435_8218)">
<path d="M149.203 47.3724L89.2183 89.2345L29.2332 47.3724L84.1448 9.03527C85.634 7.99737 87.4056 7.44092 89.2208 7.44092C91.0359 7.44092 92.8075 7.99737 94.2967 9.03527L105.25 16.6927L108.118 18.6843L136.995 38.8486L140.037 40.9845L149.203 47.3724Z" fill="#F3EBFF"/>
</g>
<path d="M79.4647 82.4286L29.2332 118.147V47.3726L79.4647 82.4286Z" fill="url(#paint1_linear_18435_8218)"/>
<g filter="url(#filter2_f_18435_8218)">
<ellipse cx="118.526" cy="45.9756" rx="22.3233" ry="7.17534" fill="#14A800" fill-opacity="0.3"/>
</g>
<path d="M98.9768 82.4286L149.208 118.147V47.3726L98.9768 82.4286Z" fill="url(#paint2_linear_18435_8218)"/>
<path d="M29.2332 118.147L84.0801 79.1526C85.5811 78.0837 87.378 77.5093 89.2208 77.5093C91.0635 77.5093 92.8604 78.0837 94.3614 79.1526L149.203 118.147H29.2332Z" fill="url(#paint3_linear_18435_8218)"/>
<path d="M119.559 41.8354C121.233 41.8354 122.403 40.6925 122.403 39.0977C122.403 37.503 121.233 36.3601 119.559 36.3601C117.911 36.3601 116.715 37.503 116.715 39.0977C116.715 40.6925 117.911 41.8354 119.559 41.8354ZM121.845 35.3767C121.845 33.5161 122.748 32.7985 124.13 32.0809C125.991 31.124 127.373 29.5559 127.373 27.3232C127.373 24.0009 124.21 21.6619 119.984 21.6619C115.519 21.6619 112.329 24.2932 112.01 27.9877L117.14 28.918C117.326 27.2169 118.336 25.9677 119.772 25.9677C120.914 25.9677 121.792 26.7651 121.792 27.8548C121.792 28.9445 120.808 29.5559 119.958 30.114C118.097 31.3367 117.3 32.7188 117.3 35.3767H121.845Z" fill="white"/>
<g filter="url(#filter3_d_18435_8218)">
<path d="M35.5712 34.5483C26.3751 38.8501 16.4931 41.4981 6.37823 42.3711C7.74497 45.5481 17.456 61.4514 46.2832 74.5552C47.0625 74.6751 65.0638 66.3009 74.9426 60.5582C74.6069 61.0378 44.2571 49.8701 35.5712 34.5483Z" fill="url(#paint4_linear_18435_8218)"/>
</g>
<path d="M119.216 51.9532C130.27 51.9532 139.231 42.9922 139.231 31.9383C139.231 20.8843 130.27 11.9233 119.216 11.9233C108.162 11.9233 99.2009 20.8843 99.2009 31.9383C99.2009 42.9922 108.162 51.9532 119.216 51.9532Z" fill="url(#paint5_linear_18435_8218)"/>
<path d="M36.2829 42.4552C35.8597 42.1616 35.3237 42.0823 34.8337 42.2409L18.7442 47.4463C18.1678 47.6327 17.9625 48.3427 18.3503 48.808C18.6626 49.1828 19.1738 49.3259 19.6353 49.1679L36.1352 43.5163C36.6008 43.3569 36.6873 42.7357 36.2829 42.4552Z" fill="#C9DFFF"/>
<path d="M36.004 48.8663C35.5959 48.4831 35.0102 48.3554 34.4796 48.534L23.3411 52.2826C22.85 52.4479 22.6766 53.0539 23.0059 53.454C23.275 53.7809 23.7184 53.9069 24.1192 53.7705L35.8039 49.7919C36.1984 49.6576 36.3078 49.1515 36.004 48.8663Z" fill="#C9DFFF"/>
<path d="M41.9823 52.0408C41.5565 51.6998 40.9837 51.6054 40.4709 51.7918L27.6408 56.4549C27.1372 56.6379 26.9856 57.2767 27.3533 57.6664C27.6346 57.9646 28.0666 58.0664 28.4514 57.9251L41.8228 53.0183C42.2384 52.8658 42.3279 52.3176 41.9823 52.0408Z" fill="#C9DFFF"/>
<path d="M46.468 61.6656C46.0736 61.2296 45.452 61.0805 44.9027 61.2901L37.5702 64.0882C37.12 64.2601 36.9577 64.8139 37.2439 65.2016C37.5122 65.5649 37.9904 65.7038 38.4115 65.5407L46.2708 62.4967C46.6098 62.3654 46.7118 61.9351 46.468 61.6656Z" fill="#C9DFFF"/>
<g filter="url(#filter4_d_18435_8218)">
<path d="M141.873 56.7261C153.024 61.9422 165.006 65.1531 177.271 66.2116C175.614 70.064 163.839 89.3476 128.884 105.237C127.939 105.382 106.111 95.2279 94.1326 88.2646C94.5396 88.8461 131.341 75.3046 141.873 56.7261Z" fill="url(#paint6_linear_18435_8218)"/>
</g>
<path d="M141.01 66.3142C141.523 65.9582 142.173 65.862 142.768 66.0543L162.277 72.3662C162.976 72.5923 163.225 73.4531 162.755 74.0174C162.376 74.4718 161.756 74.6454 161.197 74.4537L141.189 67.6009C140.625 67.4075 140.52 66.6543 141.01 66.3142Z" fill="#C9DFFF"/>
<path d="M135.548 71.5096C136.043 71.045 136.753 70.8902 137.396 71.1067L150.902 75.6521C151.498 75.8525 151.708 76.5873 151.309 77.0725C150.982 77.4688 150.445 77.6217 149.959 77.4562L135.79 72.632C135.312 72.4691 135.179 71.8555 135.548 71.5096Z" fill="#C9DFFF"/>
<path d="M129.934 75.8227C130.451 75.4092 131.145 75.2947 131.767 75.5207L147.324 81.175C147.935 81.3969 148.119 82.1715 147.673 82.6441C147.332 83.0056 146.808 83.129 146.341 82.9578L130.128 77.008C129.624 76.823 129.515 76.1583 129.934 75.8227Z" fill="#C9DFFF"/>
<path d="M117.303 84.4519C117.781 83.9233 118.535 83.7425 119.201 83.9967L128.092 87.3896C128.638 87.5979 128.835 88.2694 128.487 88.7395C128.162 89.1801 127.582 89.3485 127.072 89.1507L117.542 85.4597C117.131 85.3006 117.007 84.7788 117.303 84.4519Z" fill="#C9DFFF"/>
<path d="M123.106 79.8436C123.633 79.5135 124.282 79.4452 124.866 79.6585L145.351 87.1488C146.006 87.3882 146.165 88.2419 145.64 88.7005C145.293 89.0038 144.807 89.0934 144.375 88.934L123.242 81.1493C122.672 80.9393 122.592 80.1664 123.106 79.8436Z" fill="#C9DFFF"/>
<path d="M50.9052 54.1441C50.4712 53.8719 49.9356 53.8155 49.4544 53.9914L32.5596 60.1687C32.0196 60.3662 31.8888 61.0702 32.3218 61.4484C32.6082 61.6986 33.0084 61.7724 33.3652 61.641L50.7932 55.2209C51.2632 55.0477 51.3295 54.4103 50.9052 54.1441Z" fill="#C9DFFF"/>
<path d="M149.354 16.4764C149.354 18.5312 147.688 20.197 145.633 20.197C143.578 20.197 141.913 18.5312 141.913 16.4764C141.913 14.4216 143.578 12.7559 145.633 12.7559C147.688 12.7559 149.354 14.4216 149.354 16.4764Z" fill="#C7A4F3"/>
<ellipse cx="41.9896" cy="124.904" rx="3.72055" ry="3.72055" fill="#C7A4F3"/>
<ellipse cx="131.814" cy="130.751" rx="3.72055" ry="3.72055" fill="#C7A4F3"/>
<path d="M51.9109 19.4874C52.2252 18.1857 54.0767 18.1857 54.3909 19.4874L55.4485 23.8685C55.5608 24.3337 55.924 24.6969 56.3892 24.8092L60.7703 25.8668C62.072 26.181 62.072 28.0325 60.7703 28.3468L56.3892 29.4043C55.924 29.5166 55.5608 29.8798 55.4485 30.345L54.3909 34.7261C54.0767 36.0278 52.2252 36.0278 51.9109 34.7261L50.8534 30.345C50.7411 29.8798 50.3779 29.5166 49.9127 29.4043L45.5316 28.3468C44.2299 28.0325 44.2299 26.181 45.5316 25.8668L49.9127 24.8092C50.3779 24.6969 50.7411 24.3337 50.8534 23.8685L51.9109 19.4874Z" fill="#F3993F"/>
<path d="M158.411 111.936C158.726 110.634 160.577 110.634 160.891 111.936L161.949 116.317C162.061 116.782 162.424 117.146 162.89 117.258L167.271 118.315C168.572 118.63 168.572 120.481 167.271 120.795L162.89 121.853C162.424 121.965 162.061 122.329 161.949 122.794L160.891 127.175C160.577 128.477 158.726 128.477 158.411 127.175L157.354 122.794C157.242 122.329 156.878 121.965 156.413 121.853L152.032 120.795C150.73 120.481 150.73 118.63 152.032 118.315L156.413 117.258C156.878 117.146 157.242 116.782 157.354 116.317L158.411 111.936Z" fill="#F3993F"/>
<path d="M22.5403 101.682C23.3483 101.552 23.9934 102.346 23.7014 103.11L21.7308 108.271C21.4389 109.035 20.4288 109.197 19.9128 108.562L16.4293 104.275C15.9132 103.64 16.2782 102.684 17.0862 102.555L22.5403 101.682Z" fill="#C7A4F3"/>
<path d="M160.522 49.08C160.32 48.2871 161.052 47.5726 161.84 47.794L167.157 49.2884C167.945 49.5097 168.198 50.5009 167.612 51.0725L163.659 54.9305C163.074 55.5021 162.089 55.2253 161.887 54.4324L160.522 49.08Z" fill="#C7A4F3"/>
<path d="M128.747 26.5474L116.999 38.2953L111.659 32.9553" stroke="white" stroke-width="4.88226" stroke-linecap="round" stroke-linejoin="round"/>
<defs>
<filter id="filter0_f_18435_8218" x="9.03606" y="87.6987" width="161.578" height="52.6193" filterUnits="userSpaceOnUse" color-interpolation-filters="sRGB">
<feFlood flood-opacity="0" result="BackgroundImageFix"/>
<feBlend mode="normal" in="SourceGraphic" in2="BackgroundImageFix" result="shape"/>
<feGaussianBlur stdDeviation="6.64384" result="effect1_foregroundBlur_18435_8218"/>
</filter>
<filter id="filter1_d_18435_8218" x="27.1071" y="7.44092" width="124.222" height="86.0455" filterUnits="userSpaceOnUse" color-interpolation-filters="sRGB">
<feFlood flood-opacity="0" result="BackgroundImageFix"/>
<feColorMatrix in="SourceAlpha" type="matrix" values="0 0 0 0 0 0 0 0 0 0 0 0 0 0 0 0 0 0 127 0" result="hardAlpha"/>
<feOffset dy="2.12603"/>
<feGaussianBlur stdDeviation="1.06301"/>
<feComposite in2="hardAlpha" operator="out"/>
<feColorMatrix type="matrix" values="0 0 0 0 0 0 0 0 0 0 0 0 0 0 0 0 0 0 0.25 0"/>
<feBlend mode="normal" in2="BackgroundImageFix" result="effect1_dropShadow_18435_8218"/>
<feBlend mode="normal" in="SourceGraphic" in2="effect1_dropShadow_18435_8218" result="shape"/>
</filter>
<filter id="filter2_f_18435_8218" x="82.9155" y="25.5126" width="71.2218" height="40.9259" filterUnits="userSpaceOnUse" color-interpolation-filters="sRGB">
<feFlood flood-opacity="0" result="BackgroundImageFix"/>
<feBlend mode="normal" in="SourceGraphic" in2="BackgroundImageFix" result="shape"/>
<feGaussianBlur stdDeviation="6.64384" result="effect1_foregroundBlur_18435_8218"/>
</filter>
<filter id="filter3_d_18435_8218" x="9.01222e-05" y="30.2963" width="81.3206" height="52.7645" filterUnits="userSpaceOnUse" color-interpolation-filters="sRGB">
<feFlood flood-opacity="0" result="BackgroundImageFix"/>
<feColorMatrix in="SourceAlpha" type="matrix" values="0 0 0 0 0 0 0 0 0 0 0 0 0 0 0 0 0 0 127 0" result="hardAlpha"/>
<feOffset dy="2.12603"/>
<feGaussianBlur stdDeviation="3.18904"/>
<feComposite in2="hardAlpha" operator="out"/>
<feColorMatrix type="matrix" values="0 0 0 0 0.0196078 0 0 0 0 0.168627 0 0 0 0 0.396078 0 0 0 0.15 0"/>
<feBlend mode="normal" in2="BackgroundImageFix" result="effect1_dropShadow_18435_8218"/>
<feBlend mode="normal" in="SourceGraphic" in2="effect1_dropShadow_18435_8218" result="shape"/>
</filter>
<filter id="filter4_d_18435_8218" x="81.8745" y="55.6631" width="101.21" height="66.5834" filterUnits="userSpaceOnUse" color-interpolation-filters="sRGB">
<feFlood flood-opacity="0" result="BackgroundImageFix"/>
<feColorMatrix in="SourceAlpha" type="matrix" values="0 0 0 0 0 0 0 0 0 0 0 0 0 0 0 0 0 0 127 0" result="hardAlpha"/>
<feOffset dx="-3.22242" dy="7.9726"/>
<feGaussianBlur stdDeviation="4.51781"/>
<feComposite in2="hardAlpha" operator="out"/>
<feColorMatrix type="matrix" values="0 0 0 0 0.021441 0 0 0 0 0.168056 0 0 0 0 0.395833 0 0 0 0.15 0"/>
<feBlend mode="normal" in2="BackgroundImageFix" result="effect1_dropShadow_18435_8218"/>
<feBlend mode="normal" in="SourceGraphic" in2="effect1_dropShadow_18435_8218" result="shape"/>
</filter>
<linearGradient id="paint0_linear_18435_8218" x1="90.027" y1="-22.7937" x2="91.461" y2="223.036" gradientUnits="userSpaceOnUse">
<stop stop-color="#F3EBFF" stop-opacity="0.2"/>
<stop offset="1" stop-color="#F3EBFF"/>
</linearGradient>
<linearGradient id="paint1_linear_18435_8218" x1="54.3489" y1="47.3726" x2="54.3489" y2="118.147" gradientUnits="userSpaceOnUse">
<stop stop-color="#8B32FF"/>
<stop offset="1" stop-color="#B08EDD"/>
</linearGradient>
<linearGradient id="paint2_linear_18435_8218" x1="124.093" y1="47.3726" x2="124.093" y2="118.147" gradientUnits="userSpaceOnUse">
<stop stop-color="#8B32FF"/>
<stop offset="1" stop-color="#B08EDD"/>
</linearGradient>
<linearGradient id="paint3_linear_18435_8218" x1="89.2183" y1="77.5093" x2="89.2183" y2="118.147" gradientUnits="userSpaceOnUse">
<stop stop-color="#6600EB"/>
<stop offset="1" stop-color="#C599FF"/>
</linearGradient>
<linearGradient id="paint4_linear_18435_8218" x1="13.8193" y1="52.3538" x2="58.7317" y2="43.584" gradientUnits="userSpaceOnUse">
<stop stop-color="#C6DDFF"/>
<stop offset="1" stop-color="white"/>
</linearGradient>
<linearGradient id="paint5_linear_18435_8218" x1="99.3923" y1="14.6166" x2="139.255" y2="52.0878" gradientUnits="userSpaceOnUse">
<stop stop-color="#8FE783"/>
<stop offset="1" stop-color="#20A10F"/>
</linearGradient>
<linearGradient id="paint6_linear_18435_8218" x1="168.248" y1="78.3163" x2="113.789" y2="67.6823" gradientUnits="userSpaceOnUse">
<stop stop-color="#C6DDFF"/>
<stop offset="1" stop-color="white"/>
</linearGradient>
</defs>
</svg>
