<svg width="249" height="191" viewBox="0 0 249 191" fill="none" xmlns="http://www.w3.org/2000/svg">
<g filter="url(#filter0_f_20711_4351)">
<ellipse cx="121.905" cy="154.725" rx="91.609" ry="17.6726" fill="#6600EB" fill-opacity="0.35"/>
</g>
<path d="M122.912 190C175.379 190 217.912 147.467 217.912 95C217.912 42.533 175.379 0 122.912 0C70.4447 0 27.9117 42.533 27.9117 95C27.9117 147.467 70.4447 190 122.912 190Z" fill="url(#paint0_linear_20711_4351)"/>
<g filter="url(#filter1_d_20711_4351)">
<path d="M202.49 64.2913L121.082 121.104L39.6733 64.2913L114.196 12.2624C116.217 10.8538 118.622 10.0986 121.085 10.0986C123.549 10.0986 125.953 10.8538 127.974 12.2624L142.839 22.6547L146.731 25.3575L185.922 52.7233L190.05 55.6221L202.49 64.2913Z" fill="#F3EBFF"/>
</g>
<path d="M107.845 111.868L39.6733 160.342V64.2915L107.845 111.868Z" fill="url(#paint1_linear_20711_4351)"/>
<g filter="url(#filter2_f_20711_4351)">
<ellipse cx="160.857" cy="62.3952" rx="30.2959" ry="9.73797" fill="#E65243" fill-opacity="0.3"/>
</g>
<path d="M134.325 111.868L202.497 160.342V64.2915L134.325 111.868Z" fill="url(#paint2_linear_20711_4351)"/>
<path d="M39.6733 160.342L114.108 107.422C116.146 105.971 118.584 105.191 121.085 105.191C123.586 105.191 126.025 105.971 128.062 107.422L202.49 160.342H39.6733Z" fill="url(#paint3_linear_20711_4351)"/>
<g filter="url(#filter3_d_20711_4351)">
<path d="M48.2749 46.8867C35.7946 52.7248 22.3833 56.3185 8.65597 57.5033C10.5108 61.815 23.69 83.398 62.8127 101.182C63.8703 101.344 88.3007 89.9795 101.708 82.1858C101.252 82.8367 60.063 67.6806 48.2749 46.8867Z" fill="url(#paint4_linear_20711_4351)"/>
</g>
<path d="M49.2408 57.6174C48.6664 57.219 47.939 57.1114 47.274 57.3266L25.4382 64.3911C24.656 64.6441 24.3773 65.6076 24.9036 66.2392C25.3275 66.7478 26.0212 66.942 26.6475 66.7275L49.0404 59.0576C49.6722 58.8412 49.7896 57.9982 49.2408 57.6174Z" fill="#C9DFFF"/>
<path d="M48.8622 66.3183C48.3084 65.7983 47.5135 65.625 46.7934 65.8673L31.6769 70.9547C31.0103 71.179 30.775 72.0014 31.2219 72.5444C31.5871 72.9881 32.1889 73.1591 32.7328 72.9739L48.5907 67.5745C49.1261 67.3922 49.2745 66.7054 48.8622 66.3183Z" fill="#C9DFFF"/>
<path d="M56.9758 70.6268C56.3979 70.164 55.6206 70.0359 54.9247 70.2888L37.5123 76.6173C36.8289 76.8657 36.6232 77.7327 37.1222 78.2616C37.504 78.6662 38.0902 78.8043 38.6125 78.6127L56.7593 71.9534C57.3235 71.7464 57.4449 71.0024 56.9758 70.6268Z" fill="#C9DFFF"/>
<path d="M63.0633 83.6887C62.528 83.0971 61.6844 82.8947 60.939 83.1792L50.9878 86.9766C50.3767 87.2098 50.1564 87.9614 50.5449 88.4876C50.909 88.9807 51.5579 89.1691 52.1295 88.9478L62.7957 84.8167C63.2557 84.6385 63.3942 84.0546 63.0633 83.6887Z" fill="#C9DFFF"/>
<g filter="url(#filter4_d_20711_4351)">
<path d="M192.541 76.9854C207.675 84.0643 223.937 88.422 240.582 89.8586C238.333 95.0868 222.352 121.257 174.913 142.821C173.631 143.019 144.008 129.238 127.751 119.788C128.304 120.577 178.248 102.199 192.541 76.9854Z" fill="url(#paint5_linear_20711_4351)"/>
</g>
<path d="M191.371 89.9976C192.067 89.5144 192.949 89.384 193.756 89.6449L220.233 98.211C221.181 98.5179 221.519 99.6861 220.881 100.452C220.367 101.069 219.526 101.304 218.766 101.044L191.614 91.7439C190.848 91.4814 190.705 90.4592 191.371 89.9976Z" fill="#C9DFFF"/>
<path d="M183.957 97.0486C184.629 96.4181 185.593 96.2079 186.466 96.5017L204.796 102.671C205.604 102.943 205.889 103.94 205.347 104.598C204.904 105.136 204.175 105.344 203.515 105.119L184.287 98.5718C183.637 98.3508 183.457 97.518 183.957 97.0486Z" fill="#C9DFFF"/>
<path d="M176.339 102.902C177.04 102.341 177.982 102.186 178.826 102.492L199.94 110.166C200.768 110.467 201.018 111.519 200.413 112.16C199.95 112.651 199.239 112.818 198.606 112.586L176.602 104.511C175.917 104.26 175.77 103.358 176.339 102.902Z" fill="#C9DFFF"/>
<path d="M159.196 114.613C159.845 113.896 160.868 113.65 161.772 113.995L173.839 118.6C174.58 118.883 174.847 119.794 174.376 120.432C173.934 121.03 173.147 121.259 172.454 120.99L159.521 115.981C158.963 115.765 158.795 115.057 159.196 114.613Z" fill="#C9DFFF"/>
<path d="M167.073 108.359C167.787 107.911 168.668 107.819 169.46 108.108L197.262 118.274C198.151 118.599 198.366 119.757 197.654 120.379C197.182 120.791 196.524 120.913 195.937 120.696L167.257 110.131C166.484 109.846 166.374 108.797 167.073 108.359Z" fill="#C9DFFF"/>
<path d="M69.0854 73.4815C68.4964 73.1119 67.7696 73.0355 67.1165 73.2742L44.1879 81.6577C43.455 81.9257 43.2775 82.8811 43.8652 83.3944C44.2539 83.7339 44.7969 83.8341 45.2812 83.6557L68.9334 74.9428C69.5713 74.7078 69.6613 73.8427 69.0854 73.4815Z" fill="#C9DFFF"/>
<path d="M202.694 22.3608C202.694 25.1495 200.433 27.4102 197.645 27.4102C194.856 27.4102 192.595 25.1495 192.595 22.3608C192.595 19.5722 194.856 17.3115 197.645 17.3115C200.433 17.3115 202.694 19.5722 202.694 22.3608Z" fill="#C7A4F3"/>
<ellipse cx="56.9854" cy="169.513" rx="5.04932" ry="5.04932" fill="#C7A4F3"/>
<ellipse cx="178.89" cy="177.447" rx="5.04932" ry="5.04932" fill="#C7A4F3"/>
<path d="M30.5901 137.997C31.6867 137.821 32.5621 138.898 32.1659 139.936L29.4915 146.939C29.0953 147.976 27.7245 148.196 27.0242 147.334L22.2966 141.516C21.5962 140.654 22.0915 139.358 23.1881 139.182L30.5901 137.997Z" fill="#C7A4F3"/>
<path d="M217.851 66.6087C217.577 65.5325 218.57 64.5629 219.639 64.8634L226.856 66.8914C227.925 67.1918 228.268 68.537 227.473 69.3127L222.109 74.5486C221.314 75.3242 219.978 74.9487 219.703 73.8726L217.851 66.6087Z" fill="#C7A4F3"/>
<path d="M163.619 74C178.254 74 190.119 62.1355 190.119 47.5C190.119 32.8645 178.254 21 163.619 21C148.983 21 137.119 32.8645 137.119 47.5C137.119 62.1355 148.983 74 163.619 74Z" fill="url(#paint6_linear_20711_4351)"/>
<path fill-rule="evenodd" clip-rule="evenodd" d="M158.434 38.5622C157.931 38.0932 157.265 37.8379 156.577 37.85C155.889 37.8622 155.233 38.1408 154.746 38.6273C154.26 39.1137 153.981 39.77 153.969 40.4579C153.957 41.1458 154.212 41.8115 154.681 42.3148L160.77 48.4039L154.681 54.493C154.212 54.9964 153.957 55.6621 153.969 56.3499C153.981 57.0378 154.26 57.6941 154.746 58.1806C155.233 58.667 155.889 58.9457 156.577 58.9578C157.265 58.97 157.931 58.7146 158.434 58.2456L164.523 52.1565L170.612 58.2456C171.115 58.7146 171.781 58.97 172.469 58.9578C173.157 58.9457 173.813 58.667 174.3 58.1806C174.786 57.6941 175.065 57.0378 175.077 56.3499C175.089 55.6621 174.834 54.9964 174.365 54.493L168.276 48.4039L174.365 42.3148C174.834 41.8115 175.089 41.1458 175.077 40.4579C175.065 39.77 174.786 39.1137 174.3 38.6273C173.813 38.1408 173.157 37.8622 172.469 37.85C171.781 37.8379 171.115 38.0932 170.612 38.5622L164.523 44.6513L158.434 38.5622Z" fill="white"/>
<defs>
<filter id="filter0_f_20711_4351" x="12.263" y="119.019" width="219.285" height="71.4118" filterUnits="userSpaceOnUse" color-interpolation-filters="sRGB">
<feFlood flood-opacity="0" result="BackgroundImageFix"/>
<feBlend mode="normal" in="SourceGraphic" in2="BackgroundImageFix" result="shape"/>
<feGaussianBlur stdDeviation="9.01664" result="effect1_foregroundBlur_20711_4351"/>
</filter>
<filter id="filter1_d_20711_4351" x="36.788" y="10.0986" width="168.587" height="116.776" filterUnits="userSpaceOnUse" color-interpolation-filters="sRGB">
<feFlood flood-opacity="0" result="BackgroundImageFix"/>
<feColorMatrix in="SourceAlpha" type="matrix" values="0 0 0 0 0 0 0 0 0 0 0 0 0 0 0 0 0 0 127 0" result="hardAlpha"/>
<feOffset dy="2.88532"/>
<feGaussianBlur stdDeviation="1.44266"/>
<feComposite in2="hardAlpha" operator="out"/>
<feColorMatrix type="matrix" values="0 0 0 0 0 0 0 0 0 0 0 0 0 0 0 0 0 0 0.25 0"/>
<feBlend mode="normal" in2="BackgroundImageFix" result="effect1_dropShadow_20711_4351"/>
<feBlend mode="normal" in="SourceGraphic" in2="effect1_dropShadow_20711_4351" result="shape"/>
</filter>
<filter id="filter2_f_20711_4351" x="112.528" y="34.624" width="96.6583" height="55.5426" filterUnits="userSpaceOnUse" color-interpolation-filters="sRGB">
<feFlood flood-opacity="0" result="BackgroundImageFix"/>
<feBlend mode="normal" in="SourceGraphic" in2="BackgroundImageFix" result="shape"/>
<feGaussianBlur stdDeviation="9.01664" result="effect1_foregroundBlur_20711_4351"/>
</filter>
<filter id="filter3_d_20711_4351" x="3.52859e-05" y="41.1161" width="110.364" height="71.6088" filterUnits="userSpaceOnUse" color-interpolation-filters="sRGB">
<feFlood flood-opacity="0" result="BackgroundImageFix"/>
<feColorMatrix in="SourceAlpha" type="matrix" values="0 0 0 0 0 0 0 0 0 0 0 0 0 0 0 0 0 0 127 0" result="hardAlpha"/>
<feOffset dy="2.88532"/>
<feGaussianBlur stdDeviation="4.32799"/>
<feComposite in2="hardAlpha" operator="out"/>
<feColorMatrix type="matrix" values="0 0 0 0 0.0196078 0 0 0 0 0.168627 0 0 0 0 0.396078 0 0 0 0.15 0"/>
<feBlend mode="normal" in2="BackgroundImageFix" result="effect1_dropShadow_20711_4351"/>
<feBlend mode="normal" in="SourceGraphic" in2="effect1_dropShadow_20711_4351" result="shape"/>
</filter>
<filter id="filter4_d_20711_4351" x="111.115" y="75.5427" width="137.356" height="90.3631" filterUnits="userSpaceOnUse" color-interpolation-filters="sRGB">
<feFlood flood-opacity="0" result="BackgroundImageFix"/>
<feColorMatrix in="SourceAlpha" type="matrix" values="0 0 0 0 0 0 0 0 0 0 0 0 0 0 0 0 0 0 127 0" result="hardAlpha"/>
<feOffset dx="-4.37328" dy="10.82"/>
<feGaussianBlur stdDeviation="6.13131"/>
<feComposite in2="hardAlpha" operator="out"/>
<feColorMatrix type="matrix" values="0 0 0 0 0.021441 0 0 0 0 0.168056 0 0 0 0 0.395833 0 0 0 0.15 0"/>
<feBlend mode="normal" in2="BackgroundImageFix" result="effect1_dropShadow_20711_4351"/>
<feBlend mode="normal" in="SourceGraphic" in2="effect1_dropShadow_20711_4351" result="shape"/>
</filter>
<linearGradient id="paint0_linear_20711_4351" x1="122.179" y1="-30.9343" x2="124.126" y2="302.691" gradientUnits="userSpaceOnUse">
<stop stop-color="#F3EBFF" stop-opacity="0.2"/>
<stop offset="1" stop-color="#F3EBFF"/>
</linearGradient>
<linearGradient id="paint1_linear_20711_4351" x1="73.759" y1="64.2915" x2="73.759" y2="160.342" gradientUnits="userSpaceOnUse">
<stop stop-color="#8B32FF"/>
<stop offset="1" stop-color="#B08EDD"/>
</linearGradient>
<linearGradient id="paint2_linear_20711_4351" x1="168.411" y1="64.2915" x2="168.411" y2="160.342" gradientUnits="userSpaceOnUse">
<stop stop-color="#8B32FF"/>
<stop offset="1" stop-color="#B08EDD"/>
</linearGradient>
<linearGradient id="paint3_linear_20711_4351" x1="121.082" y1="105.191" x2="121.082" y2="160.342" gradientUnits="userSpaceOnUse">
<stop stop-color="#6600EB"/>
<stop offset="1" stop-color="#C599FF"/>
</linearGradient>
<linearGradient id="paint4_linear_20711_4351" x1="18.7546" y1="71.0513" x2="79.7071" y2="59.1493" gradientUnits="userSpaceOnUse">
<stop stop-color="#C6DDFF"/>
<stop offset="1" stop-color="white"/>
</linearGradient>
<linearGradient id="paint5_linear_20711_4351" x1="228.337" y1="106.286" x2="154.428" y2="91.8545" gradientUnits="userSpaceOnUse">
<stop stop-color="#C6DDFF"/>
<stop offset="1" stop-color="white"/>
</linearGradient>
<linearGradient id="paint6_linear_20711_4351" x1="163.619" y1="21" x2="163.619" y2="74" gradientUnits="userSpaceOnUse">
<stop stop-color="#E34C3D"/>
<stop offset="1" stop-color="#FF8C80"/>
</linearGradient>
</defs>
</svg>
