<?xml version="1.0" encoding="UTF-8"?>
<svg version="1.1" xmlns="http://www.w3.org/2000/svg" width="900" height="900">
<path d="M0 0 C297 0 594 0 900 0 C900 297 900 594 900 900 C603 900 306 900 0 900 C0 603 0 306 0 0 Z " fill="#000000" transform="translate(0,0)"/>
<path d="M0 0 C5.97592903 3.35358043 11.79421645 6.83456283 17.484375 10.65234375 C18.45294434 11.29413574 19.42151367 11.93592773 20.41943359 12.59716797 C22.37633132 13.89842575 24.32227149 15.21632762 26.25634766 16.55126953 C31.34465151 20.14066583 31.34465151 20.14066583 37.28125 20.6328125 C38.1784375 20.09398437 39.075625 19.55515625 40 19 C40.99257813 18.43925781 41.98515625 17.87851563 43.0078125 17.30078125 C44.03648437 16.64464844 45.06515625 15.98851562 46.125 15.3125 C47.26130685 14.60220522 48.39803605 13.8925857 49.53515625 13.18359375 C51.8200135 11.74759988 54.09644977 10.29994922 56.37109375 8.84765625 C57.42425781 8.19667969 58.47742188 7.54570312 59.5625 6.875 C60.51253906 6.27429688 61.46257813 5.67359375 62.44140625 5.0546875 C65 4 65 4 67.04296875 4.3671875 C70.00713893 6.84028757 71.79656461 9.97366849 73.75 13.25 C74.141875 13.88679687 74.53375 14.52359375 74.9375 15.1796875 C75.54851562 16.18128906 75.54851562 16.18128906 76.171875 17.203125 C76.85830078 18.28182861 76.85830078 18.28182861 77.55859375 19.38232422 C79 22 79 22 80.28515625 25.62158203 C81.85362176 29.69957938 83.44475969 33.30503319 87 36 C94.43307354 38.47466624 102.80625919 37.62361451 110.5 37.375 C117.925 37.25125 125.35 37.1275 133 37 C133 52.18 133 67.36 133 83 C135.475 83.99 135.475 83.99 138 85 C139.27755261 85.67121008 140.54031509 86.37147064 141.78515625 87.1015625 C142.8205957 87.70750244 142.8205957 87.70750244 143.87695312 88.32568359 C144.59818359 88.75445801 145.31941406 89.18323242 146.0625 89.625 C146.80822266 90.0679541 147.55394531 90.5109082 148.32226562 90.96728516 C152.9165123 93.71496015 157.48833554 96.49360085 162 99.375 C162.94875 99.98085937 163.8975 100.58671875 164.875 101.2109375 C167 103 167 103 168.06640625 104.78125 C167.95689521 108.44020722 165.86427155 111.13471655 163.9375 114.125 C163.10023335 115.46873313 162.26299383 116.81248317 161.42578125 118.15625 C161.01150879 118.81109375 160.59723633 119.4659375 160.17041016 120.140625 C158.61497407 122.6116724 157.11773631 125.11569136 155.625 127.625 C154.2346802 129.94219967 152.85020504 132.22152775 151.3359375 134.4609375 C149.82759434 137.32767158 149.55021897 138.81064364 150 142 C150.9987938 144.06529499 150.9987938 144.06529499 152.5 146 C156.61516453 151.83144169 160.30352264 157.89687993 164 164 C164.46148438 164.7528125 164.92296875 165.505625 165.3984375 166.28125 C167.07786771 169.09221119 168 170.66157724 168 174 C166.99582031 174.556875 165.99164062 175.11375 164.95703125 175.6875 C157.11989583 180.05334003 149.38112651 184.52474007 141.76953125 189.2734375 C139 191 139 191 136.37109375 191.97436523 C133.85811359 193.71759972 133.85811359 193.71759972 133.52507019 196.00823975 C133.32137471 198.72779597 133.2818985 201.40948303 133.29296875 204.13671875 C133.27784744 205.13129593 133.26272614 206.12587311 133.24714661 207.15058899 C133.2041307 210.32978745 133.19541806 213.50803902 133.1875 216.6875 C133.16436655 218.8418223 133.13900364 220.99612189 133.11132812 223.15039062 C133.04833913 228.43360258 133.01351489 233.71644244 133 239 C132.43037033 239.00586624 131.86074066 239.01173248 131.27384949 239.01777649 C125.35272804 239.08163964 119.43215371 239.16604038 113.51147461 239.26245117 C111.30093594 239.29573508 109.09031157 239.32375612 106.87963867 239.34643555 C103.70454334 239.37991759 100.53023583 239.43223052 97.35546875 239.48828125 C95.86940376 239.49786613 95.86940376 239.49786613 94.35331726 239.50764465 C93.43258926 239.52743881 92.51186127 239.54723297 91.56323242 239.56762695 C90.7527092 239.57873001 89.94218597 239.58983307 89.10710144 239.60127258 C86.48620413 240.09722574 85.65296876 240.9471402 84 243 C82.87337926 244.80705504 81.79493296 246.64451157 80.75 248.5 C77.83023842 253.60495313 74.76018401 258.57458131 71.56640625 263.51171875 C70.20125562 265.68029968 68.95919107 267.86753682 67.75 270.125 C66 273 66 273 63 274 C60.33618164 272.67651367 60.33618164 272.67651367 57.16015625 270.66796875 C56.59679062 270.31616043 56.03342499 269.96435211 55.45298767 269.60188293 C53.6499399 268.47331466 51.85613473 267.33095715 50.0625 266.1875 C48.27070837 265.05773 46.47713979 263.93084877 44.682724 262.80525208 C43.04979976 261.7789537 41.42138825 260.74548564 39.79321289 259.71166992 C35.47644228 256.84842772 35.47644228 256.84842772 30.5625 256.125 C27.39863592 257.20534383 25.61794087 258.89426495 23 261 C20.35894574 262.50296838 17.67730984 263.91723828 14.9921875 265.33984375 C10.95749679 267.57841235 7.14146929 270.1084901 3.3125 272.6796875 C1 274 1 274 -2 274 C-2.33 273.34 -2.66 272.68 -3 272 C-3.99780487 271.98969254 -4.99560974 271.97938507 -6.02365112 271.96876526 C-15.41199033 271.87114786 -24.80026153 271.76842499 -34.18848991 271.66066074 C-39.01544762 271.60541902 -43.84241137 271.55199702 -48.66943359 271.50268555 C-53.32490552 271.45506043 -57.98030239 271.4027183 -62.63568497 271.34705925 C-64.4147264 271.32662729 -66.19378842 271.30791561 -67.97286606 271.29092598 C-70.45838641 271.26690057 -72.94376424 271.23684354 -75.42919922 271.20532227 C-76.54050201 271.19668907 -76.54050201 271.19668907 -77.67425537 271.18788147 C-82.77189568 271.11405216 -82.77189568 271.11405216 -85 270 C-86.39201895 269.82139064 -87.78903387 269.68044293 -89.1875 269.5625 C-93.32290483 269.12719423 -97.04461826 268.34200452 -101 267 C-101.721875 266.75636719 -102.44375 266.51273437 -103.1875 266.26171875 C-114.83064337 261.79720263 -120.75661133 249.82883942 -127.58691406 240.01660156 C-129.4620835 237.34056501 -131.38213076 234.69891868 -133.3125 232.0625 C-135.79245559 228.67374081 -138.22739903 225.26003081 -140.625 221.8125 C-142.64014779 218.91883835 -144.6825341 216.06012308 -146.8125 213.25 C-150.9115879 207.83964474 -154.82521504 202.29327742 -158.74658203 196.75341797 C-159.62764956 195.52088446 -160.52034153 194.29661838 -161.42138672 193.07861328 C-165 188.21013728 -165 188.21013728 -165 186 C-168.89674447 188.05828041 -171.0308659 190.01117885 -173.4375 193.6875 C-175.63179898 196.96699695 -177.8499877 200.17997775 -180.25 203.3125 C-181.92843718 205.51321684 -183.34832609 207.59713044 -184.75 210 C-185.1625 210.66 -185.575 211.32 -186 212 C-186.66 212 -187.32 212 -188 212 C-188.309375 212.99 -188.309375 212.99 -188.625 214 C-190.22302477 217.48659949 -192.30629215 220.22051539 -194.66015625 223.23046875 C-196.05953287 224.96624445 -196.05953287 224.96624445 -197 227 C-197.66 227 -198.32 227 -199 227 C-199.309375 227.99 -199.309375 227.99 -199.625 229 C-200.82139873 231.61032451 -201.97324025 233.40866251 -203.703125 235.65625 C-206.92117837 239.88398328 -210.02822514 244.18302334 -213.125 248.5 C-219.30479668 257.08582127 -225.62566188 265.55812333 -232 274 C-236.31172454 279.720687 -240.61281111 285.44632315 -244.8125 291.25 C-248.0978907 295.78696811 -251.4448398 300.27406371 -254.8125 304.75 C-258.80612203 310.05802651 -262.76748801 315.38737382 -266.6875 320.75 C-273.53284665 330.10840964 -280.50610592 339.36258261 -287.5625 348.5625 C-291.83138242 354.12919617 -296.03176762 359.7336671 -300.1328125 365.42578125 C-302.10138533 368.13977601 -304.10803181 370.82179132 -306.125 373.5 C-310.10289256 378.78324591 -314.02337813 384.10688377 -317.9375 389.4375 C-322.78616736 396.03566641 -327.69483033 402.57732566 -332.71875 409.04296875 C-337.87643947 415.72853541 -342.86811431 422.53066223 -347.8125 429.375 C-348.39708984 430.18066406 -348.98167969 430.98632812 -349.58398438 431.81640625 C-350.14021484 432.58597656 -350.69644531 433.35554688 -351.26953125 434.1484375 C-351.77073486 434.84114746 -352.27193848 435.53385742 -352.78833008 436.24755859 C-354.0531467 437.98893854 -354.0531467 437.98893854 -355 440 C-388.99 440 -422.98 440 -458 440 C-456.18547839 435.46369597 -454.11997832 432.29530826 -451.125 428.5625 C-447.88415117 424.48018449 -444.8744946 420.35529485 -442 416 C-440.65996763 414.17702527 -439.30520648 412.3648048 -437.9375 410.5625 C-429.83119719 399.81140018 -421.92961649 388.91373207 -414.05883789 377.98950195 C-409.37771857 371.50204733 -404.63824258 365.05868051 -399.88623047 358.62304688 C-396.22886703 353.66983199 -392.59164161 348.70294417 -388.9765625 343.71875 C-384.19585526 337.14291554 -379.37422605 330.59683821 -374.56347656 324.04296875 C-364.21518518 309.94720562 -364.21518518 309.94720562 -353.96875 295.77734375 C-349.0468515 288.92530326 -344.12330153 282.0930295 -338.9375 275.4375 C-334.69673919 269.981191 -330.70445706 264.38125369 -326.74194336 258.72070312 C-318.18680182 246.52660642 -309.23345615 234.62055891 -300.27099609 222.72436523 C-296.20345602 217.30896478 -292.25880158 211.81314863 -288.3515625 206.28125 C-286.13907696 203.16655357 -283.84302057 200.1183288 -281.54443359 197.06689453 C-278.98384249 193.64009019 -276.49519681 190.16204693 -274 186.6875 C-268.67611942 179.29360906 -263.29319285 171.94529028 -257.88085938 164.6159668 C-254.29971917 159.76608837 -250.73993463 154.90186628 -247.203125 150.01953125 C-245.32659447 147.44761973 -243.43948136 144.88429778 -241.546875 142.32421875 C-240.92296875 141.47988281 -240.2990625 140.63554687 -239.65625 139.765625 C-238.41267231 138.08373713 -237.16793435 136.40270636 -235.921875 134.72265625 C-233.4341951 131.35762496 -230.97091836 128.00629525 -228.703125 124.48828125 C-227 122 -227 122 -225 121 C-224.484375 120.05125 -223.96875 119.1025 -223.4375 118.125 C-214.17574942 101.53527094 -197.50332236 88.2508341 -179.28125 82.9140625 C-174.42294905 81.72019025 -169.61192004 81.52871903 -164.625 81.5 C-163.39547607 81.49057373 -163.39547607 81.49057373 -162.14111328 81.48095703 C-147.37704497 81.78847959 -135.32972073 90.28483021 -124 99 C-123.37480469 99.44601563 -122.74960937 99.89203125 -122.10546875 100.3515625 C-116.30998405 104.77621827 -112.49473516 111.00523762 -108.41503906 116.94824219 C-105.87254838 120.63476595 -103.27475756 124.28233275 -100.6875 127.9375 C-99.71202443 129.32146296 -98.73675627 130.70557214 -97.76171875 132.08984375 C-95.18949049 135.73738492 -92.59780875 139.37063878 -90 143 C-86.28854901 139.64814124 -86.28854901 139.64814124 -85 135 C-85.97593376 132.64602163 -85.97593376 132.64602163 -87.5625 130.3125 C-88.12195313 129.43078125 -88.68140625 128.5490625 -89.2578125 127.640625 C-89.83273437 126.76921875 -90.40765625 125.8978125 -91 125 C-91.49242187 124.25234375 -91.98484375 123.5046875 -92.4921875 122.734375 C-93.46693742 121.26961566 -94.44755075 119.80874353 -95.43359375 118.3515625 C-97.17134732 115.74276537 -98.83541304 113.09352227 -100.5 110.4375 C-105.15701831 103.13097456 -109.56293858 96.99619592 -116.36328125 91.54296875 C-118 90 -118 90 -119 87 C-101.66060873 81.59270543 -85.0171355 81.81329393 -67 82 C-67 67.15 -67 52.3 -67 37 C-45.625 37.5 -45.625 37.5 -38.93994141 37.78320312 C-29.47055212 38.16641658 -29.47055212 38.16641658 -21.11038208 34.47024536 C-17.92124332 30.72104023 -15.84274456 26.5499893 -13.92127991 22.0463562 C-12.46684164 18.81574329 -10.5855541 15.92662789 -8.6875 12.9375 C-7.73423828 11.38289062 -7.73423828 11.38289062 -6.76171875 9.796875 C-4.63619979 6.42243691 -2.38029449 3.19852073 0 0 Z " fill="#3896EF" transform="translate(605,138)"/>
<path d="M0 0 C1.22952393 -0.00942627 1.22952393 -0.00942627 2.48388672 -0.01904297 C17.24795503 0.28847959 29.29527927 8.78483021 40.625 17.5 C41.56279297 18.16902344 41.56279297 18.16902344 42.51953125 18.8515625 C48.31501595 23.27621827 52.13026484 29.50523762 56.20996094 35.44824219 C58.75245162 39.13476595 61.35024244 42.78233275 63.9375 46.4375 C65.37767131 48.48075338 66.81740026 50.52413545 68.24853516 52.57373047 C69.16972224 53.86286954 70.1179254 55.13310465 71.09130859 56.38330078 C73.84414482 59.9663421 75.16368942 61.98884521 74.625 66.5 C73.43164062 68.99536133 73.43164062 68.99536133 71.78125 71.58203125 C71.19472656 72.51337891 70.60820312 73.44472656 70.00390625 74.40429688 C69.38386719 75.36400391 68.76382812 76.32371094 68.125 77.3125 C67.50496094 78.29154297 66.88492187 79.27058594 66.24609375 80.27929688 C64.71561479 82.69274447 63.17506886 85.09910571 61.625 87.5 C65.85354995 91.09091147 70.3847189 93.904219 75.125 96.75 C77.41492174 98.13450942 79.69651294 99.51909785 81.94848633 100.96484375 C84.67999187 102.62455754 84.67999187 102.62455754 88.08862305 103.81640625 C91.9338786 105.50757382 95.22752794 106.98739252 97.625 110.5 C99.81171106 118.03429543 98.83848053 126.26904887 98.4375 134 C98.37224407 136.17951582 98.31293655 138.35921838 98.25976562 140.5390625 C98.11695748 145.86346709 97.89992413 151.18086779 97.625 156.5 C98.87522949 156.42668457 100.12545898 156.35336914 101.41357422 156.27783203 C106.09002151 156.02280682 110.76587041 155.86317849 115.44726562 155.73095703 C117.46557177 155.66090386 119.4831761 155.56561245 121.49902344 155.44384766 C137.79502724 154.48478512 137.79502724 154.48478512 142.50924683 157.84176636 C146.11950821 161.57329614 148.33846339 165.88022334 150.625 170.5 C151.70338214 172.12161237 152.80415215 173.72881525 153.9375 175.3125 C155.86059201 178.2279865 157.60947227 181.20209784 159.29296875 184.26171875 C159.73278076 185.05924561 160.17259277 185.85677246 160.62573242 186.6784668 C161.12036987 187.58012573 161.12036987 187.58012573 161.625 188.5 C151.08896891 188.52322649 140.55294397 188.54096749 130.01689243 188.55181217 C125.12396397 188.5570185 120.2310531 188.5640751 115.33813477 188.57543945 C110.61136135 188.58634853 105.88460479 188.59229377 101.15781975 188.59487724 C99.35942253 188.59671708 97.56102618 188.60030971 95.76263618 188.60573006 C93.23309499 188.61304708 90.70362243 188.61398648 88.17407227 188.61352539 C87.43966919 188.61712067 86.70526611 188.62071594 85.9486084 188.62442017 C78.28827637 188.60942672 70.91566833 187.97361961 63.625 185.5 C62.903125 185.25636719 62.18125 185.01273438 61.4375 184.76171875 C49.79435663 180.29720263 43.86838867 168.32883942 37.03808594 158.51660156 C35.1629165 155.84056501 33.24286924 153.19891868 31.3125 150.5625 C28.83254441 147.17374081 26.39760097 143.76003081 24 140.3125 C21.98485221 137.41883835 19.9424659 134.56012308 17.8125 131.75 C13.7134121 126.33964474 9.79978496 120.79327742 5.87841797 115.25341797 C4.99735044 114.02088446 4.10465847 112.79661838 3.20361328 111.57861328 C-0.375 106.71013728 -0.375 106.71013728 -0.375 104.5 C-4.27174447 106.55828041 -6.4058659 108.51117885 -8.8125 112.1875 C-11.00679898 115.46699695 -13.2249877 118.67997775 -15.625 121.8125 C-17.30343718 124.01321684 -18.72332609 126.09713044 -20.125 128.5 C-20.5375 129.16 -20.95 129.82 -21.375 130.5 C-22.035 130.5 -22.695 130.5 -23.375 130.5 C-23.684375 131.49 -23.684375 131.49 -24 132.5 C-25.59802477 135.98659949 -27.68129215 138.72051539 -30.03515625 141.73046875 C-31.43453287 143.46624445 -31.43453287 143.46624445 -32.375 145.5 C-33.035 145.5 -33.695 145.5 -34.375 145.5 C-34.684375 146.49 -34.684375 146.49 -35 147.5 C-36.19639873 150.11032451 -37.34824025 151.90866251 -39.078125 154.15625 C-42.29617837 158.38398328 -45.40322514 162.68302334 -48.5 167 C-54.67979668 175.58582127 -61.00066188 184.05812333 -67.375 192.5 C-71.68672454 198.220687 -75.98781111 203.94632315 -80.1875 209.75 C-83.4728907 214.28696811 -86.8198398 218.77406371 -90.1875 223.25 C-94.18112203 228.55802651 -98.14248801 233.88737382 -102.0625 239.25 C-108.90784665 248.60840964 -115.88110592 257.86258261 -122.9375 267.0625 C-127.20638242 272.62919617 -131.40676762 278.2336671 -135.5078125 283.92578125 C-137.47638533 286.63977601 -139.48303181 289.32179132 -141.5 292 C-145.47789256 297.28324591 -149.39837813 302.60688377 -153.3125 307.9375 C-158.16116736 314.53566641 -163.06983033 321.07732566 -168.09375 327.54296875 C-173.25143947 334.22853541 -178.24311431 341.03066223 -183.1875 347.875 C-183.77208984 348.68066406 -184.35667969 349.48632812 -184.95898438 350.31640625 C-185.51521484 351.08597656 -186.07144531 351.85554688 -186.64453125 352.6484375 C-187.14573486 353.34114746 -187.64693848 354.03385742 -188.16333008 354.74755859 C-189.4281467 356.48893854 -189.4281467 356.48893854 -190.375 358.5 C-224.365 358.5 -258.355 358.5 -293.375 358.5 C-291.56047839 353.96369597 -289.49497832 350.79530826 -286.5 347.0625 C-283.25915117 342.98018449 -280.2494946 338.85529485 -277.375 334.5 C-276.03496763 332.67702527 -274.68020648 330.8648048 -273.3125 329.0625 C-265.20619719 318.31140018 -257.30461649 307.41373207 -249.43383789 296.48950195 C-244.75271857 290.00204733 -240.01324258 283.55868051 -235.26123047 277.12304688 C-231.60386703 272.16983199 -227.96664161 267.20294417 -224.3515625 262.21875 C-219.57085526 255.64291554 -214.74922605 249.09683821 -209.93847656 242.54296875 C-199.59018518 228.44720562 -199.59018518 228.44720562 -189.34375 214.27734375 C-184.4218515 207.42530326 -179.49830153 200.5930295 -174.3125 193.9375 C-170.07173919 188.481191 -166.07945706 182.88125369 -162.11694336 177.22070312 C-153.56180182 165.02660642 -144.60845615 153.12055891 -135.64599609 141.22436523 C-131.57845602 135.80896478 -127.63380158 130.31314863 -123.7265625 124.78125 C-121.51407696 121.66655357 -119.21802057 118.6183288 -116.91943359 115.56689453 C-114.35884249 112.14009019 -111.87019681 108.66204693 -109.375 105.1875 C-104.05111942 97.79360906 -98.66819285 90.44529028 -93.25585938 83.1159668 C-89.67471917 78.26608837 -86.11493463 73.40186628 -82.578125 68.51953125 C-80.70159447 65.94761973 -78.81448136 63.38429778 -76.921875 60.82421875 C-75.98601562 59.55771484 -75.98601562 59.55771484 -75.03125 58.265625 C-73.78767231 56.58373713 -72.54293435 54.90270636 -71.296875 53.22265625 C-68.8091951 49.85762496 -66.34591836 46.50629525 -64.078125 42.98828125 C-62.375 40.5 -62.375 40.5 -60.375 39.5 C-59.859375 38.55125 -59.34375 37.6025 -58.8125 36.625 C-49.55074942 20.03527094 -32.87832236 6.7508341 -14.65625 1.4140625 C-9.79794905 0.22019025 -4.98692004 0.02871903 0 0 Z " fill="#FCFCFC" transform="translate(440.375,219.5)"/>
<path d="M0 0 C0.66 0 1.32 0 2 0 C3.38867188 1.62060547 3.38867188 1.62060547 4.96875 3.8671875 C5.53980469 4.67027344 6.11085938 5.47335937 6.69921875 6.30078125 C7.29347656 7.15027344 7.88773437 7.99976563 8.5 8.875 C9.67554814 10.54014737 10.8525659 12.20425847 12.03125 13.8671875 C12.55267578 14.61081543 13.07410156 15.35444336 13.61132812 16.12060547 C15.00474849 18.10374328 15.00474849 18.10374328 17 20 C17.421875 21.890625 17.421875 21.890625 17.75 24.25 C20.69898978 39.75453716 29.01813205 52.35069867 41.8046875 61.55078125 C60.07542984 73.61207201 79.8488909 76.45335555 101.23608398 76.43237305 C103.12005243 76.44141071 105.00401503 76.45174277 106.88796997 76.46325684 C111.95511787 76.49061772 117.02215358 76.50008265 122.08936572 76.50611091 C127.40248147 76.51554952 132.71551519 76.54175697 138.02857971 76.56611633 C148.06849047 76.60963498 158.10838517 76.63827157 168.14836127 76.66143972 C179.58747502 76.68857022 191.02650566 76.73247663 202.46555984 76.77772844 C225.9769947 76.87036491 249.48845563 76.94214138 273 77 C271.29839804 80.58122349 269.22394122 83.23892894 266.625 86.25 C262.60483287 90.97417655 258.816803 95.82814354 255.125 100.8125 C251.18418706 106.12848586 247.16193839 111.35522112 243 116.5 C238.21950403 122.41054576 233.61430054 128.43383242 229.09570312 134.546875 C228.63228516 135.17207031 228.16886719 135.79726563 227.69140625 136.44140625 C227.29123291 136.98482666 226.89105957 137.52824707 226.47875977 138.08813477 C225.74677368 139.03450806 225.74677368 139.03450806 225 140 C224.41414124 141.01505615 223.82828247 142.0301123 223.22467041 143.07592773 C221.32532803 145.31835059 220.28034056 145.9415068 217.36959743 146.5488348 C213.87562647 146.74847079 210.42591254 146.75271774 206.92651367 146.69702148 C205.5822934 146.69696606 204.23807083 146.69954176 202.89385986 146.70454407 C199.24604154 146.71053504 195.59938105 146.67935915 191.95179152 146.64129519 C188.11962428 146.60739794 184.28744841 146.60690882 180.45515442 146.60255432 C174.00806752 146.5905921 167.56140774 146.55679614 161.11450195 146.50756836 C152.07390702 146.43857297 143.03350609 146.40886149 133.9926914 146.38716781 C126.92608969 146.36874989 119.85952518 146.33952814 112.79296875 146.30859375 C112.04479944 146.30542231 111.29663013 146.30225088 110.52578902 146.29898334 C68.3826157 146.11383457 68.3826157 146.11383457 52.4375 142.75 C51.36395264 142.52820068 50.29040527 142.30640137 49.18432617 142.07788086 C32.94045422 138.61165628 17.72286291 132.65588871 3 125 C3 124.34 3 123.68 3 123 C2.28328125 122.90976562 1.5665625 122.81953125 0.828125 122.7265625 C-2.53461978 121.86265293 -4.48742702 120.46712398 -7.25 118.375 C-8.21164062 117.65054688 -9.17328125 116.92609375 -10.1640625 116.1796875 C-11.09992188 115.46039063 -12.03578125 114.74109375 -13 114 C-13.79148437 113.40445313 -14.58296875 112.80890625 -15.3984375 112.1953125 C-28.02845574 102.57877229 -37.72637775 91.85622309 -47 79 C-47.76957031 77.99195313 -48.53914063 76.98390625 -49.33203125 75.9453125 C-51 73 -51 73 -51.03515625 70.5078125 C-49.67180838 67.20490936 -47.6773719 64.6164712 -45.4375 61.875 C-44.52093478 60.71970152 -43.60558675 59.56343641 -42.69140625 58.40625 C-42.23523926 57.83261719 -41.77907227 57.25898438 -41.30908203 56.66796875 C-38.07357112 52.54543787 -35.06136851 48.2522471 -32 44 C-30.73027339 42.24919684 -29.45941898 40.4992111 -28.1875 38.75 C-27.52492188 37.83863281 -26.86234375 36.92726563 -26.1796875 35.98828125 C-24.62586092 33.85803514 -23.06905539 31.73026189 -21.5078125 29.60546875 C-21.06920898 29.00839111 -20.63060547 28.41131348 -20.17871094 27.79614258 C-19.26605793 26.55453654 -18.35264307 25.31349016 -17.43847656 24.07299805 C-14.75113355 20.41800754 -12.09910107 16.74088206 -9.4765625 13.0390625 C-8.88770264 12.21156494 -8.29884277 11.38406738 -7.69213867 10.53149414 C-6.53577921 8.90435301 -5.38475837 7.27340272 -4.23950195 5.63842773 C-3.71573975 4.90309814 -3.19197754 4.16776855 -2.65234375 3.41015625 C-1.95612915 2.42221069 -1.95612915 2.42221069 -1.24584961 1.41430664 C-0.83471924 0.94758545 -0.42358887 0.48086426 0 0 Z " fill="#FCFCFC" transform="translate(437,343)"/>
<path d="M0 0 C3.28754511 0.57889381 4.93672495 1.54828411 7.25 3.9375 C8.03117188 4.72447266 8.03117188 4.72447266 8.828125 5.52734375 C10 7 10 7 10 9 C10.99 9.33 11.98 9.66 13 10 C14.1875 12.5625 14.1875 12.5625 15 15 C9.79910066 20.29681757 4.57132773 25.4630811 -1.0703125 30.2890625 C-3.84107582 32.74573119 -6.402929 35.39359977 -9 38.03125 C-11.56305228 40.55425459 -14.27345824 42.87562817 -17 45.21875 C-19.78885533 47.70257428 -22.37686983 50.36711437 -24.99609375 53.02734375 C-27.58246151 55.57337829 -30.3153528 57.92021557 -33.06640625 60.28515625 C-34.95494597 61.96004299 -36.73155648 63.69947587 -38.5 65.5 C-41.49091336 68.54504754 -44.6461645 71.32273504 -47.88671875 74.09765625 C-51.03308542 76.92996783 -53.92335054 80.00085313 -56.82421875 83.08203125 C-59.12651417 85.11152326 -61.10474411 86.04167537 -64 87 C-66.52516805 84.50434749 -69.04429373 82.00267549 -71.5625 79.5 C-72.61920898 78.45585937 -72.61920898 78.45585937 -73.69726562 77.390625 C-77.78137425 73.32533715 -81.6654215 69.16088457 -85.42553711 64.79492188 C-87.51116724 62.41725825 -89.73457926 60.2058044 -92 58 C-96.21587182 53.83569848 -100.17993208 49.52842489 -104 45 C-99.45200375 39.40246616 -94.47668152 34.6856053 -89 30 C-81.4295774 33.24690811 -75.95123741 40.93736837 -70.70703125 47.078125 C-68.36727811 49.71235509 -65.84481518 52.13566917 -63.28515625 54.5546875 C-62 56 -62 56 -62 58 C-51.69088849 49.15472004 -41.83245129 39.80186848 -31.9375 30.5 C-31.21119385 29.81752197 -30.4848877 29.13504395 -29.73657227 28.43188477 C-29.04877686 27.78405029 -28.36098145 27.13621582 -27.65234375 26.46875 C-27.01022949 25.86417969 -26.36811523 25.25960938 -25.70654297 24.63671875 C-24.31450346 23.30163536 -22.96497375 21.92234499 -21.62890625 20.53125 C-20 19 -20 19 -18 19 C-18 18.34 -18 17.68 -18 17 C-16.56640625 15.5546875 -16.56640625 15.5546875 -14.5625 13.875 C-13.4796875 12.95267578 -13.4796875 12.95267578 -12.375 12.01171875 C-11.199375 11.01591797 -11.199375 11.01591797 -10 10 C-8.34908096 8.56834364 -6.70312845 7.13093753 -5.0625 5.6875 C-4.31097656 5.03136719 -3.55945313 4.37523437 -2.78515625 3.69921875 C-0.91375803 2.11045152 -0.91375803 2.11045152 0 0 Z " fill="#F8FCFD" transform="translate(686,241)"/>
<path d="M0 0 C3.96 0 7.92 0 12 0 C12 19.14 12 38.28 12 58 C8.04 58 4.08 58 0 58 C-0.33 57.01 -0.66 56.02 -1 55 C-1.51175781 55.48210938 -2.02351562 55.96421875 -2.55078125 56.4609375 C-7.67112039 59.67850308 -14.21740196 58.81840489 -20 58 C-25.38359797 55.62618826 -28.8561715 51.92935281 -31.5625 46.75 C-33.77376155 40.73045466 -34.23593711 34.62807345 -32.15234375 28.51171875 C-29.3506612 22.8608675 -25.41613178 19.1726295 -20 16 C-17.16511195 15.05503732 -15.14441383 14.7738001 -12.1875 14.6875 C-11.35605469 14.65011719 -10.52460937 14.61273437 -9.66796875 14.57421875 C-7 15 -7 15 -1 19 C-0.67 12.73 -0.34 6.46 0 0 Z " fill="#F4F4F4" transform="translate(690,606)"/>
<path d="M0 0 C3.96 0 7.92 0 12 0 C12 18.48 12 36.96 12 56 C8.37 56 4.74 56 1 56 C0.67 55.01 0.34 54.02 0 53 C-0.68578125 53.64710938 -1.3715625 54.29421875 -2.078125 54.9609375 C-7.25588464 58.57429383 -12.93882355 57.88028172 -19 57 C-24.07279051 54.97802857 -28.98165849 51.41903254 -31.40234375 46.375 C-33.10476198 39.60983476 -33.43392395 31.64373826 -30.859375 25.1015625 C-27.36751724 19.56972467 -23.23437344 16.07812448 -17 14 C-14.73046875 13.76171875 -14.73046875 13.76171875 -12.1875 13.6875 C-11.35605469 13.65011719 -10.52460938 13.61273437 -9.66796875 13.57421875 C-7 14 -7 14 -1 18 C-0.67 12.06 -0.34 6.12 0 0 Z " fill="#F7F7F7" transform="translate(339,607)"/>
<path d="M0 0 C2.67877793 1.39090392 4.94730508 2.75323626 7.25 4.6875 C7.848125 4.048125 8.44625 3.40875 9.0625 2.75 C13.44697597 -1.38393449 18.98009336 -0.82464523 24.71484375 -0.7890625 C29.32504463 -0.16757686 31.53346604 1.37784721 34.796875 4.5703125 C38.03740749 9.29173349 38.49494937 14.00822174 38.4453125 19.6171875 C38.43886719 20.90625 38.43242187 22.1953125 38.42578125 23.5234375 C38.40907463 24.86979442 38.39214479 26.21614859 38.375 27.5625 C38.36495664 28.93228517 38.35583317 30.30207742 38.34765625 31.671875 C38.32414486 35.01049258 38.28827558 38.34901905 38.25 41.6875 C33.96 41.6875 29.67 41.6875 25.25 41.6875 C25.21261719 39.86863281 25.17523438 38.04976562 25.13671875 36.17578125 C25.07105744 33.7838336 25.00461016 31.39190744 24.9375 29 C24.90366211 27.20272461 24.90366211 27.20272461 24.86914062 25.36914062 C24.83369141 24.21220703 24.79824219 23.05527344 24.76171875 21.86328125 C24.73553467 20.80020752 24.70935059 19.73713379 24.68237305 18.6418457 C24.19094351 15.28397512 23.34359576 13.35017563 21.25 10.6875 C17.69304044 10.17936292 15.39012223 9.88941444 12.375 12 C10.17492984 15.30010525 10.07622948 18.37930411 9.93359375 22.23046875 C9.87075195 23.84018555 9.87075195 23.84018555 9.80664062 25.48242188 C9.76732422 26.60197266 9.72800781 27.72152344 9.6875 28.875 C9.62272461 30.57172852 9.62272461 30.57172852 9.55664062 32.30273438 C9.4505099 35.09751025 9.34974603 37.89248898 9.25 40.6875 C5.29 40.6875 1.33 40.6875 -2.75 40.6875 C-2.80607422 38.06748047 -2.80607422 38.06748047 -2.86328125 35.39453125 C-2.92894406 33.09633281 -2.99539129 30.79815668 -3.0625 28.5 C-3.08505859 27.34951172 -3.10761719 26.19902344 -3.13085938 25.01367188 C-3.1840332 23.34594727 -3.1840332 23.34594727 -3.23828125 21.64453125 C-3.26446533 20.62335205 -3.29064941 19.60217285 -3.31762695 18.55004883 C-3.80597919 15.31688678 -4.90690298 13.35881058 -6.75 10.6875 C-8.20947705 10.74756078 -9.66779272 10.8363689 -11.125 10.9375 C-11.93710937 10.98390625 -12.74921875 11.0303125 -13.5859375 11.078125 C-15.8617104 11.46619362 -15.8617104 11.46619362 -16.859375 13.34570312 C-17.960135 16.24002601 -18.07303559 18.67071023 -18.1640625 21.765625 C-18.22207031 23.50585938 -18.22207031 23.50585938 -18.28125 25.28125 C-18.3121875 26.4878125 -18.343125 27.694375 -18.375 28.9375 C-18.43300781 30.77054688 -18.43300781 30.77054688 -18.4921875 32.640625 C-18.58641804 35.65600226 -18.66929631 38.6717304 -18.75 41.6875 C-23.04 41.6875 -27.33 41.6875 -31.75 41.6875 C-31.75 27.8275 -31.75 13.9675 -31.75 -0.3125 C-27.79 -0.3125 -23.83 -0.3125 -19.75 -0.3125 C-19.42 0.6775 -19.09 1.6675 -18.75 2.6875 C-17.76 2.0275 -16.77 1.3675 -15.75 0.6875 C-10.24889876 -2.42905131 -5.85821151 -2.05037403 0 0 Z " fill="#F2F2F2" transform="translate(441.75,622.3125)"/>
<path d="M0 0 C4.62 0 9.24 0 14 0 C16.64272613 5.79931568 19.2737635 11.6023574 21.85791016 17.42797852 C22.67083792 19.25871687 23.48583794 21.08853566 24.30224609 22.91772461 C25.72652688 26.10996588 27.1447695 29.30484488 28.5625 32.5 C29.04396484 33.57636719 29.52542969 34.65273438 30.02148438 35.76171875 C32.68104479 41.76859385 35.04325557 47.72787645 37 54 C32.38 54 27.76 54 23 54 C21.02 48.555 21.02 48.555 19 43 C10.75 42.67 2.5 42.34 -6 42 C-6.33 43.65 -6.66 45.3 -7 47 C-7.89305874 49.39228689 -8.94896026 51.66943362 -10 54 C-14.29 54 -18.58 54 -23 54 C-22.2943623 50.47181148 -21.76807494 48.13350513 -20.36328125 44.99609375 C-20.03626221 44.26156982 -19.70924316 43.5270459 -19.37231445 42.77026367 C-18.8477063 41.61554565 -18.8477063 41.61554565 -18.3125 40.4375 C-17.95309326 39.63610596 -17.59368652 38.83471191 -17.22338867 38.0090332 C-15.19096752 33.51096309 -13.06718507 29.07943862 -10.8125 24.6875 C-8.2040774 19.59115259 -6.13621344 14.38384304 -4.17578125 9.0078125 C-2.97084158 5.9254087 -1.48007384 2.96014767 0 0 Z " fill="#F3F3F3" transform="translate(169,610)"/>
<path d="M0 0 C5.75888323 5.09890031 8.96293792 10.03836615 9.4375 17.75 C9.29334994 23.44816717 7.54744994 27.56357096 4 32 C-3.26459324 38.61175216 -9.16798381 39.59780125 -18.765625 39.421875 C-24.18762185 39.09456285 -27.40886709 36.98906925 -31 33 C-31.52464844 32.50242187 -32.04929687 32.00484375 -32.58984375 31.4921875 C-36.19990494 27.67212275 -37.21826261 23.15193937 -37.4375 18.0625 C-37.20283036 11.86722163 -35.38639107 7.52588784 -31.12890625 3.01953125 C-21.83345051 -5.50276749 -11.03934793 -6.63840186 0 0 Z " fill="#F2F2F2" transform="translate(645,625)"/>
<path d="M0 0 C3.96 0 7.92 0 12 0 C12 6.27 12 12.54 12 19 C14.64 17.68 17.28 16.36 20 15 C25.84589736 14.37044182 29.84765016 15.18078971 35 18 C38.6223337 21.05885957 40.58185828 23.50236315 42 28 C42.22705078 31.3215332 42.22705078 31.3215332 42.1953125 35.05078125 C42.1924826 35.70958786 42.18965271 36.36839447 42.18673706 37.04716492 C42.17560924 39.13580062 42.15051948 41.22399556 42.125 43.3125 C42.11496059 44.73501982 42.10583642 46.1575464 42.09765625 47.58007812 C42.07569447 51.05352681 42.04121646 54.52672033 42 58 C38.04 58 34.08 58 30 58 C29.94392578 55.25429688 29.94392578 55.25429688 29.88671875 52.453125 C29.8210647 50.05206265 29.75461717 47.6510219 29.6875 45.25 C29.66494141 44.0434375 29.64238281 42.836875 29.61914062 41.59375 C29.58369141 40.43359375 29.54824219 39.2734375 29.51171875 38.078125 C29.48553467 37.00981445 29.45935059 35.94150391 29.43237305 34.84082031 C28.94978972 31.67010341 28.22812316 30.27544555 26 28 C22.23398587 26.74466196 20.44249774 26.84136874 16.6875 28.1875 C13.92738488 29.6678511 13.92738488 29.6678511 13.35180664 31.76074219 C12.93739477 34.3984838 12.78296583 36.97177494 12.68359375 39.640625 C12.64169922 40.71054687 12.59980469 41.78046875 12.55664062 42.8828125 C12.49766602 44.54957031 12.49766602 44.54957031 12.4375 46.25 C12.39431641 47.37664063 12.35113281 48.50328125 12.30664062 49.6640625 C12.20068067 52.44256799 12.0998474 55.22126814 12 58 C8.04 58 4.08 58 0 58 C0 38.86 0 19.72 0 0 Z " fill="#F5F5F5" transform="translate(210,606)"/>
<path d="M0 0 C1.39966014 1.14785213 2.73279776 2.37617847 4.046875 3.62109375 C2.78930922 7.39379108 1.37220069 8.5049774 -1.953125 10.62109375 C-5.13484531 10.53951118 -6.88957254 9.65804286 -9.640625 8.05859375 C-14.13628531 6.10764683 -18.11645273 5.99127666 -22.953125 6.62109375 C-25.8785894 7.97202255 -25.8785894 7.97202255 -27.953125 9.62109375 C-28.613125 9.62109375 -29.273125 9.62109375 -29.953125 9.62109375 C-32.50998209 15.92192016 -33.98494479 21.80412704 -32.953125 28.62109375 C-31.20626922 32.31636559 -29.66765559 34.09826649 -26.390625 36.49609375 C-21.10800486 38.22495125 -15.05929123 39.06676738 -9.86328125 36.6484375 C-9.27417969 36.26816406 -8.68507813 35.88789062 -8.078125 35.49609375 C-4.953125 33.62109375 -4.953125 33.62109375 -2.265625 34.05859375 C0.45933686 35.8997842 2.14967074 37.95095442 4.046875 40.62109375 C-1.16849931 46.310593 -6.7021326 50.06752527 -14.546875 50.89453125 C-23.56926554 51.20982984 -31.51708868 49.5783198 -38.4140625 43.42578125 C-45.59957342 35.56581804 -47.29704287 28.93692396 -47.16796875 18.3671875 C-46.57063544 10.73218178 -43.085433 5.26843651 -37.35546875 0.2109375 C-26.70727822 -8.10871933 -10.89264843 -7.69020979 0 0 Z " fill="#F1F1F1" transform="translate(601.953125,614.37890625)"/>
<path d="M0 0 C4.22044864 2.90155844 7.79031016 6.45861276 9.75 11.203125 C9.75 14.833125 9.75 18.463125 9.75 22.203125 C-0.48 22.203125 -10.71 22.203125 -21.25 22.203125 C-20.26 23.523125 -19.27 24.843125 -18.25 26.203125 C-18.25 26.863125 -18.25 27.523125 -18.25 28.203125 C-15.17748989 29.09422422 -12.38352607 29.36652224 -9.1875 29.390625 C-8.33027344 29.40480469 -7.47304688 29.41898438 -6.58984375 29.43359375 C-3.97801691 29.36158585 -3.97801691 29.36158585 -1.25 27.203125 C1.60047472 27.3870266 2.79704758 28.24000013 5.0625 30.015625 C6.75 32.203125 6.75 32.203125 6.9375 34.203125 C5.04750627 37.38627234 2.07383529 38.81574416 -1.25 40.203125 C-4.22823627 40.79292921 -7.09467193 40.87158431 -10.125 40.828125 C-11.3164563 40.81555664 -11.3164563 40.81555664 -12.53198242 40.80273438 C-19.1218332 40.54836789 -23.6370552 39.12289411 -28.25 34.203125 C-28.79140625 33.63464844 -29.3328125 33.06617188 -29.890625 32.48046875 C-33.72980226 27.51274213 -33.93650154 22.45341548 -33.66015625 16.32421875 C-32.79589689 9.74761657 -30.5047872 5.92109998 -25.3125 1.828125 C-17.2240224 -3.63345253 -8.77364371 -5.02361857 0 0 Z " fill="#F2F2F2" transform="translate(393.25,623.796875)"/>
<path d="M0 0 C2.07515757 1.47716369 3.67650953 2.98700112 5.359375 4.89453125 C5.88144531 5.41273438 6.40351562 5.9309375 6.94140625 6.46484375 C11.76962105 11.97140278 10.359375 14.68272543 10.359375 22.89453125 C0.129375 22.89453125 -10.100625 22.89453125 -20.640625 22.89453125 C-17.98401288 27.86572016 -17.98401288 27.86572016 -13.640625 29.89453125 C-11.15326246 30.2087614 -11.15326246 30.2087614 -8.578125 30.14453125 C-7.72089844 30.1496875 -6.86367188 30.15484375 -5.98046875 30.16015625 C-3.37009702 30.04445613 -3.37009702 30.04445613 -0.640625 27.89453125 C3.15281975 28.13926962 4.89517977 30.1663151 7.359375 32.89453125 C5.83450285 37.16417327 3.26010719 38.75726423 -0.640625 40.89453125 C-3.59452566 41.50206103 -6.44393483 41.56221925 -9.453125 41.51953125 C-10.65134888 41.50696289 -10.65134888 41.50696289 -11.8737793 41.49414062 C-18.4773032 41.24070335 -23.02431953 39.83906027 -27.640625 34.89453125 C-31.50953377 30.66636666 -32.93648923 27.07614848 -33.078125 21.33203125 C-32.67534656 13.65804207 -31.18967033 8.44357658 -25.640625 2.89453125 C-19.03311212 -2.68514629 -7.93311279 -3.32111083 0 0 Z " fill="#F4F4F4" transform="translate(743.640625,623.10546875)"/>
<path d="M0 0 C3.30993594 2.0041814 4.96383762 3.72895955 7.12890625 6.9765625 C8.06258882 11.17316179 8.24698767 15.17946432 8.2265625 19.46875 C8.22333984 20.66757812 8.22011719 21.86640625 8.21679688 23.1015625 C8.20422852 24.9578125 8.20422852 24.9578125 8.19140625 26.8515625 C8.18689453 28.11226562 8.18238281 29.37296875 8.17773438 30.671875 C8.16598585 33.77348636 8.14955792 36.87499975 8.12890625 39.9765625 C4.49890625 39.9765625 0.86890625 39.9765625 -2.87109375 39.9765625 C-3.20109375 39.3165625 -3.53109375 38.6565625 -3.87109375 37.9765625 C-4.69673828 38.70939453 -4.69673828 38.70939453 -5.5390625 39.45703125 C-10.5141468 42.69875285 -17.21581004 41.26558029 -22.80859375 40.2890625 C-26.99498821 38.49489345 -28.86769624 35.98335751 -30.87109375 31.9765625 C-31.24875752 26.97251752 -30.98309809 23.97771094 -27.87109375 19.9765625 C-22.97218464 15.55174137 -17.96044645 15.84126075 -11.62109375 15.9140625 C-10.87601562 15.91857422 -10.1309375 15.92308594 -9.36328125 15.92773438 C-7.53251735 15.93947004 -5.70179502 15.957404 -3.87109375 15.9765625 C-5.02169772 12.27848481 -5.02169772 12.27848481 -7.7265625 9.6484375 C-13.54319701 7.82610392 -20.25517961 10.18424948 -25.87109375 11.9765625 C-29.87109375 5.2265625 -29.87109375 5.2265625 -29.87109375 2.9765625 C-21.26335673 -2.12431869 -9.55979012 -3.4077075 0 0 Z " fill="#F5F5F5" transform="translate(290.87109375,623.0234375)"/>
<path d="M0 0 C4.29 0 8.58 0 13 0 C13.70125 1.69125 14.4025 3.3825 15.125 5.125 C18.03218215 12.10556918 21.0101571 19.05452302 24 26 C26.10206631 22.68314183 27.66065574 19.52247237 28.9375 15.8125 C30.81508014 10.47698269 32.87320793 5.24102331 35 0 C38.96 0 42.92 0 47 0 C45.68963967 5.92336353 43.79575764 11.13013091 41.25 16.625 C40.53177051 18.20667657 39.81433151 19.78871233 39.09765625 21.37109375 C38.7433252 22.14952637 38.38899414 22.92795898 38.02392578 23.72998047 C35.32268418 29.71856997 32.76670222 35.77486197 30.23242188 41.83569336 C27.67904669 47.89836753 24.92788658 53.72074359 19 57 C12.69104726 57.78250577 6.9593733 57.11888829 1 55 C1 50.66905042 1.96564469 48.72965139 4 45 C4.515625 45.165 5.03125 45.33 5.5625 45.5 C8.77682668 46.15934906 11.72846085 46.18175217 15 46 C15.66 45.34 16.32 44.68 17 44 C16.68851617 39.1436839 14.87632995 35.1724601 12.75 30.875 C12.1112999 29.5478267 11.47460302 28.21968762 10.83984375 26.890625 C10.52644043 26.23513672 10.21303711 25.57964844 9.89013672 24.90429688 C8.17502765 21.23511126 6.66280075 17.48335283 5.1328125 13.734375 C3.73689239 10.36491266 2.23245663 7.05107242 0.69921875 3.7421875 C0 2 0 2 0 0 Z " fill="#F2F2F2" transform="translate(483,622)"/>
<path d="M0 0 C-3.46009407 3.91844419 -7.44836177 6.2047767 -11.9375 8.75 C-18.47092553 12.49378842 -18.47092553 12.49378842 -24.8671875 16.46484375 C-25.45250244 16.84092773 -26.03781738 17.21701172 -26.64086914 17.60449219 C-28.2203815 18.62781873 -29.79209165 19.66315903 -31.36328125 20.69921875 C-34 22 -34 22 -36.21484375 21.90234375 C-38.82100283 20.58500732 -39.93123185 18.35912913 -41.5 15.9765625 C-43.72442338 13.04542128 -46.4726388 10.87539585 -49.328125 8.578125 C-51 7 -51 7 -52 4 C-35.48663952 -1.67089485 -17.20995982 -0.14126119 0 0 Z " fill="#F2F5F6" transform="translate(538,221)"/>
<path d="M0 0 C3.24056971 0.75950853 5.46986764 2.37059146 8 4.46875 C9.85598295 8.18071591 9.59092637 12.42757614 9 16.46875 C6.5625 19.53125 6.5625 19.53125 4 21.46875 C3.67 21.79875 3.34 22.12875 3 22.46875 C-4.07616708 23.05843059 -4.07616708 23.05843059 -7.9375 20.59375 C-11.48169289 16.94215732 -11.40736187 13.9517189 -11.3359375 9.0234375 C-10.49945312 2.66226562 -6.59920212 -0.49993955 0 0 Z " fill="#060606" transform="translate(632,631.53125)"/>
<path d="M0 0 C3.20325006 0.69055572 4.96950326 2.0730895 7.15625 4.46484375 C8.39692966 8.18688274 8.70336324 11.59857683 8.15625 15.46484375 C5.15625 20.96484375 5.15625 20.96484375 2.15625 22.46484375 C-3.53505337 23.01208446 -6.40492185 22.05818082 -10.84375 18.46484375 C-12.71493456 14.72247464 -12.37342317 10.54021147 -11.84375 6.46484375 C-9.60258044 0.8892512 -5.63224154 -0.38486984 0 0 Z " fill="#070707" transform="translate(330.84375,631.53515625)"/>
<path d="M0 0 C4.38255394 0.9048998 6.49454791 2.74572811 8.9296875 6.3984375 C9.54383169 10.65756737 9.36695905 14.37084937 7.6796875 18.3359375 C4.79309313 21.73799515 2.92927085 22.28939204 -1.5078125 22.7734375 C-5.65186814 22.33722112 -7.16161522 21.30713478 -10.0703125 18.3984375 C-11.94025334 14.65855582 -11.60584733 10.47099303 -11.0703125 6.3984375 C-8.89649338 1.21784053 -5.38648141 -0.42685324 0 0 Z " fill="#050505" transform="translate(681.0703125,631.6015625)"/>
<path d="M0 0 C0.99 0.33 1.98 0.66 3 1 C2.31292969 1.40992188 1.62585938 1.81984375 0.91796875 2.2421875 C0.01691406 2.78101563 -0.88414062 3.31984375 -1.8125 3.875 C-2.70582031 4.40867187 -3.59914063 4.94234375 -4.51953125 5.4921875 C-6.37294724 6.61883092 -8.19529917 7.79686611 -10 9 C-10.4745831 11.01076785 -10.4745831 11.01076785 -10.43237305 13.35791016 C-10.45216721 14.25869293 -10.47196136 15.15947571 -10.49235535 16.08755493 C-10.49874527 17.06155243 -10.50513519 18.03554993 -10.51171875 19.0390625 C-10.53864555 20.53305069 -10.53864555 20.53305069 -10.56611633 22.05722046 C-10.62040998 25.24643689 -10.65417617 28.43550209 -10.6875 31.625 C-10.72065624 33.78387531 -10.75514429 35.9427306 -10.79101562 38.1015625 C-10.876147 43.40090603 -10.94441575 48.70026869 -11 54 C-11.8544445 54.00879936 -11.8544445 54.00879936 -12.72615051 54.01777649 C-18.64727196 54.08163964 -24.56784629 54.16604038 -30.48852539 54.26245117 C-32.69906406 54.29573508 -34.90968843 54.32375612 -37.12036133 54.34643555 C-40.29545666 54.37991759 -43.46976417 54.43223052 -46.64453125 54.48828125 C-47.63524124 54.49467117 -48.62595123 54.5010611 -49.64668274 54.50764465 C-50.56741074 54.52743881 -51.48813873 54.54723297 -52.43676758 54.56762695 C-53.2472908 54.57873001 -54.05781403 54.58983307 -54.89289856 54.60127258 C-57.51379587 55.09722574 -58.34703124 55.9471402 -60 58 C-61.12662074 59.80705504 -62.20506704 61.64451157 -63.25 63.5 C-66.16976158 68.60495313 -69.23981599 73.57458131 -72.43359375 78.51171875 C-73.79874438 80.68029968 -75.04080893 82.86753682 -76.25 85.125 C-78 88 -78 88 -81 89 C-83.6875 87.0625 -83.6875 87.0625 -86 85 C-84.68 85 -83.36 85 -82 85 C-82 85.66 -82 86.32 -82 87 C-81.01 87 -80.02 87 -79 87 C-78.67 85.02 -78.34 83.04 -78 81 C-77.34 81 -76.68 81 -76 81 C-75.731875 80.43023437 -75.46375 79.86046875 -75.1875 79.2734375 C-73.951742 76.90761133 -72.53250839 74.80882445 -71 72.625 C-68.66683998 69.18216632 -67.04304316 66.06786834 -66 62 C-65.34 62 -64.68 62 -64 62 C-64 61.01 -64 60.02 -64 59 C-63.34 59 -62.68 59 -62 59 C-61.87625 57.865625 -61.7525 56.73125 -61.625 55.5625 C-61.41875 54.386875 -61.2125 53.21125 -61 52 C-58.60329316 50.80164658 -57.22101577 50.91259797 -54.55029297 50.97827148 C-53.62948944 50.99836777 -52.70868591 51.01846405 -51.75997925 51.03916931 C-50.76410797 51.06620438 -49.76823669 51.09323944 -48.7421875 51.12109375 C-47.21490524 51.15651024 -47.21490524 51.15651024 -45.6567688 51.19264221 C-42.39604095 51.26938121 -39.13554451 51.35336156 -35.875 51.4375 C-33.66798018 51.49071043 -31.46094897 51.54345089 -29.25390625 51.59570312 C-23.83579347 51.72501016 -18.41785337 51.86026722 -13 52 C-13.01571045 50.71311279 -13.0314209 49.42622559 -13.04760742 48.1003418 C-13.10185775 43.33136236 -13.1363323 38.56241026 -13.16479492 33.79321289 C-13.17989271 31.72806209 -13.20037274 29.6629434 -13.22631836 27.59790039 C-13.26265795 24.63159261 -13.2797163 21.66570829 -13.29296875 18.69921875 C-13.30845261 17.7741301 -13.32393646 16.84904144 -13.33988953 15.8959198 C-13.34011612 15.03525406 -13.34034271 14.17458832 -13.34057617 13.2878418 C-13.35056892 12.15199898 -13.35056892 12.15199898 -13.36076355 10.99320984 C-12.9011217 8.45369979 -12.02330801 7.55435164 -10 6 C-9.34 6 -8.68 6 -8 6 C-8 5.34 -8 4.68 -8 4 C-6.865625 3.525625 -5.73125 3.05125 -4.5625 2.5625 C-1.24259834 1.36377917 -1.24259834 1.36377917 0 0 Z " fill="#477DAE" transform="translate(749,323)"/>
<path d="M0 0 C0.495 1.98 0.495 1.98 1 4 C-13.52 4 -28.04 4 -43 4 C-43 18.85 -43 33.7 -43 49 C-54.33333333 49 -65.66666667 49 -77 49 C-77 48.67 -77 48.34 -77 48 C-72.85076942 47.21420207 -68.94706569 46.88145017 -64.7265625 46.90234375 C-63.16542725 46.90609009 -63.16542725 46.90609009 -61.57275391 46.90991211 C-60.26999512 46.91901611 -58.96723633 46.92812012 -57.625 46.9375 C-53.45875 46.958125 -49.2925 46.97875 -45 47 C-45 32.15 -45 17.3 -45 2 C-23.0625 1.5625 -23.0625 1.5625 -16.12915039 1.43188477 C-14.32697745 1.39377902 -12.52481211 1.35531137 -10.72265625 1.31640625 C-9.77773315 1.29993042 -8.83281006 1.28345459 -7.85925293 1.26647949 C-6.96605347 1.24629761 -6.072854 1.22611572 -5.15258789 1.20532227 C-4.37315323 1.18977798 -3.59371857 1.1742337 -2.79066467 1.15821838 C-0.97706647 1.19110881 -0.97706647 1.19110881 0 0 Z " fill="#4D84BA" transform="translate(583,173)"/>
<path d="M0 0 C0.40088333 0.64874084 0.80176666 1.29748169 1.21479797 1.96588135 C2.8005948 4.16396229 2.8005948 4.16396229 5.10710144 4.51898193 C6.32288628 4.5323056 6.32288628 4.5323056 7.56323242 4.54589844 C8.49679565 4.56571777 9.43035889 4.58553711 10.39221191 4.60595703 C11.85902405 4.60764893 11.85902405 4.60764893 13.35546875 4.609375 C14.25672485 4.62500488 15.15798096 4.64063477 16.08654785 4.65673828 C19.4532645 4.70934102 22.82044691 4.72760554 26.1875 4.75 C33.715625 4.8325 41.24375 4.915 49 5 C49 20.18 49 35.36 49 51 C50.65 51.66 52.3 52.32 54 53 C55.8125 54.625 55.8125 54.625 57 56 C49.47114422 53.77556534 49.47114422 53.77556534 47 51 C46.42226302 47.69703166 46.53647867 44.42567912 46.609375 41.08203125 C46.61503479 40.10965012 46.62069458 39.13726898 46.62652588 38.13542175 C46.64893071 35.027282 46.69913519 31.92029176 46.75 28.8125 C46.77005967 26.70639685 46.78831136 24.60027564 46.8046875 22.49414062 C46.84880907 17.32898364 46.9178654 12.16468676 47 7 C46.4406778 7.00666183 45.88135559 7.01332367 45.30508423 7.02018738 C39.49804416 7.08641687 33.69111087 7.13174871 27.88378906 7.16479492 C25.71479944 7.179907 23.5458405 7.20039735 21.37695312 7.22631836 C18.26424604 7.26259534 15.15194195 7.2797019 12.0390625 7.29296875 C11.065065 7.30845261 10.0910675 7.32393646 9.08755493 7.33988953 C8.18677216 7.34011612 7.28598938 7.34034271 6.35791016 7.34057617 C5.16544174 7.35056892 5.16544174 7.35056892 3.94888306 7.36076355 C2.98418594 7.18218559 2.98418594 7.18218559 2 7 C0 4 0 4 0 0 Z " fill="#4787C0" transform="translate(689,170)"/>
<path d="M0 0 C2.30908281 2.84852666 3.76018236 5.51562086 5.0625 8.9375 C5.54396484 10.18853516 5.54396484 10.18853516 6.03515625 11.46484375 C6.35355469 12.30144531 6.67195312 13.13804687 7 14 C7.66 15.65 8.32 17.3 9 19 C3.72 19 -1.56 19 -7 19 C-4.91923185 12.54961873 -2.57778144 6.26780359 0 0 Z " fill="#0C0C0C" transform="translate(175,623)"/>
<path d="M0 0 C0.33 0 0.66 0 1 0 C1 14.52 1 29.04 1 44 C15.52 44 30.04 44 45 44 C46.32 46.64 47.64 49.28 49 52 C49.98866506 53.34175973 50.9838154 54.67896002 52 56 C52 56.66 52 57.32 52 58 C52.66 58 53.32 58 54 58 C55.06775224 59.96466413 56.06553465 61.96855359 57 64 C56.67 64.66 56.34 65.32 56 66 C54.78924158 64.35594986 53.58154858 62.70964217 52.375 61.0625 C51.31720426 59.62170924 50.25647315 58.18261254 49.16162109 56.76977539 C48 55 48 55 47.13916016 52.65014648 C45.7730634 49.52547121 44.76906102 48.04475017 42 46 C35.11334314 44.28749605 27.65009057 44.839819 20.625 44.9375 C13.81875 44.958125 7.0125 44.97875 0 45 C0 30.15 0 15.3 0 0 Z " fill="#3687D3" transform="translate(539,331)"/>
<path d="M0 0 C1.09054687 0.02320313 2.18109375 0.04640625 3.3046875 0.0703125 C4.40039062 0.08835937 5.49609375 0.10640625 6.625 0.125 C7.46804688 0.14820313 8.31109375 0.17140625 9.1796875 0.1953125 C8.58987517 6.44732322 8.58987517 6.44732322 7.1171875 9.1328125 C3.93037929 10.880417 0.72044562 10.73268328 -2.8203125 10.1953125 C-4.8828125 9.0078125 -4.8828125 9.0078125 -5.8203125 7.1953125 C-5.50144638 2.83747553 -4.71538346 0.3265501 0 0 Z " fill="#101010" transform="translate(277.8203125,645.8046875)"/>
<path d="M0 0 C3.4375 1.75 3.4375 1.75 6 4 C6 5.32 6 6.64 6 8 C-0.27 8 -6.54 8 -13 8 C-10.14118217 0.85295543 -7.78436268 -0.93949205 0 0 Z " fill="#060606" transform="translate(385,631)"/>
<path d="M0 0 C2.875 1.1875 2.875 1.1875 5 3 C5.33 4.65 5.66 6.3 6 8 C-0.27 8 -6.54 8 -13 8 C-10.11385509 0.78463774 -7.81418277 -0.82254556 0 0 Z " fill="#040404" transform="translate(736,631)"/>
<path d="M0 0 C0.66 0.33 1.32 0.66 2 1 C-1.98761814 7.94500059 -6.0836474 14.78730505 -10.43359375 21.51171875 C-11.79874438 23.68029968 -13.04080893 25.86753682 -14.25 28.125 C-16 31 -16 31 -19 32 C-21.6875 30.0625 -21.6875 30.0625 -24 28 C-22.68 28 -21.36 28 -20 28 C-20 28.66 -20 29.32 -20 30 C-19.01 30 -18.02 30 -17 30 C-16.67 28.02 -16.34 26.04 -16 24 C-15.34 24 -14.68 24 -14 24 C-13.731875 23.43023437 -13.46375 22.86046875 -13.1875 22.2734375 C-11.951742 19.90761133 -10.53250839 17.80882445 -9 15.625 C-6.66683998 12.18216632 -5.04304316 9.06786834 -4 5 C-3.34 5 -2.68 5 -2 5 C-2 4.01 -2 3.02 -2 2 C-1.34 2 -0.68 2 0 2 C0 1.34 0 0.68 0 0 Z " fill="#4278AB" transform="translate(687,380)"/>
<path d="M0 0 C23.265 0.495 23.265 0.495 47 1 C47 1.33 47 1.66 47 2 C32.15 2 17.3 2 2 2 C1.34 3.32 0.68 4.64 0 6 C-1.125 2.25 -1.125 2.25 0 0 Z " fill="#3F8DD7" transform="translate(689,374)"/>
<path d="M0 0 C8.67102935 4.51247446 16.84002312 9.63943124 25 15 C21.86650268 16.04449911 21.01031744 15.93423645 18 15 C18 14.01 18 13.02 18 12 C15.525 11.505 15.525 11.505 13 11 C13 10.34 13 9.68 13 9 C12.113125 8.71125 11.22625 8.4225 10.3125 8.125 C9.219375 7.75375 8.12625 7.3825 7 7 C6.0925 6.731875 5.185 6.46375 4.25 6.1875 C1.29978526 4.63044222 1.08437562 3.06089663 0 0 Z " fill="#427EB7" transform="translate(611,142)"/>
<path d="M0 0 C1.98 0 3.96 0 6 0 C6.38091797 0.79664063 6.38091797 0.79664063 6.76953125 1.609375 C8.59750746 5.36117635 10.44864311 8.68323605 13 12 C13 12.66 13 13.32 13 14 C13.66 14 14.32 14 15 14 C16.06775224 15.96466413 17.06553465 17.96855359 18 20 C17.67 20.66 17.34 21.32 17 22 C12.60182651 16.02786087 8.28386664 10.05151361 4.32421875 3.77734375 C2.94833355 1.7230263 2.94833355 1.7230263 0 0 Z " fill="#538CC0" transform="translate(578,375)"/>
<path d="M0 0 C0.99386719 0.10183594 1.98773437 0.20367187 3.01171875 0.30859375 C3.77097656 0.39238281 4.53023437 0.47617187 5.3125 0.5625 C5.47105469 1.51962891 5.47105469 1.51962891 5.6328125 2.49609375 C5.85710938 3.17800781 6.08140625 3.85992187 6.3125 4.5625 C8.28996603 5.29330266 10.29322489 5.95671747 12.3125 6.5625 C14.1875 8.1875 14.1875 8.1875 15.3125 9.5625 C10.72539017 9.5625 7.36071402 6.72478367 3.58203125 4.31835938 C-0.16783107 2.04827499 -0.16783107 2.04827499 -4.4453125 1.81640625 C-5.55519531 2.18572266 -5.55519531 2.18572266 -6.6875 2.5625 C-7.6775 2.5625 -8.6675 2.5625 -9.6875 2.5625 C-7.67365734 -1.46518533 -3.87177731 -0.40995289 0 0 Z " fill="#417BB3" transform="translate(639.6875,392.4375)"/>
<path d="M0 0 C0.88336837 2.4667645 1.1312406 3.63859372 0.22265625 6.140625 C-0.16019531 6.83671875 -0.54304687 7.5328125 -0.9375 8.25 C-1.31777344 8.95640625 -1.69804688 9.6628125 -2.08984375 10.390625 C-2.39019531 10.92171875 -2.69054687 11.4528125 -3 12 C-3.66 12 -4.32 12 -5 12 C-5.28875 12.5775 -5.5775 13.155 -5.875 13.75 C-6.91666667 15.83333333 -7.95833333 17.91666667 -9 20 C-9.66 20 -10.32 20 -11 20 C-9.66353101 16.41903045 -8.06141981 13.25523836 -6.0625 10 C-5.30646484 8.7625 -5.30646484 8.7625 -4.53515625 7.5 C-3.77525391 6.2625 -3.77525391 6.2625 -3 5 C-1.99829949 3.33435482 -0.99780904 1.66797929 0 0 Z " fill="#3E7BB1" transform="translate(597,150)"/>
<path d="M0 0 C2.875 0.625 2.875 0.625 6 2 C7.89241904 5.78483807 8.18071867 8.0183064 7 12 C5.82767315 10.3790787 4.6622923 8.75313167 3.5 7.125 C2.8503125 6.22007812 2.200625 5.31515625 1.53125 4.3828125 C0 2 0 2 0 0 Z " fill="#5A93C5" transform="translate(502,243)"/>
<path d="M0 0 C0 3 0 3 -1.75 4.97265625 C-2.4925 5.66230469 -3.235 6.35195312 -4 7.0625 C-5.36847481 8.33831766 -6.71055602 9.64435689 -8 11 C-8 11.66 -8 12.32 -8 13 C-9.32 13.33 -10.64 13.66 -12 14 C-9.38243868 8.32861715 -5.24688193 3.43065357 0 0 Z " fill="#CFCFCF" transform="translate(398,237)"/>
<path d="M0 0 C0.66 0.33 1.32 0.66 2 1 C1.65066406 1.59167969 1.30132813 2.18335938 0.94140625 2.79296875 C0.48636719 3.58316406 0.03132812 4.37335938 -0.4375 5.1875 C-0.88996094 5.96480469 -1.34242188 6.74210937 -1.80859375 7.54296875 C-3.02391499 10.04931977 -3.57626575 12.25790365 -4 15 C-4.66 15 -5.32 15 -6 15 C-6.125 12.125 -6.125 12.125 -6 9 C-5.34 8.34 -4.68 7.68 -4 7 C-3.3574765 4.93125966 -3.3574765 4.93125966 -3 3 C-2.34 3 -1.68 3 -1 3 C-0.67 2.01 -0.34 1.02 0 0 Z " fill="#3F7AB1" transform="translate(758,265)"/>
<path d="M0 0 C0 0.66 0 1.32 0 2 C-1.93530766 3.82729049 -3.99047623 5.46895378 -6.0546875 7.1484375 C-8.00628224 9.00597948 -8.968272 10.53471309 -10 13 C-10.66 12.01 -11.32 11.02 -12 10 C-10.38113585 8.32737283 -8.7547271 6.66204463 -7.125 5 C-6.22007812 4.071875 -5.31515625 3.14375 -4.3828125 2.1875 C-2 0 -2 0 0 0 Z " fill="#D3EFFC" transform="translate(594,275)"/>
<path d="M0 0 C0 0.66 0 1.32 0 2 C-4.61012242 4.95047835 -7.36529617 6.5497272 -13 6 C-13.33 5.01 -13.66 4.02 -14 3 C-13.319375 3.2475 -12.63875 3.495 -11.9375 3.75 C-6.90604653 4.17820881 -4.71955915 0 0 0 Z " fill="#407AAF" transform="translate(650,155)"/>
<path d="M0 0 C0 3 0 3 -2.4375 5.5 C-3.283125 6.325 -4.12875 7.15 -5 8 C-5.33 8.99 -5.66 9.98 -6 11 C-7.65 11 -9.3 11 -11 11 C-7.33333333 7.33333333 -3.66666667 3.66666667 0 0 Z " fill="#E1F7FD" transform="translate(645,280)"/>
<path d="M0 0 C0.66 0.33 1.32 0.66 2 1 C2 1.99 2 2.98 2 4 C1.278125 4.12375 0.55625 4.2475 -0.1875 4.375 C-4.11546779 5.24788173 -7.1263324 6.1263324 -10 9 C-9.77734375 7.17578125 -9.77734375 7.17578125 -9 5 C-7.00390625 3.48046875 -7.00390625 3.48046875 -4.5625 2.1875 C-3.35787109 1.52814453 -3.35787109 1.52814453 -2.12890625 0.85546875 C-1.42636719 0.57316406 -0.72382812 0.29085937 0 0 Z " fill="#4995DA" transform="translate(514,236)"/>
<path d="M0 0 C0.99 0.33 1.98 0.66 3 1 C2.625 3.4375 2.625 3.4375 2 6 C1.01 6.495 1.01 6.495 0 7 C-0.33 7.99 -0.66 8.98 -1 10 C-3.0625 10.6875 -3.0625 10.6875 -5 11 C-4.6390625 10.45730469 -4.278125 9.91460937 -3.90625 9.35546875 C-3.4421875 8.64003906 -2.978125 7.92460937 -2.5 7.1875 C-2.0359375 6.47980469 -1.571875 5.77210938 -1.09375 5.04296875 C0.23599375 2.94541876 0.23599375 2.94541876 0 0 Z " fill="#3F7CB2" transform="translate(520,272)"/>
<path d="M0 0 C1.65 0 3.3 0 5 0 C-0.14285714 4.42857143 -0.14285714 4.42857143 -4 5 C-4.66 3.68 -5.32 2.36 -6 1 C-3.03 1.495 -3.03 1.495 0 2 C0 1.34 0 0.68 0 0 Z " fill="#437AAB" transform="translate(607,407)"/>
<path d="M0 0 C2.63978826 3.18595135 5.10498388 6.30970546 7 10 C6.67 10.66 6.34 11.32 6 12 C4.98829382 10.75945552 3.99102203 9.5071298 3 8.25 C2.443125 7.55390625 1.88625 6.8578125 1.3125 6.140625 C0 4 0 4 0 0 Z " fill="#437BAC" transform="translate(764,296)"/>
<path d="M0 0 C2.52475462 1.26237731 3.46605403 2.7904653 5.125 5.0625 C5.66382813 5.79597656 6.20265625 6.52945312 6.7578125 7.28515625 C7.16773438 7.85105469 7.57765625 8.41695313 8 9 C7.01 9 6.02 9 5 9 C4.67 8.01 4.34 7.02 4 6 C3.34 6 2.68 6 2 6 C2 5.34 2 4.68 2 4 C1.01 3.67 0.02 3.34 -1 3 C-0.67 2.01 -0.34 1.02 0 0 Z " fill="#4C97D5" transform="translate(581,284)"/>
<path d="M0 0 C1.64936913 0.78427352 3.29441127 1.57765259 4.9375 2.375 C5.85402344 2.81585938 6.77054688 3.25671875 7.71484375 3.7109375 C10 5 10 5 11 7 C9.53760185 6.79839367 8.07988435 6.56262996 6.625 6.3125 C5.81289063 6.18488281 5.00078125 6.05726563 4.1640625 5.92578125 C2 5 2 5 0.7109375 2.41796875 C0.47632813 1.62003906 0.24171875 0.82210937 0 0 Z " fill="#3E79AC" transform="translate(747,226)"/>
<path d="M0 0 C0.33 0.66 0.66 1.32 1 2 C-1.09016808 6.54918935 -4.13620455 8.99482576 -8 12 C-6.59023295 8.96147295 -4.91129772 6.4060405 -2.875 3.75 C-2.06675781 2.69039063 -2.06675781 2.69039063 -1.2421875 1.609375 C-0.83226562 1.07828125 -0.42234375 0.5471875 0 0 Z " fill="#CACACA" transform="translate(369,273)"/>
<path d="M0 0 C0.66 0.33 1.32 0.66 2 1 C1.0479279 2.00596297 0.08812654 3.00461563 -0.875 4 C-1.40867187 4.556875 -1.94234375 5.11375 -2.4921875 5.6875 C-4 7 -4 7 -6 7 C-7.625 4.5 -7.625 4.5 -9 2 C-7.6078125 2.3403125 -7.6078125 2.3403125 -6.1875 2.6875 C-3.03173152 3.36319983 -3.03173152 3.36319983 -1.125 1.5625 C-0.75375 1.046875 -0.3825 0.53125 0 0 Z " fill="#4A8FCB" transform="translate(630,292)"/>
<path d="M0 0 C2.61724095 2.36797991 4.32861729 4.89600354 6 8 C6 8.66 6 9.32 6 10 C5.34 10 4.68 10 4 10 C1.1605948 6.32547562 0 4.73113419 0 0 Z " fill="#3E74A7" transform="translate(676,149)"/>
<path d="M0 0 C2.61500768 2.36595933 4.38999603 4.86049226 6 8 C5.67 8.66 5.34 9.32 5 10 C1.32769295 6.92000054 0.43197635 4.7517398 0 0 Z " fill="#3C72A1" transform="translate(758,286)"/>
<path d="M0 0 C0.33 0.66 0.66 1.32 1 2 C-1.97 4.475 -1.97 4.475 -5 7 C-5.99 6.34 -6.98 5.68 -8 5 C-4.04 2.525 -4.04 2.525 0 0 Z " fill="#040B16" transform="translate(622,401)"/>
<path d="M0 0 C0.99 0.33 1.98 0.66 3 1 C1.80873219 3.38253561 0.61305574 4.12188876 -1.5625 5.625 C-2.20316406 6.07101562 -2.84382813 6.51703125 -3.50390625 6.9765625 C-3.99761719 7.31429688 -4.49132812 7.65203125 -5 8 C-3.62845496 5.04590299 -2.01136276 2.55991624 0 0 Z " fill="#D0D0D0" transform="translate(353,295)"/>
<path d="M0 0 C0.33 0.99 0.66 1.98 1 3 C-0.98 4.32 -2.96 5.64 -5 7 C-5.66 6.67 -6.32 6.34 -7 6 C-5.625 4.5 -5.625 4.5 -4 3 C-3.34 3 -2.68 3 -2 3 C-2 2.34 -2 1.68 -2 1 C-1.34 0.67 -0.68 0.34 0 0 Z " fill="#DCF2FC" transform="translate(670,257)"/>
<path d="M0 0 C-0.33 0.99 -0.66 1.98 -1 3 C-1.66 3 -2.32 3 -3 3 C-3.33 3.66 -3.66 4.32 -4 5 C-4.33 4.34 -4.66 3.68 -5 3 C-5.99 3 -6.98 3 -8 3 C-5.48696401 0.48696401 -3.51117809 0 0 0 Z " fill="#469AE4" transform="translate(663,295)"/>
<path d="M0 0 C0.66 0.33 1.32 0.66 2 1 C0.60667426 4.36720387 -0.9789286 5.9859524 -4 8 C-4 7.01 -4 6.02 -4 5 C-3.34 5 -2.68 5 -2 5 C-1.34 3.35 -0.68 1.7 0 0 Z " fill="#DBF5FE" transform="translate(699,253)"/>
</svg>
