<?xml version="1.0" encoding="UTF-8"?>
<svg version="1.1" xmlns="http://www.w3.org/2000/svg" width="866" height="650">
<path d="M0 0 C285.78 0 571.56 0 866 0 C866 214.5 866 429 866 650 C580.22 650 294.44 650 0 650 C0 435.5 0 221 0 0 Z " fill="#FEFEFE" transform="translate(0,0)"/>
<path d="M0 0 C90.31890661 0 90.31890661 0 104 13 C104.69867188 13.65871094 105.39734375 14.31742187 106.1171875 14.99609375 C111.38403354 20.40763336 113.98366795 25.76626637 116 33 C116.19207031 33.63292969 116.38414062 34.26585937 116.58203125 34.91796875 C118.79287137 45.93084521 117.22144567 58.48858588 111.0625 67.9375 C110.06931253 69.31207146 109.04716009 70.66608703 108 72 C107.4121875 72.82242188 106.824375 73.64484375 106.21875 74.4921875 C103.58250417 77.47188789 100.86142096 79.17365798 97.4375 81.1875 C96.29018962 81.86819476 95.14304853 82.54917497 93.99609375 83.23046875 C93.00738281 83.81441406 92.01867187 84.39835937 91 85 C90.01 85.66 89.02 86.32 88 87 C95.64965481 99.64649669 103.37166917 112.23808354 111.2890625 124.71875 C113.79763816 128.67423944 116.2857676 132.64173555 118.75 136.625 C119.38421875 137.64851562 120.0184375 138.67203125 120.671875 139.7265625 C122 142 122 142 122 143 C97.76321152 145.95658176 97.76321152 145.95658176 90.72265625 141.58642578 C86.84297271 137.45931344 84.74628908 132.30688092 82.50244141 127.16894531 C79.82376519 121.51908876 76.41453009 116.30009027 73.10510254 111.0032959 C71.23870223 108.00085977 69.41458678 104.97318132 67.58984375 101.9453125 C66.96972412 100.91937988 66.34960449 99.89344727 65.71069336 98.83642578 C64 96 64 96 62.77246094 93.17260742 C61.07869754 90.61852816 61.07869754 90.61852816 57.4465332 90.34057617 C55.9817599 90.29995033 54.51609657 90.28507571 53.05078125 90.29296875 C52.36576538 90.27834595 51.68074951 90.26372314 50.97497559 90.24865723 C48.42117361 90.20136198 45.86672225 90.1969893 43.3125 90.1875 C37.599375 90.125625 31.88625 90.06375 26 90 C26 107.49 26 124.98 26 143 C17.42 143 8.84 143 0 143 C0 95.81 0 48.62 0 0 Z " fill="#171C20" transform="translate(286,257)"/>
<path d="M0 0 C8.91 0 17.82 0 27 0 C27 50.49 27 100.98 27 153 C18.42 153 9.84 153 1 153 C0.67 147.72 0.34 142.44 0 137 C-1.32 138.98 -2.64 140.96 -4 143 C-10.97931579 150.47783835 -20.12660089 154.53135915 -30.265625 155.22265625 C-43.08987464 155.54187459 -54.67041952 152.46524316 -64.484375 143.80859375 C-77.76195574 129.92951187 -81.58223505 112.4040861 -81.27734375 93.78125 C-80.66077281 78.59090531 -74.86822662 65.26884693 -64.421875 54.2265625 C-55.7602528 46.26345822 -45.36587912 42.40394095 -33.6875 42.5 C-32.86008301 42.50644531 -32.03266602 42.51289063 -31.18017578 42.51953125 C-20.28658989 42.8423671 -12.63051814 46.7068016 -4.7421875 54.1328125 C-3 56 -3 56 -1 59 C-0.67 39.53 -0.34 20.06 0 0 Z " fill="#181D21" transform="translate(591,248)"/>
<path d="M0 0 C1.46034668 0.00845947 1.46034668 0.00845947 2.95019531 0.01708984 C15.11517821 0.22220892 25.84443398 2.5134243 35.0625 10.9765625 C44.81130617 21.65150526 45.54021738 33.90015262 45.62890625 47.76953125 C45.64512802 49.16282768 45.66231269 50.5561132 45.68040466 51.9493866 C45.7258043 55.59920114 45.76073396 59.24903181 45.79260254 62.89898682 C45.84470314 68.72770149 45.91055808 74.5562509 45.98081779 80.38477135 C46.00325372 82.39846506 46.01948863 84.41222487 46.03553772 86.42597961 C46.11833056 94.10618174 46.51931821 101.66592425 47.25 109.3125 C39.66 109.3125 32.07 109.3125 24.25 109.3125 C23.26 103.3725 23.26 103.3725 22.25 97.3125 C21.59 97.3125 20.93 97.3125 20.25 97.3125 C19.755 98.01375 19.26 98.715 18.75 99.4375 C11.56102204 107.70482466 -0.01235369 111.87607749 -10.75 112.6953125 C-21.6876788 113.17278175 -31.31334357 111.09916179 -39.96484375 104.08203125 C-46.44443654 97.65915262 -49.7760716 90.57405168 -50.0625 81.5 C-49.87081217 72.37791464 -47.31508547 64.83629562 -40.75 58.3125 C-32.48490427 52.1932834 -23.71206161 49.13631082 -13.625 47.75 C-12.7784082 47.62778076 -11.93181641 47.50556152 -11.05957031 47.37963867 C-0.99584779 45.98169546 9.12449402 45.12143672 19.25 44.3125 C18.94394634 34.08808138 18.94394634 34.08808138 14.25 25.3125 C8.78232194 20.6768599 3.66120541 20.87116165 -3.34765625 20.87890625 C-8.62459506 21.55139788 -11.80512339 23.34614892 -15.5 27.125 C-18.15224392 30.5567591 -18.15224392 30.5567591 -19.75 36.3125 C-28 36.3125 -36.25 36.3125 -44.75 36.3125 C-43.46261534 24.72603803 -40.37656977 16.43404212 -31.17578125 8.99609375 C-21.35410929 2.1794422 -11.79371395 -0.07114443 0 0 Z " fill="#171D20" transform="translate(456.75,290.6875)"/>
<path d="M0 0 C0 43.89 0 87.78 0 133 C-17.56298003 133 -30.75687511 127.11352158 -43.27734375 114.84375 C-57.04203931 100.46685134 -62.41286922 83.24635335 -62.36914062 63.69238281 C-61.92790228 44.64084972 -54.23752068 27.98417883 -40.57421875 14.62890625 C-28.30590532 3.85096571 -16.32236362 0 0 0 Z " fill="#151A1F" transform="translate(152,294)"/>
<path d="M0 0 C28.2912669 -2.2489295 28.2912669 -2.2489295 33.97265625 2.5078125 C36.6795187 5.66403552 38.30514453 9.22453503 40 13 C41.22203623 14.95525796 42.47038766 16.89442844 43.75 18.8125 C44.56404297 20.13121094 44.56404297 20.13121094 45.39453125 21.4765625 C47.72625517 25.14151056 50.32516849 28.58052675 53 32 C61.16171258 21.66065045 68.69449097 10.95826355 76 0 C78.88916016 -0.34057617 78.88916016 -0.34057617 82.5390625 -0.29296875 C84.49199219 -0.2784668 84.49199219 -0.2784668 86.484375 -0.26367188 C87.86458923 -0.23860388 89.24479756 -0.21320902 90.625 -0.1875 C92.01300663 -0.17245517 93.40102867 -0.15876641 94.7890625 -0.14648438 C98.19309509 -0.1110257 101.59635622 -0.06160298 105 0 C101.01015957 6.09798584 96.84874423 12.02849344 92.5 17.875 C91.27600462 19.52861842 90.05204749 21.18226514 88.828125 22.8359375 C87.88936523 24.10195801 87.88936523 24.10195801 86.93164062 25.39355469 C83.69762333 29.75735254 80.4736471 34.12853916 77.25 38.5 C76.35571289 39.71018799 76.35571289 39.71018799 75.44335938 40.94482422 C74.61288086 42.07041748 74.61288086 42.07041748 73.765625 43.21875 C73.27868164 43.87810547 72.79173828 44.53746094 72.29003906 45.21679688 C69.75517416 48.25942642 69.75517416 48.25942642 69.22192383 51.95874023 C70.05930863 54.15559442 71.05699366 55.7672383 72.44921875 57.66015625 C72.96057373 58.36172852 73.47192871 59.06330078 73.9987793 59.78613281 C74.55605713 60.53733398 75.11333496 61.28853516 75.6875 62.0625 C76.55338745 63.24537598 76.55338745 63.24537598 77.43676758 64.45214844 C79.28461397 66.97300204 81.14146581 69.48701835 83 72 C84.2085744 73.6391452 85.4169108 75.27846591 86.625 76.91796875 C88.39860589 79.32374381 90.17232875 81.72943195 91.9465332 84.13476562 C95.605923 89.09868165 99.26115806 94.06529067 102.875 99.0625 C103.2980542 99.64032227 103.7211084 100.21814453 104.15698242 100.81347656 C107 104.76866375 107 104.76866375 107 107 C81.74842662 109.83127368 81.74842662 109.83127368 74.49658203 105.50732422 C70.41365395 101.51587324 67.8838771 96.64392228 65.36083984 91.57177734 C63.05572717 87.21547004 60.09763941 83.34086152 57.1875 79.375 C56.17755266 77.94773831 55.17069502 76.51828159 54.16796875 75.0859375 C53.09482422 73.55839844 53.09482422 73.55839844 52 72 C49.33814363 75.27328045 46.78253993 78.60304926 44.30102539 82.01342773 C43.3636747 83.29315899 42.41281102 84.56306726 41.45092773 85.82446289 C38.89272991 89.21363365 36.67892334 92.49265654 34.8203125 96.31640625 C32.51685883 100.70503248 30.45181584 104.54194217 26 107 C16.81694648 108.83772448 7.25499726 107.91955797 -2 107 C1.04098894 101.39271307 4.55284 96.35028775 8.375 91.25 C9.62251764 89.57170512 10.8699097 87.89331689 12.1171875 86.21484375 C13.0757666 84.92876221 13.0757666 84.92876221 14.05371094 83.61669922 C17.21914807 79.36090955 20.35820163 75.0857526 23.5 70.8125 C24.61413065 69.297844 25.72869563 67.78350736 26.84375 66.26953125 C27.36195313 65.56006348 27.88015625 64.8505957 28.4140625 64.11962891 C29.5046261 62.66207454 30.62657582 61.22764869 31.7734375 59.81396484 C32.33289063 59.11609863 32.89234375 58.41823242 33.46875 57.69921875 C33.97857422 57.08264404 34.48839844 56.46606934 35.01367188 55.83081055 C36.1909824 54.05033624 36.1909824 54.05033624 35.81347656 51.99975586 C34.93337341 49.83621296 33.90277065 48.18374613 32.515625 46.3046875 C31.99895264 45.59771729 31.48228027 44.89074707 30.94995117 44.16235352 C30.38896729 43.40752686 29.8279834 42.6527002 29.25 41.875 C28.06362271 40.2566419 26.87743012 38.63814838 25.69140625 37.01953125 C25.08055176 36.19018066 24.46969727 35.36083008 23.84033203 34.50634766 C20.93051772 30.54347239 18.06020092 26.55231528 15.1875 22.5625 C10.83932463 16.52874885 10.83932463 16.52874885 6.44140625 10.53125 C5.71824219 9.5515625 4.99507812 8.571875 4.25 7.5625 C3.63640625 6.73878906 3.0228125 5.91507812 2.390625 5.06640625 C1 3 1 3 0 0 Z " fill="#171C20" transform="translate(668,293)"/>
<path d="M0 0 C20.46 0 40.92 0 62 0 C62 20.46 62 40.92 62 62 C41.54 62 21.08 62 0 62 C0 41.54 0 21.08 0 0 Z " fill="#14191D" transform="translate(90,222)"/>
<path d="M0 0 C6.72359984 3.5676244 10.18947983 9.15419144 13.23828125 15.93359375 C17.23913386 29.08511438 16.3931101 45.91818006 10.3125 58.1875 C6.34321273 63.76595779 1.63069075 68.35188214 -5 70.4375 C-13.60237773 71.50856931 -20.96549063 70.72576673 -28 65.4375 C-36.23509869 57.5349726 -39.14734685 48.47429946 -39.41235352 37.3034668 C-39.42065186 36.33707275 -39.4289502 35.37067871 -39.4375 34.375 C-39.44773193 33.45307861 -39.45796387 32.53115723 -39.46850586 31.58129883 C-39.34037306 21.51973834 -37.08603537 12.82405919 -30 5.4375 C-21.41082286 -2.02922786 -10.99696156 -4.39127817 0 0 Z " fill="#FCFCFC" transform="translate(577,312.5625)"/>
<path d="M0 0 C7.93071307 5.35292298 12.01473884 12.04421652 15 21 C15.94719928 30.19249135 14.38404631 38.07838909 9.1171875 45.73828125 C2.98921337 53.15115319 -3.2848111 57.31417733 -12.90625 58.46875 C-23.62109801 59.07450959 -31.25880739 56.59467766 -39.3125 49.4375 C-45.1412085 43.13587398 -48.19931153 35.55857863 -48.625 27 C-48.1422178 17.2935368 -44.29355274 9.14274361 -37.12109375 2.62109375 C-26.1365662 -5.77407924 -12.19887877 -6.47436745 0 0 Z " fill="#161B1F" transform="translate(209,226)"/>
<path d="M0 0 C8.91 0 17.82 0 27 0 C27 35.64 27 71.28 27 108 C18.09 108 9.18 108 0 108 C0 72.36 0 36.72 0 0 Z " fill="#1A2023" transform="translate(634,293)"/>
<path d="M0 0 C10.5496875 -0.12375 10.5496875 -0.12375 21.3125 -0.25 C24.607948 -0.30462402 24.607948 -0.30462402 27.9699707 -0.36035156 C39.07068307 -0.46782811 49.20817213 -0.53810885 58.5 6.375 C63.99965814 12.14964104 65.42782434 18.52367786 65.34765625 26.265625 C64.60222088 32.12859983 61.77672726 37.07098183 57.8125 41.375 C49.99131379 45.89390759 43.1756059 47.59062179 34.1796875 47.390625 C33.30513916 47.38659668 32.43059082 47.38256836 31.52954102 47.37841797 C28.31114246 47.35773525 25.09304664 47.30189287 21.875 47.25 C14.65625 47.1675 7.4375 47.085 0 47 C0 31.49 0 15.98 0 0 Z " fill="#FCFCFC" transform="translate(312,279)"/>
<path d="M0 0 C0.81473775 14.84633237 0.81473775 14.84633237 -4 21 C-9.41812237 26.93356321 -14.91087008 30.52331369 -22.9609375 31.27734375 C-30.19413116 31.50059047 -34.68330261 30.70572682 -40.375 26.0625 C-42.96048174 21.18986133 -42.71799948 16.39247529 -42 11 C-40.02951641 6.97692933 -38.43488087 6.20244454 -34.375 4.3125 C-23.2244163 0.65758645 -11.66273291 -0.22332893 0 0 Z " fill="#F9FAFA" transform="translate(476,353)"/>
<path d="M0 0 C9.24 0 18.48 0 28 0 C28 8.58 28 17.16 28 26 C18.76 26 9.52 26 0 26 C0 17.42 0 8.84 0 0 Z " fill="#161B1F" transform="translate(633,249)"/>
<path d="M0 0 C0.33 0.99 0.66 1.98 1 3 C0.07421875 4.82421875 0.07421875 4.82421875 -1.3125 6.6875 C-1.76238281 7.31011719 -2.21226562 7.93273437 -2.67578125 8.57421875 C-3.11277344 9.04472656 -3.54976562 9.51523437 -4 10 C-4.66 10 -5.32 10 -6 10 C-4.6302836 6.00499382 -2.74277578 3.19990508 0 0 Z " fill="#343738" transform="translate(681,378)"/>
<path d="M0 0 C0.66 0.99 1.32 1.98 2 3 C1.2575 3.4125 0.515 3.825 -0.25 4.25 C-2.90171685 5.93745618 -4.86674014 7.70872089 -7 10 C-5.6062718 5.56541027 -3.39417765 3.12621626 0 0 Z " fill="#313437" transform="translate(425,300)"/>
<path d="M0 0 C0 0.99 0 1.98 0 3 C-2.97 3.66 -5.94 4.32 -9 5 C-4.16129032 0 -4.16129032 0 0 0 Z " fill="#2F3134" transform="translate(182,224)"/>
<path d="M0 0 C0.33 1.32 0.66 2.64 1 4 C-0.32 4.33 -1.64 4.66 -3 5 C-2.67 6.32 -2.34 7.64 -2 9 C-2.99 8.01 -3.98 7.02 -5 6 C-3.35 4.02 -1.7 2.04 0 0 Z " fill="#303537" transform="translate(110,310)"/>
</svg>
